<svg width="343" height="48" viewBox="0 0 343 48" fill="none" xmlns="http://www.w3.org/2000/svg">
<path d="M0.160511 37H7.84872V21.9787H22.6392V15.6399H7.84872V6.97514H24.2372V0.636363H0.160511V37ZM38.087 37.5327C46.3612 37.5327 51.5103 31.8686 51.5103 23.4702C51.5103 15.0185 46.3612 9.37216 38.087 9.37216C29.8129 9.37216 24.6637 15.0185 24.6637 23.4702C24.6637 31.8686 29.8129 37.5327 38.087 37.5327ZM38.1225 31.6733C34.305 31.6733 32.3519 28.1754 32.3519 23.4169C32.3519 18.6584 34.305 15.1428 38.1225 15.1428C41.869 15.1428 43.8221 18.6584 43.8221 23.4169C43.8221 28.1754 41.869 31.6733 38.1225 31.6733ZM67.2511 37.5327C75.5252 37.5327 80.6744 31.8686 80.6744 23.4702C80.6744 15.0185 75.5252 9.37216 67.2511 9.37216C58.9769 9.37216 53.8278 15.0185 53.8278 23.4702C53.8278 31.8686 58.9769 37.5327 67.2511 37.5327ZM67.2866 31.6733C63.4691 31.6733 61.516 28.1754 61.516 23.4169C61.516 18.6584 63.4691 15.1428 67.2866 15.1428C71.033 15.1428 72.9862 18.6584 72.9862 23.4169C72.9862 28.1754 71.033 31.6733 67.2866 31.6733ZM94.1424 37.4439C98.5458 37.4439 100.836 34.9048 101.884 32.6321H102.203V37H109.661V0.636363H102.115V14.3082H101.884C100.872 12.0888 98.6879 9.37216 94.1246 9.37216C88.141 9.37216 83.0806 14.0241 83.0806 23.3991C83.0806 32.5256 87.9279 37.4439 94.1424 37.4439ZM96.5394 31.4247C92.8285 31.4247 90.8043 28.1222 90.8043 23.3636C90.8043 18.6406 92.793 15.3913 96.5394 15.3913C100.215 15.3913 102.275 18.4986 102.275 23.3636C102.275 28.2287 100.179 31.4247 96.5394 31.4247ZM132.282 0.636363H124.594V37H132.282V0.636363ZM144.53 21.233C144.547 17.7173 146.643 15.6577 149.697 15.6577C152.733 15.6577 154.562 17.6463 154.544 20.9844V37H162.108V19.6349C162.108 13.2784 158.379 9.37216 152.697 9.37216C148.649 9.37216 145.719 11.3608 144.494 14.5391H144.175V9.72727H136.966V37H144.53V21.233ZM189.261 17.5043C188.586 12.4794 184.538 9.37216 177.649 9.37216C170.671 9.37216 166.072 12.6037 166.09 17.8594C166.072 21.9432 168.647 24.5888 173.973 25.6541L178.696 26.5952C181.076 27.0746 182.159 27.9446 182.194 29.3118C182.159 30.9276 180.401 32.0817 177.755 32.0817C175.056 32.0817 173.263 30.9276 172.801 28.7081L165.362 29.0987C166.072 34.3189 170.511 37.5327 177.738 37.5327C184.804 37.5327 189.865 33.9283 189.882 28.5483C189.865 24.6065 187.29 22.245 181.999 21.1619L177.063 20.1676C174.524 19.6172 173.583 18.7472 173.6 17.4332C173.583 15.7997 175.429 14.7344 177.773 14.7344C180.401 14.7344 181.963 16.1726 182.336 17.9304L189.261 17.5043ZM193.145 47.2273H200.709V32.6321H200.94C201.988 34.9048 204.278 37.4439 208.682 37.4439C214.896 37.4439 219.743 32.5256 219.743 23.3991C219.743 14.0241 214.683 9.37216 208.699 9.37216C204.136 9.37216 201.952 12.0888 200.94 14.3082H200.603V9.72727H193.145V47.2273ZM200.55 23.3636C200.55 18.4986 202.609 15.3913 206.285 15.3913C210.031 15.3913 212.02 18.6406 212.02 23.3636C212.02 28.1222 209.996 31.4247 206.285 31.4247C202.645 31.4247 200.55 28.2287 200.55 23.3636ZM235.715 37.5327C242.462 37.5327 247.008 34.2479 248.073 29.1875L241.077 28.7259C240.314 30.8033 238.361 31.8864 235.839 31.8864C232.057 31.8864 229.66 29.3828 229.66 25.3168V25.299H248.233V23.2216C248.233 13.9531 242.622 9.37216 235.413 9.37216C227.388 9.37216 222.185 15.0717 222.185 23.4879C222.185 32.1349 227.317 37.5327 235.715 37.5327ZM229.66 20.6115C229.82 17.5043 232.182 15.0185 235.537 15.0185C238.822 15.0185 241.095 17.3622 241.113 20.6115H229.66ZM263.991 37.5327C271.253 37.5327 275.817 33.2713 276.172 27.0036H269.034C268.59 29.9155 266.672 31.549 264.08 31.549C260.547 31.549 258.256 28.5838 258.256 23.3636C258.256 18.2145 260.564 15.267 264.08 15.267C266.85 15.267 268.626 17.0959 269.034 19.8125H276.172C275.852 13.5092 271.076 9.37216 263.956 9.37216C255.682 9.37216 250.568 15.1072 250.568 23.4702C250.568 31.7621 255.593 37.5327 263.991 37.5327ZM294.021 9.72727H288.89V3.19318H281.326V9.72727H277.597V15.4091H281.326V29.6136C281.29 34.9581 284.93 37.6037 290.417 37.3729C292.37 37.3018 293.755 36.9112 294.518 36.6626L293.328 31.0341C292.956 31.1051 292.157 31.2827 291.446 31.2827C289.937 31.2827 288.89 30.7145 288.89 28.6193V15.4091H294.021V9.72727ZM309.478 37.5327C317.752 37.5327 322.901 31.8686 322.901 23.4702C322.901 15.0185 317.752 9.37216 309.478 9.37216C301.203 9.37216 296.054 15.0185 296.054 23.4702C296.054 31.8686 301.203 37.5327 309.478 37.5327ZM309.513 31.6733C305.696 31.6733 303.743 28.1754 303.743 23.4169C303.743 18.6584 305.696 15.1428 309.513 15.1428C313.26 15.1428 315.213 18.6584 315.213 23.4169C315.213 28.1754 313.26 31.6733 309.513 31.6733ZM326.319 37H333.883V21.5703C333.883 18.2145 336.333 15.9062 339.672 15.9062C340.719 15.9062 342.157 16.0838 342.868 16.3146V9.60298C342.193 9.44318 341.252 9.33665 340.488 9.33665C337.434 9.33665 334.931 11.1122 333.936 14.4858H333.652V9.72727H326.319V37Z" fill="white" fill-opacity="0.46"/>
</svg>
