<svg width="279" height="165" viewBox="0 0 279 165" fill="none" xmlns="http://www.w3.org/2000/svg">
<g clip-path="url(#clip0)">
<path d="M159.032 115.046C163.214 117.811 185.914 121.45 215.341 95.0528C245.84 67.6928 264.837 40.5229 269.021 29.6433C273.114 18.9969 261.741 -2.99551 236.42 8.9561C219.774 16.8149 184.44 40.7485 167.151 67.2189C149.446 94.3331 149.296 108.609 159.032 115.046Z" fill="#FFA227"/>
<path d="M268.482 26.701C265.592 35.0413 259.573 41.2883 254.651 48.5211C249.277 56.4204 242.719 63.1387 236.887 70.5185C230.789 78.2354 222.535 83.347 215.618 90.1464C212.245 93.4638 209.693 97.4603 205.618 100.137C201.334 102.947 196.906 105.208 192.519 107.787C188.078 110.398 184.394 111.731 179.806 113.132C177.632 113.796 175.528 114.364 173.247 114.919C171.648 115.309 170.598 116.13 169.513 116.967C179.691 116.802 196.143 112.44 215.509 95.068C246.008 67.708 265.005 40.5381 269.189 29.6585C270.053 27.4132 270.229 24.6609 269.728 21.8276C269.199 23.7435 268.815 25.7355 268.482 26.701Z" fill="#D88921"/>
<path opacity="0.6" d="M236.572 9.2146C219.927 17.0734 184.592 41.007 167.304 67.4774C154.395 87.2422 150.821 100.185 153.602 108.241C154.624 108.649 155.936 108.849 157.657 108.781C167.451 108.401 180.261 105.048 186.212 97.8811C192.224 90.6381 197.061 86.7049 206.273 83.5827C212.214 81.568 215.493 71.147 220.949 68.0451C229.406 63.2376 236.13 55.5968 239.211 46.2833C241.735 38.6603 243.001 34.6891 249.496 29.4406C253.983 25.8141 256.99 22.8718 261.39 19.0222C263.584 17.1012 264.987 15.0865 265.584 12.94C260.383 6.40409 250.627 2.57988 236.572 9.2146Z" fill="#F5892F"/>
<path d="M174.963 74.7837C188.202 72.2114 206.167 79.0007 206.167 79.0007C206.167 79.0007 195.729 66.5245 185.408 64.8139C180.096 63.9345 172.64 64.4768 168.6 64.8874C168.135 65.5615 167.68 66.2382 167.235 66.9173C164.279 71.4435 161.816 75.6099 159.802 79.4417C163.595 77.911 169.228 75.8988 174.963 74.7837Z" fill="#E8B964"/>
<path d="M184.765 66.2204C192.168 67.447 199.634 74.2135 203.261 77.9414C205.308 78.5801 206.535 79.0438 206.535 79.0438C206.535 79.0438 196.098 66.5676 185.777 64.857C180.464 63.9776 173.008 64.5174 168.969 64.9305C168.659 65.3816 168.354 65.8327 168.051 66.2863C172.111 65.8732 179.491 65.3461 184.765 66.2204Z" fill="#C17829"/>
<path d="M190.18 55.8832C198.21 56.4382 219.642 65.5032 219.642 65.5032C219.642 65.5032 212.545 52.1071 204.23 48.9671C199.354 47.1247 191.364 46.0401 185.586 45.4572C181.473 49.4512 177.569 53.6251 174.045 57.9131C177.744 56.7575 183.619 55.4295 190.18 55.8832Z" fill="#E8B964"/>
<path d="M204.232 48.9747C199.357 47.1323 191.367 46.0477 185.589 45.4648C185.124 45.9159 184.664 46.3695 184.203 46.8257C189.941 47.4187 197.661 48.4958 202.417 50.2926C208.363 52.5379 213.686 60.0292 216.238 64.1145C218.333 64.9584 219.645 65.5108 219.645 65.5108C219.645 65.5108 212.547 52.1147 204.232 48.9747Z" fill="#C17829"/>
<path d="M210.219 38.7591C222.194 39.7627 233.796 47.1729 233.796 47.1729C233.796 47.1729 227.535 34.3191 218.384 30.6368C214.624 29.1238 210.379 28.1988 206.68 27.6311C202.422 30.8167 198.103 34.2709 193.879 37.938C198.858 38.1484 207.489 38.531 210.219 38.7591Z" fill="#E8B964"/>
<path d="M218.361 30.6139C214.601 29.101 210.356 28.176 206.657 27.6083C206.263 27.9048 205.867 28.2039 205.47 28.5054C208.93 29.0807 212.771 29.9702 216.208 31.354C222.629 33.9389 227.627 41.0374 230.039 45.0441C232.37 46.2555 233.773 47.15 233.773 47.15C233.773 47.15 227.515 34.2962 218.361 30.6139Z" fill="#C17829"/>
<path d="M230.324 21.597C237.19 24.035 244.742 30.7179 244.742 30.7179C244.742 30.7179 241.41 19.7673 236.887 16.4753C234.991 15.0941 231.953 13.8194 229.144 12.8259C225.707 14.7444 221.871 17.0683 217.807 19.7318C221.584 19.8788 226.966 20.4059 230.324 21.597Z" fill="#E8B964"/>
<path d="M236.887 16.4803C234.991 15.0992 231.953 13.8244 229.144 12.831C228.799 13.0236 228.448 13.2213 228.094 13.424C230.748 14.3896 233.534 15.5908 235.311 16.8858C238.507 19.2123 241.107 25.363 242.358 28.7715C243.83 29.9221 244.74 30.728 244.74 30.728C244.74 30.728 241.41 19.7724 236.887 16.4803Z" fill="#C17829"/>
<path opacity="0.5" d="M173.095 79.9866C170.764 80.2552 168.761 79.6774 166.724 80.6075C165.186 81.312 161.806 82.199 160.773 83.3952C157.138 86.895 151.945 100.95 158.656 102.691C161.287 103.373 167.675 98.2865 169.218 96.0057C170.728 93.773 171.887 91.5707 173.883 89.8499C175.517 88.4409 181.084 85.1337 180.871 82.6627C180.668 80.2805 177.126 79.5203 173.095 79.9866Z" fill="#F7BF31"/>
<path opacity="0.5" d="M191.433 58.6404C188.431 57.9993 185.469 58.7672 182.49 59.013C179.892 59.2284 176.679 57.7661 174.45 59.4083L173.906 60.2421C173.479 61.2279 172.441 62.604 173.87 63.3491C175.006 63.9421 176.776 62.8321 177.785 62.4393C180.375 61.4307 183.286 61.3749 186.021 62.0668C188.383 62.6649 191.209 64.2716 193.741 63.4606C197.214 62.3506 193.324 59.0434 191.433 58.6404Z" fill="#F7BF31"/>
<path opacity="0.5" d="M210.033 41.5088C207.189 40.1048 202.623 41.0222 199.481 40.7105C197.562 40.5204 191.654 38.3359 190.983 41.154L190.213 41.6051C189.605 42.7506 188.446 43.6122 189.758 44.5828C190.828 45.3761 192.394 44.8591 193.53 44.6056C196.222 44.0101 198.83 44.4789 201.456 45.1835C203.66 45.7739 207.123 47.9154 209.459 47.0512C211.869 46.1642 212.448 42.6999 210.033 41.5088Z" fill="#F7BF31"/>
<path opacity="0.5" d="M227.675 23.6777C225.346 23.0517 223.092 23.0897 220.753 22.6032C218.196 22.0735 215.641 22.3573 213.61 23.2925L213.119 23.9235C210.181 25.6367 211.047 28.1253 214.469 27.3955C218.048 26.6326 220.117 27.1978 223.473 28.7057C225.662 29.689 229.144 31.0651 230.616 28.4446C232.263 25.5176 230.232 24.367 227.675 23.6777Z" fill="#F7BF31"/>
<path opacity="0.5" d="M248.415 6.78424C243.947 7.37726 239.368 8.41884 235.517 10.6693L234.724 10.7884C232.784 11.4321 234.17 12.6992 235.362 13.0388C236.732 13.4291 237.792 13.3759 239.028 14.2958C240.217 15.1828 240.67 16.2066 242.276 16.0064C243.387 15.8671 244.709 15.051 245.64 14.3896C247.541 13.0388 249.27 11.1939 250.988 9.70879C253.599 7.44822 251.001 6.44211 248.415 6.78424Z" fill="#F7BF31"/>
<path d="M165.235 74.8547C166.112 74.026 167.144 73.4177 168.181 72.8121C168.783 72.4598 168.234 71.5297 167.634 71.882C166.513 72.5384 165.408 73.2074 164.459 74.102C163.956 74.581 164.729 75.3337 165.235 74.8547Z" fill="#D3A55E"/>
<path d="M169.638 69.7051C170.421 69.5505 171.308 69.4744 172.093 69.6569C172.772 69.8166 173.046 68.7724 172.365 68.6153C171.392 68.3872 170.329 68.4734 169.358 68.6635C168.674 68.7978 168.959 69.8394 169.638 69.7051Z" fill="#D3A55E"/>
<path d="M170.4 73.0655C171.033 72.7081 171.702 72.4978 172.419 72.3787C173.108 72.2672 172.82 71.2256 172.139 71.3371C171.331 71.4689 170.565 71.7299 169.854 72.1329C169.246 72.4775 169.795 73.4076 170.4 73.0655Z" fill="#D3A55E"/>
<path d="M176.204 73.2023C177.21 73.215 178.209 73.2505 179.203 73.0604C179.89 72.9286 179.605 71.8896 178.924 72.0188C178.026 72.1912 177.109 72.1354 176.201 72.1227C175.502 72.1151 175.507 73.1922 176.204 73.2023Z" fill="#D3A55E"/>
<path d="M176.013 69.3579C176.877 69.2438 177.749 69.368 178.616 69.3858C179.315 69.3984 179.31 68.3214 178.616 68.3087C177.749 68.2935 176.877 68.1693 176.013 68.2808C175.721 68.3188 175.474 68.4988 175.474 68.8206C175.472 69.0842 175.721 69.3959 176.013 69.3579Z" fill="#D3A55E"/>
<path d="M180.985 70.3792C181.855 71.1217 182.93 71.7224 184.107 71.6793C184.803 71.6539 184.803 70.5769 184.107 70.6022C183.212 70.6351 182.401 70.1714 181.74 69.6062C181.212 69.1577 180.454 69.9281 180.985 70.3792Z" fill="#D3A55E"/>
<path d="M184.265 67.7815C184.676 68.481 185.098 69.15 185.777 69.6214C186.349 70.0193 186.873 69.0765 186.306 68.6812C185.802 68.3315 185.5 67.7511 185.197 67.2367C184.844 66.6386 183.914 67.1809 184.265 67.7815Z" fill="#D3A55E"/>
<path d="M189.221 73.3367C190.162 73.3468 191.092 73.3265 192.018 73.1415C192.704 73.0047 192.419 71.9656 191.738 72.0999C190.907 72.2647 190.065 72.2672 189.219 72.2571C188.522 72.252 188.525 73.3316 189.221 73.3367Z" fill="#D3A55E"/>
<path d="M191.985 71.6716C192.323 71.8871 192.689 72.0543 193.024 72.2672C193.274 72.4243 193.622 72.3078 193.762 72.0619C193.912 71.7958 193.802 71.4867 193.556 71.327C193.218 71.1116 192.852 70.9469 192.516 70.7314C192.267 70.5743 191.919 70.6909 191.779 70.9367C191.629 71.2028 191.738 71.512 191.985 71.6716Z" fill="#D3A55E"/>
<path d="M196.042 74.4619C196.492 74.6874 196.845 75.0042 197.196 75.359C197.684 75.8532 198.439 75.0827 197.951 74.586C197.539 74.1704 197.099 73.7877 196.573 73.5216C195.95 73.2099 195.416 74.1476 196.042 74.4619Z" fill="#D3A55E"/>
<path d="M178.776 55.617C179.496 55.209 180.246 54.9581 181.051 54.7807C181.735 54.6312 181.45 53.5922 180.772 53.7391C179.874 53.9343 179.028 54.2308 178.23 54.687C177.625 55.0316 178.171 55.9592 178.776 55.617Z" fill="#D3A55E"/>
<path d="M182.038 51.4761C182.724 51.0757 183.413 50.6575 184.163 50.3838C184.814 50.1481 184.539 49.1065 183.883 49.3422C183.039 49.6489 182.264 50.0949 181.491 50.546C180.889 50.8983 181.435 51.8258 182.038 51.4761Z" fill="#D3A55E"/>
<path d="M184.651 53.8203C185.477 53.8279 186.303 53.8355 187.127 53.9216C187.821 53.9951 187.811 52.9155 187.127 52.8446C186.306 52.7584 185.477 52.7508 184.651 52.7432C183.952 52.7356 183.954 53.8127 184.651 53.8203Z" fill="#D3A55E"/>
<path d="M186.967 50.029C187.513 50.6651 188.151 51.1897 188.812 51.7016C189.356 52.1223 190.116 51.357 189.567 50.9287C188.906 50.4167 188.268 49.8922 187.722 49.2561C187.269 48.7289 186.517 49.5044 186.967 50.029Z" fill="#D3A55E"/>
<path d="M193.698 54.4564C194.603 54.5881 195.51 54.7174 196.4 54.9429C197.076 55.1153 197.348 54.0712 196.672 53.9014C195.785 53.6758 194.878 53.5466 193.97 53.4148C193.289 53.3159 193.009 54.3575 193.698 54.4564Z" fill="#D3A55E"/>
<path d="M198.823 51.2176C198.853 51.215 198.884 51.215 198.912 51.2176C199.062 51.2226 198.815 51.1973 198.97 51.2277C199.08 51.2505 199.189 51.286 199.293 51.3189C199.496 51.3848 199.697 51.4608 199.906 51.5166C200.19 51.5926 200.49 51.4127 200.564 51.1314C200.638 50.845 200.462 50.551 200.178 50.475C199.73 50.3534 199.293 50.1227 198.818 50.138C198.523 50.1481 198.279 50.3762 198.279 50.6778C198.281 50.9667 198.528 51.2277 198.823 51.2176Z" fill="#D3A55E"/>
<path d="M203.798 54.3018C204.321 54.872 204.949 55.2952 205.658 55.5993C206.291 55.8705 206.828 54.9353 206.187 54.6591C205.554 54.3879 205.018 54.0357 204.55 53.5288C204.08 53.0169 203.327 53.7898 203.798 54.3018Z" fill="#D3A55E"/>
<path d="M203.678 57.054C204.502 57.3632 205.346 57.5963 206.197 57.8193C206.873 57.9942 207.145 56.9526 206.469 56.7777C205.618 56.5547 204.774 56.3241 203.95 56.0124C203.299 55.7666 203.032 56.8132 203.678 57.054Z" fill="#D3A55E"/>
<path d="M198.472 36.866C199.235 36.6024 199.997 36.3363 200.752 36.05C201.398 35.8042 201.123 34.7626 200.473 35.0084C199.718 35.2948 198.955 35.5609 198.192 35.8244C197.537 36.05 197.814 37.0916 198.472 36.866Z" fill="#D3A55E"/>
<path d="M206.284 31.0347C206.352 31.0296 206.421 31.0296 206.49 31.0321C206.525 31.0347 206.637 31.0499 206.474 31.0271C206.505 31.0321 206.533 31.0372 206.561 31.0448C206.589 31.0524 206.617 31.06 206.645 31.0701C206.749 31.1031 206.525 31.0169 206.629 31.0651C206.701 31.098 206.769 31.1386 206.835 31.1817C207.084 31.3388 207.433 31.2197 207.573 30.9764C207.722 30.7103 207.613 30.4011 207.367 30.244C207.039 30.0336 206.675 29.9399 206.286 29.9627C205.991 29.9804 205.747 30.1958 205.747 30.5025C205.742 30.7787 205.989 31.0524 206.284 31.0347Z" fill="#D3A55E"/>
<path d="M204.512 33.3941C205.097 33.7742 205.689 34.1391 206.368 34.3292C207.039 34.5167 207.311 33.4752 206.64 33.2876C206.055 33.1229 205.546 32.7833 205.041 32.4564C204.456 32.0762 203.93 33.0165 204.512 33.3941Z" fill="#D3A55E"/>
<path d="M206.914 36.5137C207.45 36.5441 207.987 36.5771 208.521 36.6075C209.22 36.6481 209.212 35.571 208.521 35.5304C207.984 35.5 207.448 35.4671 206.914 35.4367C206.215 35.3961 206.223 36.4732 206.914 36.5137Z" fill="#D3A55E"/>
<path d="M215.244 37.274C216.21 37.7834 217.278 38.0115 218.361 38.085C219.057 38.1306 219.05 37.0536 218.361 37.0079C217.466 36.9471 216.571 36.7545 215.776 36.3338C215.16 36.0094 214.627 36.9471 215.244 37.274Z" fill="#D3A55E"/>
<path d="M211.124 33.6145C211.744 33.764 212.39 33.7387 213.01 33.8882C213.686 34.0529 213.961 33.0088 213.282 32.8466C212.662 32.6971 212.016 32.7225 211.396 32.5729C210.72 32.4082 210.445 33.4498 211.124 33.6145Z" fill="#D3A55E"/>
<path d="M220.725 37.0181C221.394 37.5401 222.032 38.0951 222.7 38.6172C223.242 39.0404 224.004 38.2751 223.455 37.8443C222.787 37.3222 222.149 36.7672 221.48 36.2451C220.939 35.8219 220.176 36.5898 220.725 37.0181Z" fill="#D3A55E"/>
<path d="M222.809 40.2721C223.239 40.708 223.669 41.1464 224.098 41.5823C224.586 42.079 225.341 41.3061 224.853 40.8093C224.424 40.3709 223.994 39.935 223.564 39.4991C223.076 39.0049 222.321 39.7754 222.809 40.2721Z" fill="#D3A55E"/>
<path d="M223.425 18.8499C224.284 18.7257 225.148 18.67 226.007 18.5458C226.696 18.4469 226.409 17.4054 225.728 17.5042C224.869 17.6284 224.004 17.6841 223.145 17.8083C222.456 17.9071 222.743 18.9487 223.425 18.8499Z" fill="#D3A55E"/>
<path d="M228.158 15.7986C229.048 16.2801 229.96 16.7084 230.903 17.0734C231.552 17.3268 231.819 16.2801 231.175 16.0318C230.321 15.6998 229.493 15.2968 228.687 14.8609C228.074 14.529 227.543 15.4666 228.158 15.7986Z" fill="#D3A55E"/>
<path d="M230.469 19.562C231.183 19.7597 231.849 20.0967 232.439 20.5453C232.673 20.7227 232.978 20.7658 233.204 20.5352C233.39 20.3451 233.428 19.9523 233.194 19.7723C232.452 19.2072 231.648 18.7688 230.743 18.5204C230.067 18.3354 229.795 19.377 230.469 19.562Z" fill="#D3A55E"/>
<path d="M236.427 22.3421C236.798 22.6842 237.042 23.1328 237.294 23.5611C237.647 24.1617 238.578 23.6168 238.227 23.0162C237.927 22.5068 237.622 21.9746 237.182 21.5692C236.669 21.1003 235.914 21.8707 236.427 22.3421Z" fill="#D3A55E"/>
<path d="M234.028 18.5914C234.503 19.377 235.095 20.0486 235.782 20.6568C236.3 21.1155 237.058 20.3476 236.537 19.8839C235.919 19.3365 235.388 18.7536 234.96 18.0465C234.599 17.451 233.667 17.9958 234.028 18.5914Z" fill="#D3A55E"/>
<path d="M166.493 70.6934C167.403 70.9164 168.318 70.924 169.244 70.7948C169.536 70.7542 169.696 70.3918 169.627 70.1359C169.544 69.8267 169.256 69.7126 168.966 69.7532C168.232 69.8571 167.487 69.8267 166.768 69.6493C166.089 69.4846 165.814 70.5261 166.493 70.6934Z" fill="#FFC871"/>
<path d="M168.379 75.7924C168.722 75.5922 169.063 75.392 169.406 75.1917C170.009 74.8395 169.462 73.9119 168.86 74.2617C168.517 74.4619 168.173 74.6621 167.833 74.8623C167.233 75.2146 167.779 76.1446 168.379 75.7924Z" fill="#FFC871"/>
<path d="M173.476 74.1907C173.646 74.0919 173.819 73.9905 173.99 73.8916C174.244 73.7421 174.333 73.4076 174.183 73.1542C174.033 72.9008 173.697 72.8121 173.443 72.9616C173.273 73.0604 173.1 73.1618 172.93 73.2606C172.675 73.4101 172.589 73.7447 172.736 73.9981C172.886 74.2515 173.222 74.3402 173.476 74.1907Z" fill="#FFC871"/>
<path d="M174.455 71.0305C174.803 71.1116 175.207 71.0989 175.527 70.9291C175.789 70.7923 175.866 70.4375 175.721 70.1916C175.566 69.9306 175.243 69.8622 174.981 69.999C174.915 70.0345 175.133 69.9509 174.994 69.9889C174.973 69.994 174.953 69.9965 174.93 70.0016C175.083 69.9737 174.966 69.9965 174.93 69.999C174.882 70.0016 174.834 70.0016 174.785 69.999C174.762 69.999 174.739 69.9965 174.714 69.994C174.861 70.0066 174.757 69.9965 174.724 69.9889C174.437 69.9205 174.14 70.0852 174.066 70.3741C173.995 70.6529 174.168 70.9621 174.455 71.0305Z" fill="#FFC871"/>
<path d="M173.321 68.0045C173.901 68.0375 174.478 68.0578 175.057 68.0223C175.751 67.9792 175.751 66.9021 175.057 66.9452C174.478 66.9807 173.901 66.9604 173.321 66.9275C172.622 66.8869 172.63 67.9665 173.321 68.0045Z" fill="#FFC871"/>
<path d="M178.962 67.2671C179.254 67.7157 179.801 67.8981 180.319 67.8728C180.614 67.8576 180.858 67.6371 180.858 67.333C180.858 67.0491 180.612 66.7805 180.317 66.7957C180.253 66.7983 180.192 66.7983 180.131 66.7957C180.07 66.7907 180.068 66.7907 180.126 66.7957C180.078 66.7881 180.032 66.7754 179.986 66.7628C179.928 66.7425 179.928 66.7425 179.984 66.7653C179.956 66.7526 179.93 66.74 179.905 66.7248C179.852 66.6918 179.854 66.6943 179.913 66.7349C179.808 66.6513 179.966 66.8337 179.897 66.7248C179.737 66.4789 179.419 66.3776 179.158 66.5322C178.908 66.6741 178.802 67.0213 178.962 67.2671Z" fill="#FFC871"/>
<path d="M179.714 70.8809C180.055 70.9747 180.393 71.1724 180.754 71.3498C181.018 71.479 181.339 71.4106 181.489 71.1445C181.626 70.8987 181.547 70.5414 181.283 70.4121C180.858 70.2043 180.446 69.9661 179.986 69.8394C179.315 69.6544 179.043 70.6959 179.714 70.8809Z" fill="#FFC871"/>
<path d="M181.486 73.3848C182.175 73.4177 182.861 73.3316 183.471 72.9971C184.084 72.6651 183.535 71.735 182.925 72.067C182.483 72.3077 181.977 72.3306 181.483 72.3052C180.784 72.2723 180.792 73.3519 181.486 73.3848Z" fill="#FFC871"/>
<path d="M181.895 55.3433C182.282 55.1178 182.666 54.8923 183.052 54.6692C183.654 54.317 183.108 53.3895 182.505 53.7392C182.119 53.9647 181.735 54.1903 181.349 54.4133C180.746 54.7655 181.293 55.6931 181.895 55.3433Z" fill="#FFC871"/>
<path d="M181.982 52.7989C182.803 52.728 183.563 52.4644 184.277 52.0589C184.882 51.7143 184.336 50.7867 183.731 51.1289C183.189 51.4355 182.605 51.6661 181.979 51.7219C181.29 51.7802 181.288 52.8598 181.982 52.7989Z" fill="#FFC871"/>
<path d="M185.891 52.4061C186.25 52.3909 186.603 52.4847 186.964 52.4695C187.259 52.4568 187.503 52.2338 187.503 51.9297C187.503 51.6459 187.256 51.3772 186.962 51.3924C186.603 51.4076 186.25 51.3139 185.891 51.3316C185.597 51.3443 185.352 51.5673 185.352 51.8714C185.35 52.1527 185.597 52.4214 185.891 52.4061Z" fill="#FFC871"/>
<path d="M189.699 49.4943C190.233 49.4639 190.825 49.474 191.321 49.6995C191.588 49.8212 191.903 49.7654 192.058 49.4943C192.193 49.2535 192.119 48.8835 191.852 48.7593C191.181 48.4527 190.434 48.3767 189.702 48.4172C189.005 48.4552 189.005 49.5323 189.699 49.4943Z" fill="#FFC871"/>
<path d="M191.026 51.1035C191.283 51.5217 191.7 51.6839 192.18 51.656C192.475 51.6382 192.719 51.4228 192.719 51.1162C192.719 50.8349 192.473 50.5612 192.178 50.5789C192.119 50.5815 192.063 50.584 192.005 50.5815C191.967 50.5815 191.858 50.5637 192.023 50.5865C191.995 50.5815 191.969 50.5764 191.941 50.5688C191.842 50.5409 192.063 50.6271 191.972 50.5789C191.931 50.5587 191.87 50.4978 191.997 50.6017C191.977 50.584 191.957 50.5637 191.939 50.5409C192.048 50.6651 191.982 50.5941 191.957 50.5536C191.804 50.3027 191.476 50.2115 191.217 50.361C190.968 50.513 190.874 50.8526 191.026 51.1035Z" fill="#FFC871"/>
<path d="M190.304 54.3879C190.907 54.0357 190.36 53.1081 189.758 53.4579C189.155 53.8076 189.702 54.7377 190.304 54.3879Z" fill="#FFC871"/>
<path d="M190.17 54.4437C190.566 54.3626 190.955 54.3525 191.359 54.3727C192.058 54.4108 192.051 53.3311 191.359 53.2957C190.861 53.2703 190.381 53.3033 189.893 53.4021C189.603 53.4604 189.438 53.7899 189.509 54.061C189.588 54.3575 189.882 54.502 190.17 54.4437Z" fill="#FFC871"/>
<path d="M195.5 51.9246C195.912 52.3403 196.352 52.7255 196.878 52.989C197.498 53.3007 198.032 52.3631 197.407 52.0488C196.957 51.8233 196.604 51.5065 196.253 51.1517C195.765 50.66 195.01 51.4304 195.5 51.9246Z" fill="#FFC871"/>
<path d="M198.096 56.2354C198.663 56.5066 199.224 56.651 199.85 56.5294C200.14 56.4736 200.305 56.1391 200.234 55.8705C200.152 55.5714 199.86 55.432 199.573 55.4878C199.458 55.5106 199.278 55.5081 199.153 55.4827C198.952 55.4422 198.8 55.3763 198.627 55.2952C198.363 55.1685 198.042 55.2318 197.89 55.5005C197.753 55.7438 197.829 56.1087 198.096 56.2354Z" fill="#FFC871"/>
<path d="M200.117 53.3616C200.406 53.8532 200.734 54.2916 201.253 54.5603C201.868 54.8821 202.402 53.9444 201.782 53.6201C201.428 53.4376 201.245 53.1487 201.05 52.8142C200.696 52.2186 199.763 52.7635 200.117 53.3616Z" fill="#FFC871"/>
<path d="M201.634 37.2537C202.267 37.0383 202.867 36.8736 203.541 36.937C204.237 37.0029 204.227 35.9233 203.541 35.8599C202.783 35.7889 202.069 35.9689 201.357 36.2122C200.699 36.4377 200.976 37.4793 201.634 37.2537Z" fill="#FFC871"/>
<path d="M201.291 34.0378C201.655 33.8274 202.021 33.6069 202.453 33.6171C203.152 33.6323 203.147 32.5552 202.453 32.54C201.827 32.5273 201.273 32.801 200.745 33.1077C200.142 33.4599 200.689 34.3875 201.291 34.0378Z" fill="#FFC871"/>
<path d="M203.228 35.2289C203.754 35.2694 204.253 35.4848 204.781 35.5254C205.076 35.5482 205.32 35.2618 205.32 34.9856C205.32 34.6739 205.071 34.4686 204.779 34.4483C204.253 34.4078 203.754 34.1923 203.226 34.1518C202.931 34.129 202.687 34.4154 202.687 34.6916C202.687 35.0008 202.933 35.2061 203.228 35.2289Z" fill="#FFC871"/>
<path d="M204.25 31.4832C204.886 31.7823 205.569 31.9368 206.274 31.9014C206.967 31.8659 206.967 30.7863 206.274 30.8243C205.755 30.8522 205.252 30.766 204.781 30.543C204.153 30.249 203.62 31.1842 204.25 31.4832Z" fill="#FFC871"/>
<path d="M207.984 33.3941C208.767 32.9379 209.55 32.4893 210.442 32.2815C211.124 32.1219 210.839 31.0828 210.163 31.2399C209.182 31.4706 208.302 31.9622 207.438 32.464C206.838 32.8163 207.384 33.7463 207.984 33.3941Z" fill="#FFC871"/>
<path d="M213.254 32.5425C213.689 32.6616 214.093 32.8695 214.5 33.0646C214.764 33.1938 215.084 33.1254 215.237 32.8593C215.374 32.616 215.295 32.2536 215.031 32.1269C214.545 31.8912 214.052 31.6454 213.531 31.501C212.852 31.316 212.58 32.3575 213.254 32.5425Z" fill="#FFC871"/>
<path d="M209.626 35.1782C209.99 35.2796 210.341 35.4494 210.631 35.6926C210.854 35.8827 211.18 35.903 211.396 35.6825C211.591 35.4823 211.609 35.1098 211.386 34.9197C210.951 34.5522 210.45 34.2861 209.901 34.1366C209.225 33.9491 208.953 34.9932 209.626 35.1782Z" fill="#FFC871"/>
<path d="M210.852 37.5579C211.378 37.6998 211.863 37.905 212.415 37.9456C212.71 37.9684 212.954 37.682 212.954 37.4058C212.954 37.0966 212.705 36.8888 212.413 36.8685C211.968 36.8356 211.551 36.6303 211.124 36.5137C210.453 36.3313 210.178 37.3754 210.852 37.5579Z" fill="#FFC871"/>
<path d="M213.966 36.1817C214.299 36.1589 214.629 36.1387 214.962 36.1159C215.257 36.0956 215.501 35.8827 215.501 35.5761C215.501 35.2973 215.255 35.0185 214.96 35.0388C214.627 35.0616 214.296 35.0819 213.963 35.1047C213.668 35.125 213.424 35.3353 213.424 35.6445C213.424 35.9207 213.671 36.1995 213.966 36.1817Z" fill="#FFC871"/>
<path d="M217.308 35.3328C217.659 35.424 217.985 35.495 218.274 35.6749C218.524 35.8295 218.872 35.7154 219.009 35.4696C219.159 35.2061 219.052 34.8918 218.803 34.7347C218.435 34.5066 217.997 34.3976 217.58 34.2912C217.296 34.2177 216.996 34.3925 216.922 34.6764C216.848 34.9602 217.024 35.2593 217.308 35.3328Z" fill="#FFC871"/>
<path d="M215.407 38.8529C215.738 38.9289 216.078 38.901 216.411 38.8807C216.706 38.8605 216.95 38.6476 216.95 38.3409C216.95 38.0622 216.703 37.7834 216.409 37.8037C216.256 37.8138 216.106 37.824 215.954 37.8265C215.885 37.829 215.819 37.8265 215.75 37.824C215.687 37.8189 215.689 37.8189 215.755 37.829C215.73 37.824 215.704 37.8189 215.679 37.8138C215.392 37.7479 215.094 37.9101 215.021 38.199C214.949 38.4727 215.122 38.7844 215.407 38.8529Z" fill="#FFC871"/>
<path d="M220.532 19.5063C220.872 19.4404 221.185 19.5316 221.531 19.6228C222.207 19.7977 222.479 18.7561 221.803 18.5813C221.284 18.4469 220.783 18.3658 220.252 18.4672C219.962 18.523 219.797 18.86 219.868 19.1261C219.952 19.4252 220.245 19.562 220.532 19.5063Z" fill="#FFC871"/>
<path d="M225.547 19.7825C226.145 19.7394 226.737 19.6406 227.337 19.5975C228.028 19.5468 228.031 18.4698 227.337 18.5204C226.739 18.5635 226.147 18.6624 225.547 18.7054C224.853 18.7561 224.853 19.8332 225.547 19.7825Z" fill="#FFC871"/>
<path d="M228.214 17.1773C227.889 16.8478 227.55 16.5437 227.403 16.0901C227.189 15.4312 226.145 15.7074 226.358 16.3688C226.569 17.0201 226.989 17.4712 227.459 17.9502C227.95 18.4444 228.705 17.6715 228.214 17.1773Z" fill="#FFC871"/>
<path d="M96.7114 29.0731L165.484 2.17438L200.033 84.8093L165.863 91.8444L116.694 83.6232L96.7114 29.0731Z" fill="#4D82A3"/>
<path d="M165.484 2.17438L176.262 10.0205L202.679 72.7183L193.721 81.7859L165.484 2.17438Z" fill="#3B657A"/>
<path d="M178.095 122.509L185.48 140.789L214.754 53.2576L205.836 39.5624L178.095 122.509Z" fill="#70BBF2"/>
<path d="M251.054 63.567L214.754 53.2576L185.48 140.789L222.21 149.816L251.054 63.567Z" fill="#5D98A8"/>
<path d="M205.836 39.5624L214.754 53.2576L216.881 38.5437L205.836 39.5624Z" fill="#5D98A8"/>
<path d="M249.707 38.2421L220.049 29.0731L216.881 38.5437L246.885 48.5186L249.707 38.2421Z" fill="#5D98A8"/>
<path d="M218.722 72.6929C219.192 71.9707 219.619 71.8009 220.433 72.067L221.16 72.3027C222.042 72.589 222.314 73.3062 222.044 74.1299L220.158 79.8953C219.906 80.6632 219.324 80.8938 218.633 80.6683C217.941 80.4427 217.606 79.9156 217.858 79.1477L219.131 75.2526L219.108 75.2449L216.531 79.1984C216.208 79.6977 215.895 79.7788 215.282 79.5811C214.667 79.3809 214.466 79.13 214.5 78.5395L214.754 73.8334L214.731 73.8258L213.457 77.7209C213.206 78.4888 212.624 78.7194 211.932 78.4939C211.241 78.2683 210.905 77.7412 211.157 76.9733L213.043 71.2079C213.312 70.3842 213.956 69.9661 214.838 70.2524L215.565 70.4881C216.381 70.7517 216.625 71.1394 216.576 71.9986L216.337 76.3169L216.36 76.3246L218.722 72.6929Z" fill="white"/>
<path d="M223.707 74.6545C223.986 73.7979 224.65 73.4329 225.443 73.6914C226.236 73.9499 226.556 74.6316 226.277 75.4882L224.464 81.0307C224.185 81.8873 223.521 82.2522 222.728 81.9937C221.935 81.7352 221.615 81.0535 221.894 80.1969L223.707 74.6545Z" fill="white"/>
<path d="M231.793 82.493C232.451 82.7059 232.774 83.2304 232.561 83.8868C232.347 84.5432 231.775 84.7763 231.117 84.5635L227.322 83.3293C226.328 83.0074 226.007 82.3967 226.358 81.3297L228.077 76.0762C228.356 75.2196 229.02 74.8547 229.813 75.1132C230.606 75.3717 230.926 76.0534 230.647 76.91L229.106 81.6186L231.793 82.493Z" fill="white"/>
<path d="M240.317 79.3631C240.998 78.9804 241.313 78.8487 241.735 78.988C242.426 79.2136 242.678 79.9587 242.52 80.4376C242.401 80.8051 242.175 80.9648 241.727 81.203L240.088 82.1356L241.049 85.8103C241.117 86.0916 241.148 86.3729 241.059 86.6517C240.84 87.3182 240.037 87.6248 239.366 87.4069C238.964 87.2751 238.631 87.0445 238.491 86.4945L237.622 83.2203L236.638 83.7753L236.277 84.8777C235.998 85.7343 235.334 86.0992 234.541 85.8407C233.748 85.5822 233.428 84.9005 233.707 84.0439L235.52 78.5015C235.799 77.6449 236.463 77.28 237.256 77.5384C238.049 77.7969 238.369 78.4787 238.09 79.3352L237.574 80.9166L240.317 79.3631Z" fill="white"/>
<path d="M247.18 47.3705L216.881 38.5437L214.754 53.2576L251.054 63.567L247.18 47.3705Z" fill="#70BBF2"/>
<path d="M238.822 93.147C238.603 93.8617 237.843 94.2647 237.126 94.0442L209.667 85.6608C208.95 85.4429 208.546 84.6851 208.767 83.9704C208.986 83.2558 209.746 82.8528 210.463 83.0733L237.922 91.4567C238.639 91.6746 239.043 92.4324 238.822 93.147Z" fill="white"/>
<path d="M226.859 67.8271C225.791 69.1323 221.81 71.9529 225.835 72.9236C228.608 73.5926 227.583 69.3021 226.9 68.111L226.859 67.8271Z" fill="white"/>
<path d="M226.686 123.682L226.673 123.718C226.216 123.107 226.681 120.753 225.268 121.143C225.113 120.89 224.955 120.667 224.912 120.598C224.599 120.104 224.246 119.648 223.885 119.189C223.613 118.842 223.399 118.421 223.143 118.056C223.165 117.828 223.165 117.638 223.145 117.496C222.843 115.525 220.86 114.678 219.085 114.278C217.41 113.9 212.23 112.162 212.369 111.728C212.583 111.057 212.758 110.281 212.84 109.501C213.353 109.389 213.862 109.161 214.362 108.756C215.252 108.038 216.416 106.221 215.659 105.119C215.031 106.226 213.897 106.718 212.631 106.759C212.326 105.859 211.386 105.137 210.351 104.898C209.438 104.688 208.495 104.442 207.705 104.797C206.617 103.94 206.276 103.2 206.284 101.954C205.102 103.031 204.575 105.747 205.859 106.69C204.761 109.283 203.302 111.883 205.203 113.021C206.571 113.842 207.346 113.966 207.346 113.966C207.275 114.797 205.234 121.931 205.32 122.651C205.402 123.328 207.328 123.992 208.19 123.753C208.917 123.553 209.571 119.088 210.127 119.374C211.66 120.167 217.499 121.663 218.28 122.418C218.516 122.648 217.207 126.06 217.207 126.584C217.845 127.045 219.457 127.593 220.262 127.532C220.758 126.242 222.296 122.015 222.909 119.382C223.409 120.17 224.134 120.986 224.686 121.521C224.477 121.827 224.503 122.248 224.754 122.56C225.135 123.029 225.766 123.127 226.236 123.416C226.409 123.523 226.577 123.67 226.732 123.799C226.724 123.756 226.701 123.725 226.686 123.682Z" fill="white"/>
<path d="M111.219 37.9228C111.163 37.4793 111.15 36.9952 111.178 36.4782C111.206 35.9587 111.282 35.4392 111.402 34.9197C111.524 34.3976 111.694 33.8958 111.918 33.4067C112.139 32.9201 112.421 32.4842 112.759 32.1016C112.869 31.9748 112.998 31.8633 113.148 31.762C113.298 31.6631 113.458 31.5795 113.626 31.5161C113.802 31.4503 113.969 31.4021 114.132 31.3768C114.295 31.3514 114.445 31.354 114.582 31.3869C114.719 31.4198 114.841 31.4807 114.948 31.5744C115.057 31.6657 115.144 31.7974 115.207 31.9647C115.256 32.0914 115.286 32.2257 115.299 32.3702C115.312 32.5146 115.301 32.6515 115.266 32.7833C115.23 32.9151 115.169 33.0316 115.083 33.1381C114.996 33.2445 114.879 33.3256 114.729 33.3814C114.612 33.427 114.498 33.4447 114.384 33.4397C114.269 33.4346 114.157 33.4244 114.048 33.4042C113.987 33.3915 113.931 33.3814 113.88 33.3738C113.83 33.3662 113.771 33.3636 113.705 33.3636C113.53 33.5385 113.377 33.7412 113.25 33.9693C113.123 34.1974 113.014 34.4356 112.925 34.6865C112.836 34.9374 112.767 35.1984 112.714 35.4645C112.663 35.7332 112.622 35.9942 112.597 36.2527C112.571 36.5112 112.561 36.757 112.564 36.9952C112.566 37.2335 112.579 37.4489 112.597 37.6415C112.609 37.7809 112.63 37.938 112.663 38.1103C112.696 38.2826 112.742 38.4448 112.8 38.5969C112.841 38.7033 112.889 38.7996 112.942 38.8883C112.996 38.977 113.062 39.048 113.138 39.1037C113.214 39.1595 113.298 39.1924 113.395 39.2051C113.489 39.2178 113.596 39.2 113.713 39.157C113.898 39.086 114.074 38.9922 114.236 38.8757C114.402 38.7591 114.557 38.6298 114.701 38.4905C114.849 38.3511 114.986 38.199 115.116 38.0368C115.245 37.8746 115.37 37.715 115.489 37.5528C115.566 37.4514 115.642 37.3475 115.716 37.2411C115.789 37.1346 115.863 37.0383 115.932 36.9496C116.003 36.8635 116.069 36.7874 116.133 36.7241C116.196 36.6607 116.257 36.6176 116.316 36.5948C116.394 36.5644 116.476 36.5568 116.56 36.5695C116.644 36.5821 116.705 36.6379 116.74 36.7317C116.766 36.8001 116.781 36.8837 116.781 36.98C116.786 37.2132 116.755 37.4362 116.692 37.6491C116.628 37.862 116.542 38.0622 116.435 38.2497C116.328 38.4398 116.206 38.6172 116.067 38.7844C115.927 38.9517 115.787 39.1113 115.645 39.2634C115.383 39.5624 115.101 39.8209 114.798 40.0338C114.496 40.2492 114.231 40.4013 114.002 40.4875C113.929 40.5153 113.837 40.5407 113.733 40.5635C113.626 40.5863 113.53 40.5964 113.443 40.5914C112.945 40.5711 112.536 40.4418 112.22 40.2062C111.905 39.9705 111.666 39.6385 111.501 39.2102C111.43 39.0252 111.369 38.8275 111.321 38.6121C111.282 38.3941 111.244 38.1661 111.219 37.9228Z" fill="#70BBF2"/>
<path d="M118.202 35.3302C118.159 34.978 118.148 34.5902 118.176 34.1644C118.204 33.7412 118.283 33.2901 118.41 32.8188C118.54 32.3474 118.723 31.8608 118.967 31.3641C119.208 30.8674 119.521 30.3707 119.9 29.8739C119.961 29.7954 120.063 29.6991 120.205 29.58C120.347 29.4634 120.505 29.3645 120.675 29.2885C120.797 28.9895 121.031 28.7715 121.382 28.6372C121.794 28.4801 122.183 28.4522 122.546 28.551C122.91 28.6524 123.253 28.845 123.576 29.1339C123.677 29.2277 123.777 29.3215 123.868 29.4127C123.96 29.5039 124.049 29.6053 124.13 29.7168C124.211 29.8283 124.29 29.95 124.366 30.0843C124.443 30.2186 124.514 30.3757 124.582 30.5557C124.742 30.9713 124.839 31.4224 124.872 31.9064C124.905 32.3905 124.88 32.8821 124.796 33.3864C124.709 33.8907 124.567 34.3976 124.364 34.907C124.163 35.4164 123.906 35.903 123.599 36.3642C123.393 36.6784 123.136 36.9597 122.833 37.2056C122.531 37.4514 122.165 37.6567 121.735 37.8189C121.329 37.9735 120.955 38.0545 120.614 38.0596C120.274 38.0647 119.966 38.0064 119.691 37.8822C119.417 37.758 119.175 37.573 118.97 37.3323C118.764 37.089 118.596 36.7976 118.464 36.4554C118.342 36.1209 118.253 35.7458 118.202 35.3302ZM119.559 34.9298C119.575 35.0641 119.595 35.1858 119.623 35.2998C119.651 35.4138 119.684 35.5203 119.725 35.6191C119.791 35.794 119.874 35.946 119.979 36.0804C120.08 36.2147 120.205 36.316 120.347 36.3845C120.49 36.4554 120.647 36.4909 120.82 36.4934C120.993 36.496 121.189 36.458 121.407 36.3743C121.809 36.2223 122.145 35.9764 122.414 35.6419C122.683 35.3074 122.892 34.9349 123.044 34.5243C123.197 34.1163 123.296 33.7007 123.344 33.28C123.393 32.8593 123.395 32.4868 123.357 32.1649C123.334 31.9622 123.309 31.7721 123.281 31.5947C123.253 31.4173 123.212 31.2602 123.159 31.1233C123.105 30.9865 123.032 30.8674 122.935 30.7685C122.839 30.6697 122.724 30.5607 122.587 30.4441C122.506 30.3732 122.422 30.2972 122.335 30.2186C122.251 30.14 122.17 30.0589 122.096 29.9778C122.081 30.0691 122.063 30.1502 122.035 30.2237C122.01 30.2972 121.956 30.3757 121.88 30.4568C121.801 30.5379 121.687 30.6291 121.537 30.728C121.387 30.8268 121.186 30.9409 120.932 31.0676C120.779 31.1918 120.637 31.3489 120.502 31.5389C120.37 31.729 120.248 31.9394 120.139 32.1674C120.03 32.3981 119.933 32.6363 119.849 32.8846C119.765 33.1355 119.699 33.3814 119.651 33.6272C119.602 33.873 119.569 34.1087 119.549 34.3317C119.534 34.5598 119.536 34.7575 119.559 34.9298Z" fill="#70BBF2"/>
<path d="M126.799 32.0509C126.756 31.6986 126.746 31.3109 126.776 30.8851C126.804 30.4594 126.883 30.0108 127.01 29.5394C127.14 29.0681 127.323 28.5815 127.567 28.0848C127.808 27.588 128.121 27.0913 128.5 26.5946C128.561 26.516 128.662 26.4197 128.807 26.3006C128.95 26.1841 129.107 26.0852 129.278 26.0092C129.4 25.7101 129.633 25.4922 129.984 25.3604C130.396 25.2033 130.785 25.1754 131.148 25.2743C131.512 25.3756 131.855 25.5682 132.178 25.8571C132.28 25.9509 132.379 26.0447 132.47 26.1359C132.562 26.2271 132.651 26.3285 132.732 26.44C132.814 26.5515 132.892 26.6732 132.969 26.8075C133.045 26.9418 133.116 27.0989 133.185 27.2789C133.345 27.697 133.441 28.1456 133.474 28.6296C133.508 29.1137 133.482 29.6053 133.398 30.1096C133.312 30.614 133.169 31.1208 132.966 31.6302C132.765 32.1396 132.508 32.6262 132.201 33.0874C131.995 33.4017 131.738 33.683 131.436 33.9288C131.133 34.1746 130.767 34.3799 130.338 34.5421C129.931 34.6967 129.557 34.7778 129.217 34.7828C128.876 34.7879 128.568 34.7296 128.294 34.6054C128.019 34.4813 127.778 34.2963 127.572 34.0555C127.366 33.8122 127.198 33.5208 127.066 33.1786C126.936 32.8416 126.847 32.4665 126.799 32.0509ZM128.154 31.6505C128.169 31.7848 128.19 31.9064 128.218 32.0205C128.245 32.1345 128.279 32.241 128.319 32.3398C128.385 32.5147 128.472 32.6667 128.573 32.801C128.675 32.9328 128.8 33.0367 128.939 33.1051C129.082 33.1761 129.239 33.2116 129.412 33.2141C129.585 33.2167 129.781 33.1786 129.999 33.095C130.401 32.9404 130.737 32.6971 131.006 32.3626C131.276 32.0281 131.487 31.6555 131.637 31.2475C131.789 30.8395 131.888 30.4239 131.937 30.0032C131.985 29.5825 131.99 29.2125 131.949 28.8881C131.926 28.6854 131.901 28.4953 131.87 28.3179C131.842 28.1405 131.802 27.9834 131.748 27.8465C131.695 27.7097 131.621 27.5906 131.525 27.4917C131.428 27.3929 131.314 27.2839 131.176 27.1674C131.095 27.0964 131.011 27.0204 130.925 26.9418C130.841 26.8632 130.76 26.7821 130.686 26.701C130.671 26.7923 130.653 26.8734 130.625 26.9469C130.599 27.0204 130.546 27.0989 130.47 27.18C130.391 27.2611 130.277 27.3524 130.127 27.4512C129.977 27.55 129.776 27.6641 129.522 27.7908C129.369 27.915 129.227 28.0721 129.092 28.2622C128.96 28.4522 128.838 28.6626 128.728 28.8907C128.619 29.1213 128.523 29.3595 128.439 29.6079C128.355 29.8562 128.289 30.1046 128.24 30.3504C128.192 30.5962 128.159 30.8294 128.139 31.0549C128.129 31.2805 128.131 31.4781 128.154 31.6505Z" fill="#70BBF2"/>
<path d="M138.34 26.7315C138.233 26.772 138.124 26.843 138.012 26.9418C137.9 27.0432 137.788 27.1522 137.684 27.2713C137.577 27.3904 137.478 27.5095 137.384 27.6311C137.29 27.7528 137.206 27.8491 137.132 27.9276L137.504 31.0524C137.519 31.174 137.486 31.283 137.402 31.3818C137.318 31.4807 137.232 31.5466 137.14 31.5821C136.855 31.691 136.639 31.7088 136.492 31.6353C136.344 31.5618 136.235 31.4325 136.164 31.2475C136.133 31.169 136.111 31.0853 136.09 30.9992C136.072 30.913 136.057 30.8192 136.044 30.7229L136.024 30.5759C136.001 30.4214 135.976 30.2262 135.948 29.988C135.92 29.7498 135.892 29.4989 135.864 29.2353C135.836 28.9718 135.808 28.7031 135.78 28.432C135.752 28.1608 135.727 27.9124 135.706 27.6843C135.689 27.4613 135.658 27.1319 135.622 26.6909C135.584 26.2525 135.541 25.7608 135.493 25.216C135.445 24.6711 135.394 24.1034 135.338 23.5104C135.282 22.9174 135.231 22.3522 135.178 21.815C135.127 21.2777 135.081 20.8013 135.043 20.3831C135.005 19.965 134.972 19.6583 134.944 19.4632C134.964 19.372 135.015 19.2833 135.096 19.1971C135.178 19.1109 135.289 19.0425 135.427 18.9893C135.523 18.9538 135.625 18.9285 135.734 18.9132C135.844 18.898 135.95 18.9006 136.05 18.9209C136.151 18.9411 136.243 18.9766 136.324 19.0324C136.405 19.0881 136.466 19.1667 136.505 19.268C136.53 19.3365 136.545 19.4252 136.55 19.5316C136.586 20.5707 136.634 21.6401 136.7 22.7425C136.766 23.8449 136.866 24.9499 136.998 26.0523C137.051 25.9839 137.143 25.8495 137.277 25.6468C137.412 25.4441 137.557 25.2134 137.717 24.9524C137.875 24.6914 138.032 24.4253 138.187 24.1465C138.342 23.8703 138.467 23.627 138.561 23.4141C138.627 23.2697 138.691 23.1176 138.757 22.963C138.82 22.8084 138.884 22.6614 138.942 22.5195C139.001 22.3801 139.052 22.2534 139.095 22.1444C139.138 22.0355 139.171 21.9468 139.194 21.8834C139.25 21.7288 139.324 21.592 139.413 21.4678C139.502 21.3461 139.608 21.2625 139.73 21.2144C139.847 21.1713 139.959 21.1485 140.069 21.1485C140.178 21.1485 140.277 21.1637 140.368 21.1941C140.457 21.2245 140.536 21.2676 140.6 21.3233C140.663 21.3816 140.709 21.4399 140.732 21.5033C140.762 21.5818 140.775 21.6731 140.773 21.777C140.77 21.8809 140.76 21.9848 140.742 22.0887C140.724 22.1926 140.699 22.2914 140.668 22.3852C140.638 22.479 140.607 22.5525 140.579 22.6057C140.485 22.7881 140.376 22.9858 140.254 23.2063C140.132 23.4242 140.002 23.6498 139.868 23.8804C139.73 24.111 139.591 24.3417 139.448 24.5748C139.303 24.808 139.164 25.0335 139.029 25.2464C139.433 25.3047 139.802 25.4466 140.135 25.6721C140.468 25.9002 140.77 26.1765 141.042 26.5059C141.314 26.8354 141.553 27.1978 141.762 27.5956C141.97 27.9935 142.148 28.3914 142.3 28.7868C142.313 28.8172 142.328 28.8679 142.349 28.9363C142.369 29.0047 142.382 29.0706 142.389 29.134C142.4 29.2379 142.4 29.3392 142.394 29.4305C142.387 29.5242 142.364 29.6104 142.326 29.689C142.285 29.7675 142.229 29.8385 142.153 29.9044C142.079 29.9703 141.978 30.026 141.85 30.0742C141.728 30.1198 141.617 30.1401 141.517 30.1299C141.416 30.1198 141.327 30.0919 141.243 30.0438C141.162 29.9956 141.09 29.9348 141.032 29.8613C140.973 29.7878 140.928 29.7067 140.895 29.6231C140.793 29.3595 140.681 29.0883 140.557 28.8121C140.432 28.5359 140.295 28.2748 140.147 28.029C140 27.7832 139.837 27.5602 139.667 27.3549C139.494 27.1522 139.311 26.99 139.113 26.8734C138.97 26.7872 138.846 26.7264 138.736 26.6909C138.627 26.6529 138.515 26.658 138.398 26.7011L138.34 26.7315Z" fill="#70BBF2"/>
<path d="M143.737 27.403C143.699 27.066 143.658 26.6757 143.612 26.2271C143.566 25.7786 143.521 25.3047 143.47 24.8029C143.419 24.3011 143.368 23.7892 143.312 23.2671C143.256 22.7451 143.2 22.2382 143.137 21.7466C143.134 21.7237 143.139 21.6807 143.152 21.6198C143.165 21.5565 143.19 21.4906 143.228 21.4171C143.266 21.3436 143.325 21.2726 143.401 21.2017C143.477 21.1307 143.577 21.0724 143.699 21.0243C143.788 20.9888 143.879 20.966 143.971 20.9508C144.062 20.9381 144.148 20.9356 144.23 20.9483C144.309 20.9609 144.382 20.9888 144.446 21.0344C144.509 21.08 144.555 21.1409 144.586 21.222C144.591 21.2372 144.598 21.2549 144.606 21.2726C144.614 21.2904 144.616 21.3107 144.619 21.3284L144.718 22.2509C144.83 23.2849 144.939 24.3214 145.043 25.3655C145.15 26.4071 145.262 27.4487 145.384 28.4928C145.384 28.5283 145.384 28.5739 145.381 28.6296C145.379 28.6854 145.369 28.7437 145.348 28.8045C145.328 28.8653 145.3 28.9236 145.259 28.9743C145.219 29.0275 145.163 29.0655 145.086 29.0934C144.949 29.1466 144.817 29.1644 144.69 29.1492C144.563 29.1339 144.446 29.0985 144.339 29.0427C144.232 28.987 144.141 28.916 144.067 28.8298C143.991 28.7437 143.937 28.655 143.902 28.5663C143.892 28.5409 143.882 28.5156 143.874 28.4953C143.866 28.475 143.861 28.4472 143.864 28.4167L143.737 27.403ZM142.666 18.4241C142.651 18.3025 142.646 18.1504 142.654 17.9654C142.661 17.7804 142.727 17.5929 142.855 17.3977C142.921 17.3192 143.007 17.2356 143.114 17.1494C143.221 17.0632 143.299 17.01 143.353 16.9897C143.406 16.9695 143.467 16.9669 143.536 16.9821C143.607 16.9973 143.671 17.0201 143.729 17.0455C143.803 17.0784 143.874 17.1164 143.948 17.1621C144.085 17.1215 144.189 17.1367 144.26 17.2051C144.334 17.2736 144.39 17.3673 144.436 17.4839C144.469 17.5675 144.489 17.6486 144.499 17.7221C144.509 17.7982 144.517 17.8564 144.525 17.9021C144.535 18.0237 144.515 18.1504 144.459 18.2771C144.403 18.4039 144.332 18.523 144.24 18.6319C144.148 18.7434 144.047 18.8397 143.935 18.9259C143.823 19.0121 143.719 19.0729 143.622 19.1084C143.5 19.154 143.399 19.1692 143.317 19.1515C143.236 19.1337 143.116 19.078 142.964 18.9766C142.875 18.9208 142.819 18.8702 142.794 18.8296C142.768 18.7865 142.75 18.751 142.738 18.7206C142.715 18.6623 142.7 18.6091 142.689 18.561C142.679 18.5179 142.672 18.4697 142.666 18.4241Z" fill="#70BBF2"/>
<path d="M147.135 24.2656C147.049 24.0375 147.036 23.8221 147.097 23.6194C147.158 23.4141 147.278 23.2494 147.461 23.1176C147.473 22.9807 147.504 22.7881 147.55 22.5448C147.595 22.3016 147.664 22.0279 147.756 21.7263C147.847 21.4247 147.962 21.113 148.101 20.7911C148.241 20.4693 148.414 20.1576 148.617 19.8611C148.821 19.562 149.06 19.2908 149.334 19.0476C149.609 18.8043 149.924 18.6142 150.285 18.4773C150.593 18.3608 150.875 18.2949 151.129 18.2822C151.383 18.2695 151.612 18.2999 151.81 18.376C152.009 18.452 152.179 18.566 152.324 18.7206C152.469 18.8752 152.58 19.0577 152.662 19.268C152.73 19.448 152.774 19.6279 152.786 19.8104C152.827 20.1348 152.789 20.4439 152.672 20.743C152.555 21.042 152.395 21.3259 152.184 21.5945C151.975 21.8657 151.731 22.1166 151.454 22.3497C151.177 22.5829 150.893 22.7983 150.6 22.9934C150.308 23.1886 150.021 23.3634 149.741 23.5155C149.459 23.6675 149.215 23.7968 149.006 23.9007C148.996 24.0147 149.001 24.149 149.022 24.3087C149.042 24.4658 149.08 24.6153 149.133 24.7522C149.25 25.0588 149.464 25.2489 149.771 25.3249C150.079 25.401 150.448 25.3579 150.877 25.1932C151.126 25.0994 151.353 24.9803 151.559 24.8384C151.764 24.6964 151.953 24.5419 152.123 24.3771C152.293 24.2124 152.448 24.0451 152.588 23.8728C152.728 23.7005 152.852 23.5383 152.964 23.3812C153.107 23.1809 153.246 23.0061 153.386 22.854C153.524 22.702 153.661 22.6006 153.793 22.5499C153.925 22.4992 154.022 22.4992 154.085 22.5524C154.146 22.6057 154.192 22.6665 154.223 22.74C154.238 22.7831 154.253 22.8236 154.266 22.8642C154.279 22.9047 154.286 22.9402 154.291 22.9681C154.317 23.1151 154.317 23.2722 154.291 23.4394C154.266 23.6067 154.21 23.7638 154.126 23.9108C153.742 24.5545 153.295 25.0766 152.786 25.4821C152.278 25.8875 151.696 26.2145 151.04 26.4654C150.913 26.5135 150.76 26.5617 150.582 26.6123C150.404 26.663 150.214 26.6985 150.01 26.7213C149.807 26.7441 149.599 26.7467 149.385 26.7239C149.172 26.7036 148.966 26.6453 148.767 26.5515C148.569 26.4578 148.386 26.3184 148.216 26.1359C148.045 25.9534 147.903 25.7076 147.784 25.4035C147.69 25.1551 147.616 24.8662 147.568 24.5342C147.494 24.5495 147.415 24.5393 147.331 24.5013C147.245 24.4582 147.181 24.3822 147.135 24.2656ZM151.264 20.1778C151.264 20.1474 151.261 20.1221 151.254 20.1018C151.246 20.0815 151.236 20.0562 151.226 20.0309C151.17 19.8889 151.076 19.8028 150.943 19.7724C150.809 19.7419 150.669 19.7546 150.521 19.8104C150.288 19.8991 150.084 20.0461 149.904 20.2539C149.726 20.4617 149.573 20.6923 149.444 20.9508C149.316 21.2093 149.215 21.4703 149.141 21.7364C149.067 22.0025 149.022 22.2382 149.001 22.4384C149.37 22.261 149.7 22.076 149.99 21.8834C150.28 21.6908 150.521 21.4957 150.717 21.298C150.91 21.1003 151.055 20.9052 151.149 20.7151C151.241 20.5276 151.279 20.3476 151.264 20.1778Z" fill="#70BBF2"/>
<path d="M156.104 22.74C156.147 22.7248 156.188 22.7146 156.226 22.7121C156.264 22.7096 156.307 22.707 156.355 22.7045C156.404 22.702 156.455 22.6944 156.51 22.6868C156.566 22.6766 156.638 22.6563 156.724 22.6234C156.973 22.5296 157.237 22.3979 157.522 22.2281C157.807 22.0583 158.066 21.8809 158.305 21.6933C158.542 21.5058 158.737 21.3208 158.887 21.1409C159.04 20.9584 159.106 20.8063 159.088 20.6796C159.08 20.6112 159.068 20.5529 159.047 20.5048C159.014 20.4161 158.936 20.3451 158.819 20.2969C158.699 20.2488 158.559 20.2133 158.399 20.1905C158.239 20.1677 158.069 20.1525 157.891 20.1474C157.713 20.1424 157.548 20.1398 157.395 20.1373L157.082 20.1297C156.925 20.1297 156.765 20.117 156.602 20.0891C156.442 20.0638 156.284 20.0207 156.132 19.965C155.979 19.9092 155.834 19.8281 155.694 19.7267C155.555 19.6254 155.43 19.4961 155.323 19.339C155.272 19.2731 155.227 19.2072 155.186 19.1362C155.145 19.0678 155.107 18.9918 155.077 18.9056C155.023 18.7688 155.011 18.5939 155.034 18.381C155.059 18.1682 155.115 17.9451 155.204 17.712C155.293 17.4788 155.407 17.2457 155.544 17.01C155.682 16.7768 155.839 16.5665 156.015 16.3764C156.132 16.2041 156.246 16.047 156.361 15.9C156.475 15.753 156.594 15.6212 156.721 15.4996C156.849 15.3779 156.983 15.269 157.123 15.1727C157.265 15.0764 157.423 14.9953 157.598 14.9268C157.756 14.866 157.931 14.8077 158.122 14.7545C158.313 14.6987 158.498 14.6709 158.674 14.6709C158.849 14.6709 159.012 14.7063 159.157 14.7824C159.304 14.8559 159.414 14.9877 159.487 15.1777C159.51 15.236 159.53 15.3146 159.551 15.4159C159.571 15.5173 159.581 15.6212 159.581 15.7302C159.581 15.8392 159.566 15.938 159.541 16.0267C159.515 16.1154 159.464 16.1737 159.391 16.2016C159.269 16.2472 159.159 16.2624 159.06 16.2446C158.964 16.2269 158.872 16.2041 158.788 16.1712C158.704 16.1407 158.618 16.1129 158.531 16.0926C158.445 16.0723 158.351 16.0799 158.249 16.1179C158.127 16.1636 157.995 16.2396 157.85 16.346C157.705 16.4525 157.565 16.5766 157.423 16.716C157.283 16.8579 157.151 17.01 157.029 17.1697C156.907 17.3318 156.8 17.489 156.711 17.6461C156.622 17.8007 156.559 17.9451 156.518 18.0769C156.477 18.2112 156.475 18.3202 156.508 18.4038C156.541 18.4925 156.599 18.5559 156.681 18.5914C156.762 18.6269 156.854 18.6497 156.96 18.6573C157.1 18.6775 157.258 18.6877 157.433 18.6953C157.609 18.7004 157.784 18.7054 157.962 18.7105C158.14 18.7156 158.313 18.7206 158.483 18.7282C158.653 18.7358 158.801 18.746 158.928 18.7586C159.098 18.7789 159.256 18.8017 159.396 18.8296C159.536 18.8575 159.663 18.898 159.774 18.9538C159.886 19.007 159.983 19.0805 160.067 19.1692C160.151 19.2579 160.219 19.3745 160.273 19.5164C160.298 19.5848 160.321 19.6558 160.336 19.7267C160.352 19.8002 160.367 19.8839 160.379 19.9827C160.395 20.0689 160.402 20.1702 160.402 20.2919C160.402 20.4135 160.4 20.5326 160.395 20.6517C160.39 20.7709 160.379 20.8824 160.362 20.9812C160.346 21.0826 160.326 21.151 160.306 21.189C160.174 21.4576 159.998 21.7288 159.78 22.0025C159.563 22.2762 159.327 22.5322 159.07 22.7729C158.814 23.0137 158.547 23.2291 158.272 23.4166C157.995 23.6067 157.731 23.7512 157.476 23.8475C157.349 23.8956 157.199 23.9235 157.027 23.9336C156.854 23.9412 156.688 23.9311 156.526 23.8981C156.366 23.8652 156.221 23.8145 156.094 23.741C155.966 23.6701 155.883 23.5814 155.842 23.4749C155.822 23.4217 155.814 23.3583 155.822 23.2798C155.829 23.2012 155.844 23.1252 155.872 23.0517C155.898 22.9782 155.931 22.9098 155.972 22.8515C156.012 22.7983 156.055 22.7577 156.104 22.74Z" fill="#70BBF2"/>
<path d="M155.222 64.5959C158.516 67.2442 160.878 71.033 160.761 74.9966C162.896 72.4598 166.635 71.517 170.143 71.038C171.941 70.7922 173.804 70.6326 175.55 71.0786C177.754 71.6437 179.605 73.215 180.352 75.1537C181.262 77.5182 180.52 80.2248 178.891 82.2572C177.261 84.2897 174.841 85.7165 172.294 86.748C166.717 89.0085 160.278 89.5205 154.342 88.1773C152.369 87.7313 150.404 87.0597 148.894 85.8382C146.645 84.0186 145.725 81.2664 144.764 78.6915C143.663 75.7467 142.384 72.8551 140.892 70.0522C139.425 67.3 135.813 60.6298 141.083 59.0586C143.289 58.3997 146.03 59.7783 147.992 60.5589C150.598 61.5928 153.094 62.8853 155.222 64.5959Z" fill="#3B657A"/>
<path d="M148.475 61.8691C153.478 65.5387 160.064 77.1457 152.316 86.6948C144.512 96.3149 133.248 96.8141 124.707 91.2007C115.823 85.3618 111.562 71.0964 122.32 60.8883C130.943 52.7026 140.923 56.3292 148.475 61.8691Z" fill="#F49A0B"/>
<path d="M127.534 60.5058C127.541 60.5032 127.549 60.5032 127.557 60.5006C127.559 60.4981 127.559 60.4981 127.562 60.4955L127.534 60.5058Z" fill="#FCBC08"/>
<path d="M128.698 61.7095C129.283 61.4256 129.941 60.825 129.389 60.2953C128.843 59.7707 128.085 60.3688 127.557 60.4981C126.83 61.1646 127.132 62.4697 128.698 61.7095Z" fill="#FCBC08"/>
<path d="M127.562 60.4955L128.456 60.1483C128.075 60.1635 127.775 60.3004 127.562 60.4955Z" fill="#FCBC08"/>
<path d="M125.96 63.0526C126.181 62.8929 126.481 62.5559 126.189 62.3202C125.981 62.1529 125.762 62.2619 125.627 62.4393C125.444 62.5534 125.281 62.7384 125.264 62.9208C125.215 63.4099 125.729 63.2199 125.96 63.0526Z" fill="#FCBC08"/>
<path d="M129.791 62.751C129.603 62.6471 129.417 62.6801 129.239 62.7713C128.978 62.7992 128.652 62.9107 128.594 63.1236C128.578 63.1793 128.576 63.2224 128.586 63.2604C128.561 63.2781 128.535 63.2959 128.51 63.3111L128.589 63.2655C128.66 63.5062 129.232 63.3314 129.44 63.2756C129.666 63.2148 130.241 62.9968 129.791 62.751Z" fill="#FCBC08"/>
<path d="M128.51 63.3086L128.474 63.3288C128.487 63.3238 128.5 63.3162 128.51 63.3086Z" fill="#FCBC08"/>
<path d="M131.021 61.4408C130.77 61.5143 130.485 61.7956 130.63 62.0414C130.788 62.3075 131.367 62.1935 131.576 62.0769C132.42 61.6081 131.334 61.2558 131.021 61.4408Z" fill="#FCBC08"/>
<path d="M132.071 59.8975C131.898 59.8746 131.583 59.791 131.448 59.9456C131.365 60.0419 131.372 60.1509 131.426 60.2421C131.438 60.417 131.728 60.5741 131.845 60.6349C132.097 60.7616 133.38 61.1747 133.472 60.7414C133.579 60.2218 132.386 59.9405 132.071 59.8975Z" fill="#FCBC08"/>
<path d="M130.681 59.0307C130.943 59.1701 131.881 59.1346 131.975 58.7596C132.074 58.3718 131.464 58.2958 131.22 58.3287C131.126 58.3414 130.927 58.4478 130.813 58.5593C130.564 58.6785 130.376 58.8685 130.681 59.0307Z" fill="#FCBC08"/>
<path d="M126.125 61.2432C126.613 60.8833 126.136 60.6805 125.754 60.754L125.764 60.7464C125.543 60.7186 124.989 60.9897 125.139 61.2913C125.287 61.5827 125.94 61.3825 126.125 61.2432Z" fill="#FCBC08"/>
<path d="M124.082 63.5518C124.265 63.344 124.819 62.4342 124.181 62.3988C124.066 62.3911 123.949 62.4621 123.85 62.5685C123.545 62.7561 123.281 63.2021 123.207 63.4606C122.958 64.2969 123.764 63.9168 124.082 63.5518Z" fill="#FCBC08"/>
<path d="M127.518 63.8103C127.31 63.7318 126.946 63.7571 126.674 63.8787C126.199 64.008 125.642 64.3881 125.559 64.7404C125.348 65.6071 126.873 64.9862 127.201 64.8722C127.681 64.7049 128.228 64.0739 127.518 63.8103Z" fill="#FCBC08"/>
<path d="M130.073 64.4921C129.832 64.5757 129.567 64.7759 129.572 64.9761C129.583 65.4044 130.449 65.2726 130.693 65.1611C131.634 64.7227 130.406 64.302 130.073 64.4921Z" fill="#FCBC08"/>
<path d="M136.088 59.6744C135.925 59.6516 135.79 59.6947 135.668 59.8442C135.938 60.3688 137.143 60.417 137.42 59.8721C137.079 59.4438 136.525 59.3931 136.088 59.6744Z" fill="#FCBC08"/>
<path d="M133.609 61.9173C134.135 62.0997 135.561 62.1935 135.673 61.456C135.373 61.2659 134.85 61.1342 134.532 61.3217C134.087 61.3014 133.617 61.451 133.609 61.9173Z" fill="#FCBC08"/>
<path d="M134.639 58.0728C134.372 57.7205 133.907 57.7484 133.594 57.9663C133.477 58.0246 133.391 58.126 133.345 58.2704C133.711 58.5517 134.387 58.4352 134.639 58.0728Z" fill="#FCBC08"/>
<path d="M138.515 61.1316C137.463 61.1468 138.818 62.4824 139.402 62.0541C139.921 61.674 138.932 60.8579 138.515 61.1316Z" fill="#FCBC08"/>
<path d="M123.54 65.4627C123.215 65.2042 122.94 65.4551 122.755 65.7643C122.051 66.2128 121.204 67.2772 121.875 67.5382C122.709 67.8576 123.52 66.043 123.54 65.4627Z" fill="#FCBC08"/>
<path d="M121.606 64.0841C120.698 64.2589 121.13 65.7592 121.99 64.7328C122.526 64.0942 121.977 63.8914 121.606 64.0841Z" fill="#FCBC08"/>
<path d="M126.756 66.8439C126.58 66.8971 126.456 67.039 126.425 67.2595C126.763 67.5028 127.663 67.5205 127.89 67.077C128.225 66.4105 127.058 66.3243 126.756 66.8439Z" fill="#FCBC08"/>
<path d="M134.794 64.3729L134.745 64.2995C134.72 64.3653 134.707 64.4262 134.702 64.4845C134.649 64.5706 134.649 64.6492 134.73 64.6771C134.918 65.1687 135.958 65.1864 135.757 64.5681C135.561 63.9472 135.038 64.1347 134.794 64.3729Z" fill="#FCBC08"/>
<path d="M144.113 63.0627C143.5 62.2239 142.237 63.0551 143.03 63.3263C143.498 63.6634 144.713 63.8864 144.113 63.0627Z" fill="#FCBC08"/>
<path d="M122.401 71.066L122.526 70.8429C122.147 71.0254 121.936 71.5145 121.855 71.9023C122.216 71.9986 123.281 71.289 123.253 70.8201C123.21 70.1105 122.714 70.6149 122.401 71.066Z" fill="#FCBC08"/>
<path d="M131.916 68.6964C132.051 68.8485 132.15 68.8333 132.272 68.7775C132.712 68.8307 133.518 68.7192 133.175 68.2504C132.826 67.7714 132.038 68.329 131.916 68.6964Z" fill="#FCBC08"/>
<path d="M118.779 68.2301C118.733 68.3365 118.713 68.4607 118.726 68.5976C119.262 68.78 120.627 68.628 120.177 67.7461C119.775 66.9604 118.934 67.6016 118.779 68.2301Z" fill="#FCBC08"/>
<path d="M120.647 65.9543L120.66 65.9417C120.342 65.9112 120.134 66.0582 120.108 66.3826C120.49 66.5448 120.886 66.413 121.039 66.0253C120.894 65.9543 120.759 65.929 120.647 65.9543Z" fill="#FCBC08"/>
<path d="M123.599 65.0521C120.879 53.9267 109.127 46.813 107.884 42.5098C106.641 38.2066 106.125 4.98996 106.125 4.98996L86.1391 8.54554L66.0594 11.5182C66.0594 11.5182 76.1793 43.1687 76.3751 47.6442C76.5708 52.1198 67.7016 62.5914 68.6752 74.0032C69.6488 85.415 78.8154 153.366 82.2472 156.793C85.4603 159.998 102.334 159.152 110.606 157.786C119.15 156.374 135.15 151.904 137.173 147.844C139.329 143.503 126.319 76.1776 123.599 65.0521Z" fill="#D8E1EA"/>
<path d="M105.606 42.9279C104.988 40.6674 104.391 30.3098 103.969 21.1941L73.2788 26.1942C75.7904 34.9678 78.5281 44.9782 78.6654 47.3173C78.9196 51.6762 71.5121 61.6967 72.5696 72.8222C73.6271 83.9476 82.8089 150.262 85.8213 153.66C88.6404 156.843 103.107 156.344 110.177 155.173C117.482 153.964 131.126 149.922 132.783 146.009C134.552 141.83 122.081 76.0534 119.531 65.1712C116.979 54.2891 106.758 47.1399 105.606 42.9279Z" fill="#C65885"/>
<path d="M103.969 21.1941C104.063 21.7693 97.2809 23.3558 88.8209 24.7319C80.361 26.1105 73.4263 26.7618 73.3323 26.184C73.2382 25.6087 80.0204 24.0223 88.4803 22.6462C96.9377 21.2701 103.872 20.6188 103.969 21.1941Z" fill="#F46EAB"/>
<path d="M89.5403 148.351C86.3145 147.677 83.6708 144.752 83.4242 141.475C83.1776 138.199 85.4095 134.871 88.5693 133.934C86.9881 132.545 86.3958 130.233 86.8127 128.173C87.2296 126.113 88.5489 124.308 90.2013 123.003C92.8424 120.918 96.7546 120.081 99.6119 121.86C101.305 119.285 104.411 117.702 107.495 117.841C110.578 117.98 113.53 119.838 114.981 122.555C115.904 121.343 117.48 120.763 119.005 120.697C122.818 120.53 126.504 123.571 127.053 127.337C127.602 131.103 124.936 135.064 121.235 135.986C122.284 139.347 120.868 143.32 117.925 145.267C114.981 147.213 110.759 146.97 108.062 144.697C107.754 144.438 107.431 144.142 107.03 144.111C106.697 144.086 106.381 144.256 106.081 144.4C104.686 145.077 103.097 145.338 101.554 145.188C99.8814 145.023 99.045 144.377 97.6011 145.381C94.9625 147.216 93.1043 149.096 89.5403 148.351Z" fill="#8C4B68"/>
<path d="M91.0605 149.953C88.5591 148.594 87.0034 145.677 87.2728 142.849C87.4025 141.486 88.0075 140.072 89.2048 139.4C90.125 138.883 91.2537 138.878 92.2222 138.455C94.0728 137.646 95.0159 135.487 96.8207 134.582C98.6002 133.69 100.868 134.278 102.355 135.604C103.839 136.929 104.653 138.853 105.131 140.781C105.319 141.536 105.461 142.317 105.39 143.092C104.876 148.615 95.5268 152.375 91.0605 149.953Z" fill="#AF4383"/>
<path d="M115.726 136.671C113.855 136.85 112.053 137.978 111.252 139.676C110.533 141.202 110.667 143.052 111.427 144.557C112.19 146.063 113.527 147.231 115.042 147.978C117.546 149.213 120.584 149.322 123.169 148.267C125.754 147.216 127.846 145.018 128.769 142.39C129.082 141.501 129.265 140.533 129.056 139.613C128.85 138.693 128.187 137.834 127.272 137.596C126.636 137.431 125.965 137.575 125.322 137.72C123.591 138.107 122.124 138.728 120.53 138.092C118.903 137.441 117.653 136.356 115.726 136.671Z" fill="#AF4383"/>
<path d="M121.273 124.554C120.103 124.962 119.15 125.837 118.41 126.827C117.803 127.646 117.805 133.764 119.478 134.995C121.151 136.227 123.36 136.6 125.414 136.28C126.944 136.042 128.487 135.381 129.392 134.126C130.399 132.73 130.447 130.842 130.048 129.167C129.75 127.92 129.128 126.622 127.951 126.11C126.85 125.631 125.681 125.56 124.633 125.051C123.474 124.488 122.63 124.08 121.273 124.554Z" fill="#AF4383"/>
<path d="M105.634 137.897C108.476 139.544 112.342 138.888 114.765 136.673C117.188 134.458 118.197 130.943 117.742 127.697C117.493 125.925 116.786 124.131 115.383 123.016C113.98 121.901 111.783 121.675 110.423 122.841C109.567 123.576 109.17 124.694 108.532 125.624C106.798 128.153 103.316 127.631 102.556 130.872C101.935 133.523 103.285 136.534 105.634 137.897Z" fill="#AF4383"/>
<path d="M90.58 78.1441C90.3436 78.1822 90.1199 78.1796 89.9089 78.1315C89.6979 78.0859 89.5073 77.9946 89.337 77.8603C89.1666 77.726 89.0243 77.5486 88.9048 77.3281C88.7879 77.1076 88.704 76.8441 88.6531 76.54C88.6023 76.2384 88.5998 75.9672 88.6379 75.7315C88.6786 75.4933 88.7574 75.2804 88.8794 75.0903C88.9963 74.9053 89.1488 74.7533 89.3319 74.6367C89.5149 74.5201 89.731 74.4416 89.975 74.401C90.097 74.3808 90.2114 74.3706 90.3207 74.3732C90.43 74.3732 90.5317 74.3808 90.6283 74.3934C90.7097 74.4036 90.7961 74.4213 90.8825 74.4441C90.9715 74.4669 91.0579 74.4948 91.1443 74.5252L91.2384 75.1056L91.2003 75.1106C91.152 75.0802 91.091 75.0397 91.0147 74.9966C90.9384 74.9535 90.8495 74.9104 90.7452 74.8724C90.6436 74.8369 90.5368 74.8116 90.4224 74.7989C90.308 74.7837 90.1809 74.7888 90.0386 74.8116C89.8835 74.8369 89.7437 74.8927 89.6166 74.9763C89.4895 75.0625 89.3827 75.174 89.2988 75.3134C89.2175 75.4528 89.1616 75.62 89.1361 75.8152C89.1107 76.0103 89.1158 76.2232 89.1539 76.4563C89.1946 76.7047 89.2582 76.9125 89.3497 77.0798C89.4386 77.2495 89.5454 77.3864 89.67 77.4928C89.7894 77.5967 89.9242 77.6677 90.0691 77.7057C90.214 77.7437 90.3639 77.7513 90.5165 77.726C90.6563 77.7032 90.7808 77.6652 90.8952 77.6119C91.0071 77.5587 91.1062 77.4979 91.1901 77.432C91.2714 77.3687 91.3401 77.3028 91.396 77.2394C91.4519 77.1761 91.4951 77.1228 91.5282 77.0798L91.5638 77.0747L91.6578 77.6474C91.5841 77.6981 91.5155 77.7463 91.4494 77.7919C91.3858 77.8375 91.3045 77.8856 91.2104 77.9338C91.1113 77.9845 91.0172 78.0276 90.9308 78.0605C90.8393 78.0935 90.7249 78.1213 90.58 78.1441Z" fill="#8C6B58"/>
<path d="M94.7744 77.394L94.2939 77.4726L94.0041 75.7062L92.3391 75.9773L92.6289 77.7437L92.1484 77.8223L91.5562 74.2135L92.0366 74.1349L92.2679 75.5516L93.933 75.2804L93.7016 73.8637L94.1821 73.7852L94.7744 77.394Z" fill="#8C6B58"/>
<path d="M95.5065 77.2749L94.9142 73.6661L97.1791 73.2961L97.2503 73.7218L95.4683 74.0133L95.631 75.0016L97.291 74.7305L97.3622 75.1562L95.7022 75.4274L95.9208 76.768L97.7028 76.4766L97.774 76.9023L95.5065 77.2749Z" fill="#8C6B58"/>
<path d="M99.6398 73.9373C99.622 73.8334 99.589 73.7421 99.5382 73.6661C99.4873 73.5901 99.4187 73.5343 99.3322 73.4938C99.256 73.4608 99.1721 73.4406 99.078 73.438C98.984 73.4355 98.8696 73.4431 98.7349 73.4659L98.257 73.5445L98.4807 74.9079L98.9026 74.8395C99.0399 74.8167 99.1619 74.7837 99.2687 74.7432C99.3755 74.7001 99.4619 74.6367 99.5254 74.548C99.5839 74.4695 99.622 74.3808 99.6398 74.2794C99.6602 74.178 99.6602 74.064 99.6398 73.9373Z" fill="#8C6B58"/>
<path d="M102.731 73.4355C102.713 73.3316 102.68 73.2403 102.629 73.1643C102.578 73.0883 102.51 73.0325 102.423 72.992C102.347 72.959 102.263 72.9388 102.169 72.9362C102.075 72.9337 101.961 72.9413 101.826 72.9641L101.348 73.0427L101.572 74.4061L101.994 74.3377C102.131 74.3149 102.253 74.2819 102.36 74.2414C102.467 74.1983 102.553 74.1349 102.617 74.0462C102.675 73.9677 102.713 73.8764 102.731 73.7776C102.751 73.6737 102.751 73.5597 102.731 73.4355Z" fill="#8C6B58"/>
<path opacity="0.25" d="M123.464 64.9837C120.744 53.8583 108.992 46.7446 107.749 42.4414C106.506 38.1382 105.99 4.92154 105.99 4.92154L95.0693 6.86279C95.1887 13.4189 95.7175 39.1114 96.8004 42.8621C98.0434 47.1653 109.795 54.279 112.515 65.4044C115.235 76.5298 128.245 143.855 126.087 148.194C124.066 152.254 108.064 156.724 99.5204 158.136C97.7181 158.432 95.509 158.706 93.1195 158.919C99.0806 159.033 106.018 158.45 110.466 157.715C119.01 156.304 135.01 151.833 137.033 147.773C139.197 143.437 126.186 76.1117 123.464 64.9837Z" fill="#47332F"/>
<path d="M64.6791 7.69402C64.6791 7.69402 63.3217 8.66971 63.8275 10.6743C65.307 16.5513 80.3661 13.168 87.2677 12.0758C105.527 9.18923 107.647 6.66764 107.988 4.46789C108.4 1.80945 105.474 1.04663 105.474 1.04663L64.6791 7.69402Z" fill="#2E2A29"/>
<path d="M86.4619 1.20883C73.3882 3.06138 64.6207 5.78318 64.4097 8.50245C64.1987 11.2293 76.098 9.85828 88.1168 7.75231C98.0511 6.01127 110.032 4.05735 106.651 1.59657C103.27 -0.864203 95.3947 -0.0583059 86.4619 1.20883Z" fill="#423D3C"/>
<path opacity="0.48" d="M66.4484 8.29971C66.6441 8.66718 67.1907 8.78883 67.6762 8.85218C72.1324 9.4376 76.7691 8.543 81.266 7.65347C82.6412 7.38231 84.019 7.10861 85.3485 6.68538C85.6205 6.59922 85.9332 6.4649 85.9789 6.23175C86.012 6.06702 85.8925 5.91496 85.7527 5.80346C85.1502 5.32701 84.1817 5.34982 83.3225 5.45373C81.7006 5.6514 80.1068 6.04421 78.485 6.26976C77.2851 6.43449 76.0497 6.50798 74.8702 6.33058C74.3745 6.25456 73.6373 6.15825 73.2636 5.86935C72.9077 5.59311 71.5808 5.40051 68.6422 6.4725C67.7906 6.78169 65.9222 7.31135 66.4484 8.29971Z" fill="white"/>
<path opacity="0.48" d="M74.8981 22.8414C77.4478 28.5815 79.2755 34.6384 80.3305 40.8271C80.4703 41.6456 80.6025 42.4819 80.9965 43.2143C81.3905 43.9442 82.1124 44.56 82.9437 44.5854C83.8995 44.6158 84.7434 43.8428 85.0612 42.9432C85.379 42.0435 85.2722 41.0501 85.0663 40.1175C84.4892 37.5072 83.1903 35.1199 82.2345 32.6211C81.3142 30.211 80.7169 27.6818 80.4576 25.1171C80.2313 22.8819 79.8831 18.9817 77.2088 18.1073C73.9194 17.0353 74.0109 20.8469 74.8981 22.8414Z" fill="white"/>
<path opacity="0.48" d="M76.5555 64.4211C76.4284 65.488 76.4132 66.6234 76.9216 67.5686C77.43 68.5139 78.6171 69.1703 79.6136 68.7623C80.3686 68.4556 80.8033 67.6472 80.9634 66.8514C81.1236 66.0557 81.0676 65.2321 81.1617 64.4236C81.4108 62.2746 82.6768 60.4017 83.752 58.5213C84.1867 57.7636 84.6011 56.8436 84.2299 56.0504C83.9401 55.4295 83.2258 55.095 82.5395 55.0595C78.4875 54.8568 76.9241 61.2938 76.5555 64.4211Z" fill="white"/>
<path opacity="0.48" d="M87.8244 147.119C88.0151 148.171 88.282 149.344 89.1844 149.922C90.3969 150.7 92.1255 149.859 92.7738 148.574C93.422 147.289 93.2822 145.763 93.0737 144.339C91.7315 135.211 88.1244 126.516 86.9576 117.364C86.6678 115.094 86.2763 108.733 82.5827 109.029C79.5831 109.27 82.3438 116.794 82.72 118.875C84.4206 128.29 86.1238 137.705 87.8244 147.119Z" fill="white"/>
<path d="M25.8443 76.1091C22.8778 76.251 19.596 76.6819 17.2115 74.918C15.605 73.732 14.7458 71.6184 15.0661 69.6518C15.3863 67.6852 16.8709 65.9518 18.7698 65.3309C20.0968 64.8975 21.7135 64.895 22.593 63.8128C22.9438 63.382 23.1167 62.8372 23.315 62.3202C24.4309 59.4184 26.8383 56.8639 29.8938 56.2506C32.9519 55.6373 36.5006 57.4468 37.2123 60.4752C37.4691 61.5624 37.3674 62.7155 37.7055 63.7799C38.4351 66.0912 40.9008 67.2797 42.8048 68.7851C47.2432 72.2925 49.0074 78.1289 50.192 83.6486C50.5987 85.5442 50.9572 87.5741 50.2352 89.3735C49.1523 92.0801 45.7587 93.3852 42.9167 92.7035C40.0747 92.0218 37.8275 89.746 36.4828 87.1585C35.1279 84.5482 35.2372 80.9191 33.473 78.6535C31.7368 76.4234 28.4677 75.9824 25.8443 76.1091Z" fill="#73BA65"/>
<path d="M83.9376 54.4158C86.2331 52.771 89.4615 52.5278 91.9806 53.8101C92.7941 54.2257 93.5847 54.7985 94.4998 54.8238C95.5268 54.8517 96.4241 54.1852 97.3952 53.8481C100.316 52.8344 103.827 55.6145 103.494 58.681C105.847 58.4985 107.8 60.8579 107.952 63.2046C108.105 65.5539 106.941 67.7815 105.609 69.7278C102.675 74.0184 98.4857 77.7792 93.3686 78.7473C91.518 79.097 89.4183 79.1553 88.1142 80.5111C87.227 81.4286 86.9093 82.7717 86.0628 83.7271C85.473 84.3911 84.6697 84.8219 83.8792 85.2274C79.85 87.2928 75.6785 89.0744 71.3977 90.5545C68.0829 91.7025 64.2419 92.6224 61.2143 90.851C58.2274 89.1023 57.1089 85.1387 57.8308 81.7605C58.5528 78.3824 60.7491 75.511 63.1361 73.0072C66.7763 69.188 71.0113 65.929 75.6328 63.377C77.2419 62.49 79.4916 61.9147 80.5364 60.3536C81.9192 58.278 81.5913 56.0935 83.9376 54.4158Z" fill="#568E4C"/>
<path d="M29.8709 74.178C27.9135 73.2505 25.5723 72.3508 24.9317 70.2879C24.1513 67.7815 26.4392 65.0572 25.6104 62.566C24.7843 60.0773 21.2407 59.089 20.8365 56.499C20.4755 54.1978 22.8549 52.3757 23.3302 50.0949C23.5361 49.1065 23.3735 48.0725 23.5616 47.0816C24.0318 44.6158 26.6578 43.0065 29.1744 42.9254C31.691 42.8443 34.0882 43.9493 36.2769 45.191C38.1478 46.2529 40.7229 47.3629 42.2075 45.8094C42.8048 45.1834 43.0031 44.2863 43.3997 43.5159C44.7851 40.822 48.2423 40.0946 51.2495 39.6689C52.7391 39.4585 54.4703 39.3217 55.5405 40.3785C55.9345 40.7688 56.1861 41.2807 56.5497 41.7014C57.1216 42.3653 57.9376 42.7632 58.7282 43.1434C60.9576 44.2154 63.1869 45.2873 65.4163 46.3593C66.4738 46.8687 67.5516 47.3908 68.3854 48.2144C70.297 50.1025 70.4979 53.1562 69.8649 55.764C69.2294 58.3718 67.9075 60.7616 67.1474 63.3339C66.9771 63.9117 66.8373 64.5351 67.0254 65.1079C67.2135 65.6857 67.6991 66.1038 68.1363 66.5271C69.5192 67.8677 70.5919 69.5428 71.1359 71.3878C72.0943 74.6342 71.3367 78.2556 69.476 81.0864C67.6152 83.9172 64.735 85.9902 61.5854 87.2574C55.9752 89.5179 49.3989 89.2544 43.9894 86.5503C41.0025 85.0601 38.313 82.8503 35.0592 82.1077C34.2686 81.9278 33.4018 81.8112 32.8197 81.2511C31.5309 80.0144 33.4552 79.0996 33.3942 77.916C33.2976 76.2054 31.2462 74.8318 29.8709 74.178Z" fill="#568E4C"/>
<path d="M48.7812 76.6895C48.7074 75.8025 48.6846 74.8724 49.071 74.069C49.8717 72.404 52.1748 71.7806 52.7645 70.0319C53.3314 68.3467 52.0579 66.2483 53.1255 64.8266C53.8449 63.8686 55.4184 63.6228 55.7616 62.4773C55.904 62.0059 55.7921 61.4737 56.0031 61.0328C56.3946 60.2167 57.5843 60.1939 58.2274 59.5527C59.6382 58.1513 57.358 55.5258 58.4282 53.8532C59.2646 52.5455 61.3516 52.9738 62.6328 52.0969C63.7767 51.3113 63.9699 49.7426 64.5851 48.5008C66.0976 45.4394 70.9046 44.7374 73.2331 47.2387C73.7008 47.7405 74.0796 48.3411 74.6617 48.7035C75.5489 49.256 76.6776 49.1268 77.7249 49.1268C79.4713 49.1242 81.5278 49.8135 81.9599 51.5014C82.1633 52.287 81.9574 53.136 82.1633 53.9216C82.7149 56.0225 85.8467 56.7296 86.1772 58.8761C86.2789 59.5426 86.0729 60.2319 86.1924 60.8959C86.3399 61.717 86.955 62.3607 87.4228 63.0526C88.1879 64.1752 88.6074 65.6147 88.2108 66.9123C87.9515 67.7587 87.3796 68.4683 86.8203 69.1551C85.9077 70.2727 84.9977 71.3928 84.0851 72.5105C82.9691 73.8815 81.7744 75.3083 80.1195 75.9393C79.5755 76.1471 78.9781 76.2713 78.5383 76.6489C77.9308 77.171 77.7757 78.0326 77.6664 78.8259C77.1377 82.6044 76.3674 86.9913 72.984 88.7754C72.0587 89.2645 70.9935 89.5078 70.1725 90.154C69.5217 90.666 69.0794 91.3857 68.5862 92.0471C66.8424 94.3964 64.1656 96.2185 61.2321 96.2946C53.4382 96.4922 49.2692 82.5563 48.7812 76.6895Z" fill="#73BA65"/>
<path d="M16.8455 84.1934C18.5537 81.4666 21.6626 79.8953 24.797 79.135C27.9313 78.3748 31.1851 78.2987 34.3754 77.8274C39.795 77.0265 45.0342 75.0827 50.5047 74.7533C56.3641 74.401 62.1574 75.9216 67.8312 77.4295C77.2368 79.9283 86.7847 82.4853 95.1277 87.4855C95.4327 87.6679 95.7556 87.8757 95.8852 88.2052C96.0225 88.5498 95.9157 88.9401 95.809 89.2949C90.28 107.567 84.7511 125.837 79.2247 144.109C78.8052 145.492 78.2689 147.023 76.975 147.677C76.0852 148.128 75.0277 148.049 74.0338 147.956C66.7864 147.269 59.5721 146.215 52.4315 144.8C44.7698 143.285 36.8717 141.189 31.0174 136.037C28.0355 133.414 26.0273 131.014 26.0782 127.038C26.1417 122.063 26.0985 117.167 25.463 112.22C24.2123 102.481 21.3017 92.9493 16.8455 84.1934Z" fill="#B2C1DB"/>
<path d="M80.8363 98.4664C80.5389 96.5151 80.061 94.1937 81.4922 92.8277C81.937 92.4045 82.5293 92.1282 82.87 91.6214C83.5894 90.5545 82.8979 88.9908 83.5538 87.8833C83.9732 87.1738 84.835 86.8494 85.3586 86.2107C86.1695 85.2198 85.9357 83.8944 85.3739 82.6704C79.8119 80.5466 73.9957 78.9931 68.2303 77.4599C62.5565 75.952 56.7632 74.434 50.9038 74.7837C45.4333 75.1132 40.1941 77.057 34.7745 77.8578C34.0881 77.9592 33.3993 78.0428 32.7104 78.1163C32.7104 78.1188 32.7078 78.1213 32.7078 78.1239C32.2553 79.1274 30.5013 79.2947 30.3895 80.4503C30.2853 81.5147 31.8766 81.9227 32.2604 82.9187C32.8629 84.4773 30.2141 85.7292 30.4835 87.3765C30.5649 87.8707 30.9055 88.2787 31.2461 88.6487C32.7129 90.2351 34.4288 91.591 36.3124 92.6528C37.7309 93.4511 39.5078 94.5662 39.1977 96.1628C38.9536 97.4223 37.4335 98.1877 37.3343 99.465C37.286 100.083 37.5911 100.669 37.8885 101.216C38.6715 102.653 39.4569 104.093 40.2399 105.529C40.672 106.323 41.1093 107.126 41.3457 107.998C41.5033 108.586 41.5694 109.194 41.5948 109.8C41.6787 111.858 41.3076 113.928 41.5567 115.973C41.8058 118.018 42.8862 120.165 44.8435 120.826C45.7104 121.12 46.656 121.092 47.5305 121.358C49.2972 121.896 50.5047 123.551 51.1809 125.266C51.857 126.982 52.1341 128.829 52.7849 130.555C54.2923 134.549 58.4028 137.821 62.6277 137.139C63.5428 136.992 64.4376 136.665 65.1773 136.105C66.0721 135.431 66.6873 134.463 67.2847 133.515C68.9345 130.897 70.5817 128.282 72.2315 125.664C73.3729 123.852 74.5295 122.012 75.1727 119.97C75.4879 118.966 75.6861 117.904 76.2556 117.017C77.0156 115.834 78.3502 115.109 79.1077 113.925C79.6772 113.036 79.8729 111.964 80.0534 110.925C80.7702 106.814 81.4642 102.602 80.8363 98.4664Z" fill="#8DA87B"/>
<path d="M60.8813 73.1111C59.6281 72.6372 58.2656 72.2596 57.3453 71.289C58.1639 71.1116 58.9722 71.5525 59.7272 71.9149C61.5753 72.8019 63.6191 73.2784 65.6705 73.2986C65.8637 73.3012 66.0722 73.2936 66.2222 73.1719C66.334 73.0807 66.3925 72.9388 66.4357 72.8019C66.9797 71.0178 65.6121 69.2311 64.1784 68.0324C62.7446 66.8337 61.0415 65.6806 60.5712 63.8737C61.9744 64.0663 62.7853 65.4931 63.6318 66.6259C64.5469 67.85 65.729 68.8738 67.0712 69.6062C67.5644 69.8748 68.116 70.1105 68.6701 70.0218C69.6844 69.8571 70.2284 68.633 70.0454 67.6244C69.8624 66.6158 69.176 65.782 68.5354 64.9786C66.5704 62.5077 64.7503 59.5553 65.124 56.4229C66.4382 58.7469 67.7499 61.0708 69.0642 63.3947C69.3184 63.8433 69.7327 64.3628 70.2284 64.2183C70.8105 64.0485 70.7648 63.2173 70.6021 62.637C69.9132 60.1661 69.4073 57.6445 69.0896 55.1C68.9981 54.3651 68.9574 53.5263 69.4709 52.9915C69.5344 52.9256 69.6082 52.8648 69.6997 52.8496C69.9767 52.8065 70.1013 53.1791 70.1191 53.4578C70.2767 56.0225 70.5665 58.5821 70.991 61.1164C71.08 61.6486 71.23 62.2594 71.718 62.495C72.2493 62.751 72.9103 62.3886 73.195 61.8741C73.4822 61.3597 73.4975 60.7464 73.5331 60.1584C73.683 57.6521 74.4304 54.9683 76.459 53.4806C76.9318 53.136 77.7351 52.9409 77.9918 53.4654C78.1138 53.7163 78.0325 54.0128 77.9308 54.2713C77.6029 55.1 77.0843 55.8401 76.6369 56.6105C75.315 58.8837 74.588 61.4408 73.8737 63.97C73.7186 64.5199 73.6195 65.2397 74.0999 65.5514C74.4024 65.749 74.8015 65.6755 75.1549 65.597C77.1275 65.1459 79.2679 64.6593 81.1109 65.4956C80.4144 66.593 78.8129 66.4536 77.5114 66.4257C75.9607 66.3927 74.405 66.7146 72.9942 67.3558C72.5518 67.556 72.0612 67.9032 72.1095 68.3847C72.1502 68.7978 72.5773 69.0537 72.9662 69.1982C74.8498 69.9002 77.1606 69.662 78.6451 71.0153C75.6633 72.2621 72.046 71.1065 69.1302 72.5003C68.8837 72.6194 68.6295 72.769 68.5125 73.0173C68.3041 73.4634 68.66 74.0006 69.1099 74.2034C69.5599 74.4061 70.0733 74.3833 70.5665 74.4391C71.5528 74.548 72.501 74.9915 73.2204 75.6758C72.1019 76.3144 70.7572 76.5501 69.4887 76.3271C68.4236 76.1395 67.3457 75.6454 66.301 75.9267C65.7722 76.0686 65.2892 76.4082 64.7401 76.4259C63.7564 76.4563 63.764 75.1334 63.2658 74.5531C62.6607 73.8612 61.7278 73.4329 60.8813 73.1111Z" fill="#85D375"/>
<path d="M37.5733 75.1207C37.1437 75.1334 36.5438 74.9104 36.6759 74.5049C36.7471 74.2819 37.009 74.1957 37.2377 74.1374C40.1128 73.4025 42.9319 72.4623 45.6697 71.3219C46.1857 71.1065 46.7145 70.8758 47.1034 70.4754C47.4949 70.075 47.7186 69.4643 47.5101 68.9473C47.1212 67.9792 45.7332 68.0527 44.7291 68.3416C40.2424 69.6315 35.7735 71.8135 31.1445 71.2078C30.6945 71.1495 30.2319 71.0558 29.8684 70.7846C29.5048 70.5134 29.2761 70.0167 29.4438 69.596C29.5989 69.2083 30.0234 69.0056 30.4225 68.8839C31.7342 68.486 33.1349 68.5899 34.505 68.5925C37.8504 68.6001 41.1957 67.9817 44.3173 66.7754C44.8181 66.5828 45.3494 66.3395 45.5985 65.8656C45.9112 65.2726 45.6341 64.4971 45.1181 64.0713C44.5995 63.643 43.903 63.4986 43.2319 63.458C40.0391 63.2629 36.9479 65.0825 33.7679 64.7404C33.2086 64.6796 32.5604 64.4718 32.4002 63.9345C36.5514 62.6395 41.366 63.4707 45.0571 61.1772C43.842 59.2765 41.2516 58.9318 38.9968 58.7443C36.742 58.5568 34.1415 58.1183 33.0383 56.1518C32.8451 55.8046 32.7383 55.3078 33.051 55.0645C33.1832 54.9606 33.356 54.9353 33.5213 54.9201C35.0719 54.7782 36.5819 55.3915 38.0207 55.9896C39.6501 56.6687 41.277 57.3479 42.9065 58.0271C43.7606 58.3844 44.8232 58.7164 45.5401 58.1335C46.1603 57.6292 46.1806 56.6992 46.0637 55.9085C45.6163 52.88 43.9996 49.7451 45.1867 46.9219C45.2884 46.6812 45.4307 46.4278 45.6748 46.334C46.0052 46.2098 46.384 46.4455 46.5416 46.7623C46.6992 47.0791 46.6941 47.4465 46.6891 47.7988C46.6611 50.5409 46.9458 53.288 47.533 55.9667C47.594 56.2506 47.6677 56.5471 47.8686 56.7574C48.1863 57.0945 48.7405 57.0996 49.1625 56.9044C49.5819 56.7093 49.9047 56.357 50.2276 56.025C51.913 54.2916 53.9415 52.8901 56.1607 51.9246C56.57 51.7472 57.1343 51.6205 57.3911 51.9854C57.6605 52.3681 57.3097 52.8699 56.9716 53.1968C54.3025 55.7741 51.2825 57.9891 48.0211 59.7631C47.4186 60.09 46.7094 60.5766 46.8009 61.2558C46.867 61.7525 47.378 62.0921 47.8762 62.1377C48.3744 62.1833 48.865 62.0084 49.3353 61.8336C50.9521 61.2355 52.5688 60.6374 54.1855 60.0393C53.8932 61.1316 52.8205 61.8133 51.7935 62.2897C50.7665 62.7687 49.6378 63.197 48.9769 64.117C48.3185 65.0369 48.4888 66.6309 49.5743 66.9553C50.1945 67.1403 50.8453 66.8514 51.4859 66.7678C52.4849 66.636 51.8443 67.561 51.5927 67.8829C51.3359 68.2123 50.8631 68.1794 50.675 68.633C50.497 69.0664 50.8733 69.4288 50.8021 69.8115C50.5555 71.1014 49.315 70.9088 48.2092 71.3548C44.63 72.8095 41.6024 74.9966 37.5733 75.1207Z" fill="#73BA65"/>
<path opacity="0.47" d="M23.9607 90.1034C24.7233 91.406 26.3782 91.9711 27.8856 91.8723C29.3956 91.7734 30.8064 91.1297 32.1842 90.5063C38.6486 87.5868 45.4638 84.8447 52.5561 85.0297C56.1887 85.1235 59.801 85.9902 63.4259 85.7241C64.4173 85.6506 65.6553 85.2401 65.7087 84.2492C65.7595 83.3292 64.7249 82.7616 63.8326 82.5259C58.169 81.018 52.1037 83.39 46.3307 82.3763C43.8369 81.9379 41.3432 80.871 38.8596 81.3728C37.1081 81.725 35.6185 82.8173 34.0628 83.6942C32.507 84.571 30.6666 85.2654 28.9609 84.7332C27.1865 84.1782 26.2002 83.5548 24.9114 85.0272C23.7827 86.3197 23.0354 88.527 23.9607 90.1034Z" fill="white"/>
<path d="M196.405 81.4336C199.466 86.8215 200.714 100.098 189.727 105.656C178.659 111.252 168.176 107.116 162.685 98.512C156.973 89.561 158.936 74.8065 172.94 69.8774C184.165 65.9239 191.784 73.3012 196.405 81.4336Z" fill="#FF8C03"/>
<path d="M177.853 71.6539C177.861 71.6564 177.869 71.6564 177.876 71.6589C177.879 71.6589 177.881 71.6564 177.884 71.6564L177.853 71.6539Z" fill="#FCBC08"/>
<path d="M178.42 73.2277C179.069 73.2074 179.918 72.9261 179.63 72.219C179.346 71.517 178.41 71.7552 177.874 71.6589C176.941 71.9681 176.682 73.2809 178.42 73.2277Z" fill="#FCBC08"/>
<path d="M177.884 71.6539L178.842 71.702C178.486 71.5626 178.156 71.5652 177.884 71.6539Z" fill="#FCBC08"/>
<path d="M175.372 73.3366C175.639 73.2809 176.051 73.0959 175.881 72.7614C175.761 72.5231 175.515 72.5358 175.319 72.6423C175.106 72.6727 174.882 72.774 174.79 72.9337C174.546 73.3594 175.095 73.3949 175.372 73.3366Z" fill="#FCBC08"/>
<path d="M178.992 74.624C178.863 74.4542 178.68 74.4086 178.481 74.4188C178.232 74.3377 177.889 74.3047 177.749 74.4771C177.714 74.5201 177.693 74.5607 177.686 74.5987C177.655 74.6063 177.625 74.6114 177.597 74.6139L177.686 74.6038C177.65 74.8521 178.245 74.9256 178.458 74.9611C178.69 74.9966 179.302 75.0295 178.992 74.624Z" fill="#FCBC08"/>
<path d="M177.597 74.6114L177.556 74.6165C177.569 74.614 177.582 74.6114 177.597 74.6114Z" fill="#FCBC08"/>
<path d="M180.655 73.9296C180.395 73.8942 180.019 74.0361 180.052 74.3174C180.088 74.6266 180.662 74.7558 180.901 74.7355C181.86 74.6545 181.013 73.8866 180.655 73.9296Z" fill="#FCBC08"/>
<path d="M182.246 72.9489C182.099 72.8577 181.844 72.6524 181.659 72.7385C181.545 72.7918 181.504 72.8957 181.517 72.9996C181.456 73.1643 181.656 73.4253 181.738 73.5267C181.916 73.7447 182.917 74.6469 183.179 74.287C183.487 73.8612 182.516 73.1162 182.246 72.9489Z" fill="#FCBC08"/>
<path d="M181.331 71.5905C181.511 71.8237 182.383 72.1759 182.625 71.8693C182.874 71.555 182.348 71.2383 182.111 71.1698C182.02 71.142 181.796 71.1597 181.646 71.2155C181.369 71.2231 181.12 71.3194 181.331 71.5905Z" fill="#FCBC08"/>
<path d="M176.267 71.7527C176.859 71.6235 176.509 71.2433 176.13 71.1546L176.143 71.1521C175.952 71.0381 175.337 71.0583 175.35 71.3929C175.36 71.7223 176.038 71.8034 176.267 71.7527Z" fill="#FCBC08"/>
<path d="M173.453 73.0275C173.705 72.9109 174.587 72.3077 174.017 72.0137C173.916 71.9605 173.781 71.9782 173.646 72.034C173.29 72.0796 172.869 72.3812 172.693 72.584C172.121 73.2505 173.013 73.2302 173.453 73.0275Z" fill="#FCBC08"/>
<path d="M176.483 74.6621C176.326 74.5049 175.983 74.3808 175.685 74.3808C175.197 74.3047 174.534 74.4264 174.312 74.7102C173.766 75.4148 175.413 75.4705 175.756 75.4984C176.265 75.5465 177.022 75.1943 176.483 74.6621Z" fill="#FCBC08"/>
<path d="M178.537 76.3271C178.283 76.3042 177.96 76.3803 177.881 76.5653C177.714 76.9606 178.56 77.1938 178.83 77.1887C179.864 77.1735 178.919 76.2916 178.537 76.3271Z" fill="#FCBC08"/>
<path d="M186.001 74.3807C185.861 74.2946 185.719 74.2794 185.548 74.3655C185.581 74.9535 186.659 75.4882 187.134 75.1055C187 74.5784 186.514 74.3047 186.001 74.3807Z" fill="#FCBC08"/>
<path d="M182.821 75.4198C183.227 75.8025 184.488 76.469 184.892 75.8405C184.697 75.544 184.272 75.212 183.906 75.2525C183.51 75.0523 183.016 74.9966 182.821 75.4198Z" fill="#FCBC08"/>
<path d="M185.337 72.3305C185.238 71.8997 184.801 71.735 184.427 71.8085C184.298 71.8135 184.176 71.8718 184.074 71.9833C184.292 72.3888 184.958 72.5586 185.337 72.3305Z" fill="#FCBC08"/>
<path d="M187.617 76.7021C186.651 76.2865 187.34 78.058 188.047 77.9059C188.678 77.7691 188.113 76.6236 187.617 76.7021Z" fill="#FCBC08"/>
<path d="M172.175 74.548C171.981 74.1806 171.631 74.2971 171.333 74.5024C170.507 74.6241 169.297 75.2526 169.805 75.762C170.436 76.3955 171.92 75.0701 172.175 74.548Z" fill="#FCBC08"/>
<path d="M170.975 72.5029C170.075 72.2925 169.854 73.8384 171.059 73.253C171.811 72.8881 171.394 72.48 170.975 72.5029Z" fill="#FCBC08"/>
<path d="M174.546 77.1228C174.363 77.1 174.193 77.1786 174.073 77.3661C174.282 77.726 175.095 78.1112 175.484 77.7944C176.064 77.3256 175.032 76.7706 174.546 77.1228Z" fill="#FCBC08"/>
<path d="M182.894 78.1441L182.879 78.058C182.828 78.1087 182.793 78.1593 182.765 78.21C182.681 78.2683 182.65 78.3367 182.711 78.3976C182.681 78.9247 183.621 79.3631 183.695 78.7169C183.766 78.0681 183.212 78.025 182.894 78.1441Z" fill="#FCBC08"/>
<path d="M191.934 80.7468C191.72 79.7306 190.223 79.9739 190.838 80.5466C191.128 81.0433 192.145 81.7428 191.934 80.7468Z" fill="#FCBC08"/>
<path d="M168.839 79.2009L169.043 79.0489C168.621 79.059 168.229 79.4214 167.998 79.7407C168.288 79.9764 169.551 79.7635 169.716 79.3226C169.968 78.6561 169.31 78.9146 168.839 79.2009Z" fill="#FCBC08"/>
<path d="M178.494 80.9166C178.555 81.1092 178.652 81.1371 178.786 81.1346C179.165 81.3627 179.948 81.5908 179.826 81.0205C179.704 80.4427 178.756 80.6303 178.494 80.9166Z" fill="#FCBC08"/>
<path d="M166.696 75.1334C166.61 75.212 166.541 75.3184 166.496 75.4452C166.91 75.8304 168.219 76.2485 168.168 75.2602C168.125 74.3833 167.096 74.6241 166.696 75.1334Z" fill="#FCBC08"/>
<path d="M169.335 73.8182L169.35 73.8106C169.073 73.6509 168.822 73.7016 168.664 73.988C168.944 74.2921 169.36 74.3326 169.658 74.0386C169.559 73.9195 169.447 73.8435 169.335 73.8182Z" fill="#FCBC08"/>
<path opacity="0.7" d="M163.186 91.8039C160.799 92.3132 166.973 103.01 173.021 105.436C180.81 108.56 188.474 105.284 191.519 102.716C194.565 100.149 198.185 90.6178 195.927 90.3872C195.122 90.3061 194.567 93.8389 189.539 97.3235C185.126 100.38 178.952 102.582 173.359 99.7437C165.708 95.8587 164.764 91.4668 163.186 91.8039Z" fill="#F28106"/>
<path d="M193.129 77.5967C193.129 77.5967 191.865 77.1 191.812 78.5395C191.758 79.979 193.848 83.2938 194.855 83.3445C195.838 83.3952 196.347 82.4169 195.526 80.904C194.705 79.3885 194.201 78.2531 193.129 77.5967Z" fill="#7C6A13"/>
<path d="M193.947 79.9232C193.947 79.9232 199.008 77.8983 200.6 76.9961C202.191 76.0939 206.772 72.0137 206.772 72.0137C206.772 72.0137 207.28 71.697 207.666 71.9681C208.053 72.2368 207.649 72.8171 207.649 72.8171C207.649 72.8171 203.025 76.6616 201.436 77.5815C198.21 79.4493 194.242 81.2816 194.242 81.2816L193.947 79.9232Z" fill="#7C6A13"/>
<path d="M203.002 75.8937C202.809 75.7594 197.615 72.6245 197.615 72.6245L197.262 72.8577L199.89 74.5886L202.514 76.3169L203.002 75.8937Z" fill="#7C6A13"/>
<path d="M188.225 76.9961C181.656 75.8582 174.826 67.7714 174.826 67.7714C174.826 67.7714 183.687 63.6076 188.911 65.3283C194.135 67.0491 201.017 74.8952 201.017 74.8952C201.017 74.8952 194.814 78.134 188.225 76.9961Z" fill="#7C6A13"/>
<path d="M193.017 77.9819C193.017 77.9819 192.302 78.3874 192.343 79.1274C192.399 80.1437 193.721 81.7859 193.721 81.7859L194.344 80.7747C194.344 80.7747 194.026 80.2552 194.1 79.9663C194.173 79.6774 194.331 79.576 194.331 79.576L193.017 77.9819Z" fill="#937B18"/>
<path d="M199.024 74.178C199.024 74.178 193.98 71.2433 189.099 69.8571C184.219 68.4708 176.315 67.5636 176.265 67.9108C176.214 68.258 184.953 68.7901 188.764 70.1992C192.574 71.6057 199.077 74.7913 199.077 74.7913L199.024 74.178Z" fill="#937B18"/>
<path d="M196.626 73.3087C196.626 73.3087 196.207 73.9094 194.862 74.6747C193.518 75.4401 191.865 76.4588 192.048 76.5019C192.231 76.545 194.135 75.5313 195.04 74.9687C195.945 74.4086 197.155 73.5926 197.155 73.5926L196.626 73.3087Z" fill="#937B18"/>
<path d="M192.023 71.2965C192.023 71.2965 191.647 72.1405 189.702 73.7624C187.757 75.3843 187.079 75.805 187.307 75.9647C187.536 76.1243 188.998 74.8876 190.017 73.9803C191.036 73.0731 192.689 71.5044 192.689 71.5044L192.023 71.2965Z" fill="#937B18"/>
<path d="M187.371 69.7202C187.371 69.7202 187.19 70.402 186.046 71.7325C184.903 73.063 183.959 73.6813 184.12 73.8765C184.28 74.0741 185.449 72.8881 186.257 71.92C187.063 70.9494 188.136 69.7836 188.136 69.7836L187.371 69.7202Z" fill="#937B18"/>
<path d="M182.068 68.709C182.068 68.709 181.883 69.2184 181.247 69.8799C180.612 70.5439 179.813 71.1344 179.948 71.1876C180.083 71.2383 180.878 70.772 181.397 70.1536C181.916 69.5352 182.513 68.8028 182.513 68.8028L182.068 68.709Z" fill="#937B18"/>
<path d="M197.226 73.4279C197.226 73.4279 196.993 72.1177 196.24 71.0001C195.574 70.0092 194.585 69.0411 194.417 69.0943C194.252 69.1475 195.462 70.1612 195.81 70.701C196.159 71.2408 196.843 73.2454 196.843 73.2454L197.226 73.4279Z" fill="#937B18"/>
<path d="M192.572 71.1876C192.572 71.1876 192.684 69.8824 192.005 68.6863C191.326 67.4901 189.75 66.0962 189.41 66.0608C189.066 66.0253 191.37 67.8347 191.695 68.6685C192.02 69.4998 191.929 70.9798 191.929 70.9798L192.572 71.1876Z" fill="#937B18"/>
<path d="M188.136 69.7836C188.136 69.7836 187.419 67.8829 186.766 67.1733C186.113 66.4637 184.834 65.488 184.514 65.3942C184.196 65.3005 186.24 66.7653 186.672 67.4901C187.101 68.2149 187.595 69.7051 187.595 69.7051L188.136 69.7836Z" fill="#937B18"/>
<path d="M182.119 68.5748C182.119 68.5748 182.213 68.1693 181.341 67.3102C180.456 66.4409 180.007 65.9315 180.233 66.0303C180.395 66.1013 180.922 66.5093 181.463 67.0136C182.005 67.518 182.688 68.6736 182.688 68.6736L182.119 68.5748Z" fill="#937B18"/>
<path d="M157.194 79.2972C162.197 82.9669 168.783 94.5738 161.035 104.123C153.231 113.743 141.967 114.24 133.426 108.629C124.542 102.79 120.281 88.5245 131.039 78.3165C139.662 70.1308 149.642 73.7573 157.194 79.2972Z" fill="#E57A05"/>
<path d="M136.253 77.9339C136.261 77.9313 136.268 77.9313 136.273 77.9288C136.276 77.9262 136.276 77.9262 136.279 77.9236L136.253 77.9339Z" fill="#FCBC08"/>
<path d="M137.417 79.1376C138.002 78.8537 138.66 78.2531 138.109 77.7234C137.562 77.1988 136.805 77.7969 136.276 77.9262C135.549 78.5927 135.851 79.8978 137.417 79.1376Z" fill="#FCBC08"/>
<path d="M136.281 77.9236L137.176 77.5764C136.794 77.5917 136.494 77.731 136.281 77.9236Z" fill="#FCBC08"/>
<path d="M134.679 80.4807C134.901 80.3211 135.2 79.984 134.908 79.7483C134.7 79.5811 134.481 79.69 134.346 79.8674C134.163 79.9815 134.001 80.1665 133.983 80.349C133.935 80.8381 134.451 80.648 134.679 80.4807Z" fill="#FCBC08"/>
<path d="M138.51 80.1792C138.322 80.0752 138.137 80.1082 137.959 80.1994C137.697 80.2273 137.371 80.3388 137.313 80.5517C137.298 80.6075 137.295 80.6505 137.305 80.6886C137.28 80.7063 137.254 80.724 137.229 80.7392L137.308 80.6936C137.379 80.9344 137.951 80.7595 138.159 80.7038C138.388 80.6429 138.96 80.425 138.51 80.1792Z" fill="#FCBC08"/>
<path d="M137.232 80.7367L137.196 80.757C137.206 80.7519 137.219 80.7443 137.232 80.7367Z" fill="#FCBC08"/>
<path d="M139.743 78.8689C139.491 78.9424 139.207 79.2237 139.352 79.4696C139.509 79.7357 140.089 79.6216 140.297 79.505C141.141 79.0362 140.053 78.6839 139.743 78.8689Z" fill="#FCBC08"/>
<path d="M140.793 77.3256C140.62 77.3027 140.305 77.2191 140.17 77.3737C140.086 77.47 140.094 77.579 140.147 77.6702C140.16 77.8451 140.45 78.0022 140.567 78.063C140.818 78.1897 142.102 78.6028 142.194 78.1695C142.3 77.6499 141.108 77.3686 140.793 77.3256Z" fill="#FCBC08"/>
<path d="M139.4 76.4589C139.662 76.5983 140.6 76.5628 140.694 76.1877C140.793 75.7999 140.183 75.7239 139.939 75.7569C139.845 75.7695 139.647 75.876 139.532 75.9875C139.283 76.1066 139.097 76.2967 139.4 76.4589Z" fill="#FCBC08"/>
<path d="M134.847 78.6713C135.335 78.3114 134.857 78.1086 134.476 78.1821L134.486 78.1745C134.265 78.1467 133.713 78.4178 133.861 78.7194C134.006 79.0108 134.659 78.8106 134.847 78.6713Z" fill="#FCBC08"/>
<path d="M132.803 80.9825C132.986 80.7747 133.541 79.8649 132.902 79.8294C132.788 79.8218 132.671 79.8928 132.572 79.9992C132.267 80.1867 132.005 80.6328 131.926 80.8913C131.677 81.7276 132.486 81.3449 132.803 80.9825Z" fill="#FCBC08"/>
<path d="M136.238 81.2385C136.029 81.16 135.666 81.1853 135.394 81.3069C134.918 81.4362 134.362 81.8163 134.278 82.1686C134.067 83.0353 135.594 82.4119 135.92 82.3004C136.4 82.1331 136.947 81.5021 136.238 81.2385Z" fill="#FCBC08"/>
<path d="M138.795 81.9202C138.553 82.0038 138.289 82.204 138.294 82.4042C138.304 82.8325 139.171 82.7008 139.415 82.5892C140.353 82.1508 139.128 81.7301 138.795 81.9202Z" fill="#FCBC08"/>
<path d="M144.807 77.1025C144.644 77.0797 144.509 77.1228 144.387 77.2723C144.657 77.7944 145.862 77.8425 146.139 77.3002C145.798 76.8719 145.244 76.8212 144.807 77.1025Z" fill="#FCBC08"/>
<path d="M142.331 79.3454C142.857 79.5278 144.283 79.6216 144.395 78.8841C144.095 78.694 143.571 78.5623 143.254 78.7498C142.809 78.7295 142.336 78.8791 142.331 79.3454Z" fill="#FCBC08"/>
<path d="M143.36 75.5009C143.094 75.1486 142.628 75.1765 142.316 75.3945C142.199 75.4527 142.112 75.5541 142.067 75.6986C142.43 75.9799 143.109 75.8633 143.36 75.5009Z" fill="#FCBC08"/>
<path d="M147.235 78.5598C146.182 78.575 147.537 79.9105 148.122 79.4822C148.64 79.1021 147.654 78.2861 147.235 78.5598Z" fill="#FCBC08"/>
<path d="M132.259 82.8908C131.934 82.6323 131.659 82.8832 131.474 83.1924C130.77 83.641 129.923 84.7054 130.594 84.9664C131.428 85.2857 132.242 83.4712 132.259 82.8908Z" fill="#FCBC08"/>
<path d="M130.325 81.5122C129.417 81.6871 129.849 83.1873 130.709 82.161C131.245 81.5223 130.696 81.3196 130.325 81.5122Z" fill="#FCBC08"/>
<path d="M135.478 84.272C135.302 84.3252 135.178 84.4672 135.147 84.6876C135.485 84.9309 136.385 84.9487 136.611 84.5026C136.947 83.8386 135.778 83.7525 135.478 84.272Z" fill="#FCBC08"/>
<path d="M143.516 81.8011L143.467 81.7276C143.442 81.7935 143.429 81.8543 143.424 81.9126C143.371 81.9988 143.371 82.0773 143.452 82.1052C143.64 82.5968 144.68 82.6146 144.479 81.9962C144.281 81.3779 143.757 81.5629 143.516 81.8011Z" fill="#FCBC08"/>
<path d="M152.832 80.4909C152.219 79.652 150.956 80.4833 151.749 80.757C152.217 81.0915 153.432 81.3145 152.832 80.4909Z" fill="#FCBC08"/>
<path d="M131.123 88.4941L131.248 88.2711C130.869 88.451 130.658 88.9426 130.577 89.3304C130.937 89.4267 132.003 88.7171 131.975 88.2483C131.931 87.5387 131.433 88.043 131.123 88.4941Z" fill="#FCBC08"/>
<path d="M140.638 86.1245C140.773 86.2766 140.872 86.2614 140.994 86.2056C141.434 86.2589 142.239 86.1473 141.896 85.6785C141.548 85.1995 140.757 85.7571 140.638 86.1245Z" fill="#FCBC08"/>
<path d="M127.498 85.6582C127.452 85.7647 127.432 85.8888 127.445 86.0257C127.981 86.2082 129.346 86.0561 128.896 85.1742C128.495 84.3911 127.653 85.0297 127.498 85.6582Z" fill="#FCBC08"/>
<path d="M129.369 83.3825L129.382 83.3698C129.064 83.3394 128.856 83.4864 128.83 83.8108C129.211 83.973 129.608 83.8412 129.758 83.4534C129.613 83.3825 129.481 83.3571 129.369 83.3825Z" fill="#FCBC08"/>
<path d="M157.626 33.612C156.198 33.4802 154.721 34.0834 153.796 35.1782C152.837 36.311 152.502 37.8772 152.636 39.3521C152.771 40.8271 153.335 42.2336 154.009 43.5539C154.637 44.7856 154.609 46.6027 155.428 47.7177C155.916 48.3843 156.953 48.7264 158.005 48.7796C161.475 45.7131 165.916 44.1799 168.509 40.3456C168.999 39.6182 169.353 38.7769 169.322 37.9025C169.264 36.2426 167.001 33.5081 163.336 33.4498C161.399 33.4194 164.581 34.3926 162.771 34.9172C161.633 35.2466 161.508 35.5431 160.466 34.9932C159.439 34.4534 158.9 33.7286 157.626 33.612Z" fill="#C99E59"/>
<path d="M155.308 32.3221C153.879 32.1903 152.402 32.7934 151.477 33.8882C150.519 35.0211 150.183 36.5847 150.318 38.0622C150.453 39.5397 151.017 40.9437 151.691 42.264C152.692 44.2306 153.953 46.0679 155.428 47.7152C158.897 44.6488 163.598 42.8874 166.191 39.0556C166.681 38.3283 167.095 37.4844 167.004 36.6126C166.918 35.7915 166.386 35.0743 165.748 34.5472C164.259 33.313 162.263 33.1026 160.453 33.6272C159.314 33.9567 159.19 34.2532 158.147 33.7032C157.121 33.166 156.582 32.4386 155.308 32.3221Z" fill="#E8B964"/>
<path d="M136.741 41.4556C135.755 41.0425 134.567 41.1413 133.663 41.7115C132.725 42.302 132.132 43.3411 131.896 44.4207C131.659 45.5003 131.743 46.628 131.924 47.7177C132.092 48.734 131.662 50.0189 131.995 50.9971C132.193 51.58 132.854 52.0564 133.589 52.3301C136.749 50.9261 140.254 50.8298 142.961 48.6858C143.475 48.2804 143.915 47.7608 144.09 47.1298C144.423 45.9362 143.429 43.483 140.836 42.6213C139.466 42.1652 141.51 43.5717 140.104 43.5387C139.219 43.5185 139.064 43.7009 138.447 43.075C137.839 42.4591 137.62 41.823 136.741 41.4556Z" fill="#C99E59"/>
<path d="M135.384 40.0186C134.397 39.6055 133.21 39.7044 132.305 40.2746C131.367 40.8651 130.775 41.9041 130.538 42.9837C130.302 44.0633 130.386 45.1911 130.566 46.2808C130.836 47.9053 131.316 49.4943 131.995 50.9945C135.155 49.5906 138.897 49.3929 141.604 47.2464C142.117 46.8409 142.603 46.3315 142.733 45.6903C142.855 45.0872 142.639 44.4561 142.306 43.9391C141.523 42.7278 140.152 42.1322 138.747 42.0993C137.862 42.079 137.707 42.2615 137.089 41.638C136.482 41.0247 136.261 40.3861 135.384 40.0186Z" fill="#E8B964"/>
<path d="M161.539 59.5528C161.109 60.531 161.193 61.7145 161.752 62.6243C162.332 63.5671 163.364 64.1702 164.444 64.4236C165.525 64.6745 166.656 64.6061 167.751 64.4414C168.773 64.2868 170.057 64.7328 171.041 64.416C171.628 64.226 172.116 63.5747 172.401 62.8448C171.036 59.677 170.987 56.1797 168.875 53.4528C168.473 52.9358 167.96 52.4898 167.329 52.3048C166.137 51.9576 163.664 52.913 162.761 55.4853C162.286 56.8462 163.725 54.8264 163.671 56.2278C163.638 57.1097 163.819 57.2669 163.186 57.8751C162.56 58.4706 161.92 58.681 161.539 59.5528Z" fill="#C99E59"/>
<path d="M160.079 60.8858C159.65 61.864 159.734 63.0475 160.293 63.9573C160.873 64.9 161.905 65.5032 162.985 65.7541C164.065 66.005 165.197 65.9366 166.292 65.7718C167.924 65.526 169.526 65.0673 171.041 64.4135C169.676 61.2456 169.528 57.5127 167.416 54.7833C167.014 54.2663 166.511 53.7746 165.87 53.6352C165.265 53.5035 164.632 53.7113 164.109 54.0382C162.883 54.801 162.266 56.1594 162.212 57.5608C162.179 58.4427 162.362 58.5999 161.727 59.2081C161.101 59.8036 160.461 60.014 160.079 60.8858Z" fill="#E8B964"/>
</g>
<rect y="99" width="279" height="66" fill="#FFA227"/>
<path d="M15.1283 136H20.3056V125.884H30.2657V121.616H20.3056V115.781H31.3418V111.512H15.1283V136ZM40.6684 136.359C46.2403 136.359 49.7078 132.544 49.7078 126.889C49.7078 121.197 46.2403 117.395 40.6684 117.395C35.0965 117.395 31.629 121.197 31.629 126.889C31.629 132.544 35.0965 136.359 40.6684 136.359ZM40.6923 132.413C38.1216 132.413 36.8064 130.057 36.8064 126.853C36.8064 123.649 38.1216 121.281 40.6923 121.281C43.2152 121.281 44.5305 123.649 44.5305 126.853C44.5305 130.057 43.2152 132.413 40.6923 132.413ZM60.3078 136.359C65.8797 136.359 69.3472 132.544 69.3472 126.889C69.3472 121.197 65.8797 117.395 60.3078 117.395C54.7359 117.395 51.2684 121.197 51.2684 126.889C51.2684 132.544 54.7359 136.359 60.3078 136.359ZM60.3317 132.413C57.761 132.413 56.4457 130.057 56.4457 126.853C56.4457 123.649 57.761 121.281 60.3317 121.281C62.8546 121.281 64.1699 123.649 64.1699 126.853C64.1699 130.057 62.8546 132.413 60.3317 132.413ZM78.4167 136.299C81.382 136.299 82.9244 134.589 83.6299 133.059H83.8451V136H88.867V111.512H83.7853V120.719H83.6299C82.9484 119.225 81.4777 117.395 78.4047 117.395C74.3753 117.395 70.9676 120.528 70.9676 126.841C70.9676 132.987 74.2318 136.299 78.4167 136.299ZM80.0309 132.246C77.5319 132.246 76.1688 130.022 76.1688 126.817C76.1688 123.637 77.508 121.448 80.0309 121.448C82.506 121.448 83.8929 123.541 83.8929 126.817C83.8929 130.093 82.482 132.246 80.0309 132.246ZM104.101 111.512H98.9232V136H104.101V111.512ZM112.348 125.382C112.36 123.015 113.771 121.628 115.827 121.628C117.872 121.628 119.104 122.967 119.092 125.215V136H124.185V124.306C124.185 120.026 121.674 117.395 117.848 117.395C115.122 117.395 113.149 118.734 112.324 120.875H112.109V117.634H107.254V136H112.348V125.382ZM142.471 122.871C142.016 119.488 139.29 117.395 134.651 117.395C129.952 117.395 126.855 119.571 126.867 123.111C126.855 125.861 128.589 127.642 132.176 128.36L135.356 128.993C136.958 129.316 137.688 129.902 137.712 130.823C137.688 131.911 136.504 132.688 134.723 132.688C132.905 132.688 131.697 131.911 131.387 130.416L126.377 130.679C126.855 134.195 129.844 136.359 134.711 136.359C139.469 136.359 142.877 133.931 142.889 130.309C142.877 127.654 141.143 126.064 137.58 125.334L134.256 124.665C132.546 124.294 131.913 123.708 131.925 122.824C131.913 121.724 133.156 121.006 134.734 121.006C136.504 121.006 137.556 121.975 137.807 123.158L142.471 122.871ZM145.086 142.887H150.18V133.059H150.335C151.041 134.589 152.583 136.299 155.549 136.299C159.734 136.299 162.998 132.987 162.998 126.841C162.998 120.528 159.59 117.395 155.561 117.395C152.488 117.395 151.017 119.225 150.335 120.719H150.108V117.634H145.086V142.887ZM150.072 126.817C150.072 123.541 151.459 121.448 153.934 121.448C156.457 121.448 157.797 123.637 157.797 126.817C157.797 130.022 156.433 132.246 153.934 132.246C151.483 132.246 150.072 130.093 150.072 126.817ZM173.753 136.359C178.297 136.359 181.358 134.147 182.075 130.739L177.364 130.428C176.85 131.827 175.535 132.556 173.837 132.556C171.29 132.556 169.676 130.871 169.676 128.132V128.12H182.183V126.721C182.183 120.48 178.404 117.395 173.55 117.395C168.145 117.395 164.642 121.233 164.642 126.901C164.642 132.724 168.098 136.359 173.753 136.359ZM169.676 124.964C169.783 122.871 171.374 121.197 173.634 121.197C175.846 121.197 177.376 122.776 177.388 124.964H169.676ZM192.795 136.359C197.685 136.359 200.758 133.489 200.997 129.268H196.19C195.892 131.229 194.6 132.329 192.855 132.329C190.475 132.329 188.933 130.332 188.933 126.817C188.933 123.35 190.487 121.365 192.855 121.365C194.72 121.365 195.915 122.596 196.19 124.426H200.997C200.782 120.181 197.566 117.395 192.771 117.395C187.199 117.395 183.755 121.257 183.755 126.889C183.755 132.473 187.139 136.359 192.795 136.359ZM213.017 117.634H209.561V113.234H204.468V117.634H201.957V121.46H204.468V131.026C204.444 134.625 206.895 136.407 210.59 136.251C211.905 136.203 212.838 135.94 213.352 135.773L212.551 131.982C212.3 132.03 211.762 132.15 211.283 132.15C210.267 132.15 209.561 131.767 209.561 130.356V121.46H213.017V117.634ZM223.426 136.359C228.998 136.359 232.465 132.544 232.465 126.889C232.465 121.197 228.998 117.395 223.426 117.395C217.854 117.395 214.386 121.197 214.386 126.889C214.386 132.544 217.854 136.359 223.426 136.359ZM223.45 132.413C220.879 132.413 219.564 130.057 219.564 126.853C219.564 123.649 220.879 121.281 223.45 121.281C225.972 121.281 227.288 123.649 227.288 126.853C227.288 130.057 225.972 132.413 223.45 132.413ZM234.767 136H239.861V125.609C239.861 123.35 241.511 121.795 243.759 121.795C244.464 121.795 245.433 121.915 245.911 122.07V117.551C245.456 117.443 244.823 117.371 244.309 117.371C242.252 117.371 240.566 118.567 239.897 120.839H239.705V117.634H234.767V136Z" fill="white" fill-opacity="0.46"/>
<defs>
<clipPath id="clip0">
<rect width="255" height="159" fill="white" transform="translate(15)"/>
</clipPath>
</defs>
</svg>
