<svg width="161" height="161" viewBox="0 0 161 161" fill="none" xmlns="http://www.w3.org/2000/svg">
<path d="M36.591 69.5228H7.31827C3.2766 69.5228 0 72.7994 0 76.841C0 80.8827 3.2766 84.1593 7.31827 84.1593H36.591C40.6327 84.1593 43.9093 80.8827 43.9093 76.841C43.909 72.7994 40.6324 69.5228 36.591 69.5228Z" fill="#FFA227"/>
<path d="M153.682 69.5228H124.409C120.367 69.5228 117.091 72.7994 117.091 76.841C117.091 80.8827 120.367 84.1593 124.409 84.1593H153.682C157.723 84.1593 161 80.8827 161 76.841C161 72.7994 157.723 69.5228 153.682 69.5228Z" fill="#FFA227" fill-opacity="0.28"/>
<path d="M44.2765 102.715L23.5776 123.414C20.7196 126.272 20.7196 130.905 23.5776 133.763C25.0065 135.192 26.8797 135.906 28.7526 135.906C30.6255 135.906 32.4987 135.192 33.9269 133.763L54.6258 113.064C57.4839 110.206 57.4839 105.572 54.6258 102.715C51.7677 99.8568 47.1339 99.8565 44.2765 102.715Z" fill="#FFA227" fill-opacity="0.75"/>
<path d="M80.4999 3.65898C76.4582 3.65898 73.1816 6.93558 73.1816 10.9772V25.6135C73.1816 29.6551 76.4582 32.9317 80.4999 32.9317C84.5416 32.9317 87.8182 29.6551 87.8182 25.6135V10.9772C87.8182 6.93558 84.5416 3.65898 80.4999 3.65898Z" fill="#FFA227" fill-opacity="0.13"/>
<path d="M127.072 19.9187L106.373 40.6179C103.515 43.476 103.515 48.1094 106.373 50.9672C107.802 52.3961 109.675 53.1108 111.548 53.1108C113.421 53.1108 115.294 52.3961 116.722 50.9672L137.421 30.268C140.279 27.4099 140.279 22.7765 137.421 19.9187C134.564 17.0607 129.929 17.0607 127.072 19.9187Z" fill="#FFA227" fill-opacity="0.13"/>
<path d="M80.4999 113.432C76.4582 113.432 73.1816 116.708 73.1816 120.75V150.023C73.1816 154.064 76.4582 157.341 80.4999 157.341C84.5416 157.341 87.8182 154.064 87.8182 150.023V120.75C87.8182 116.708 84.5416 113.432 80.4999 113.432Z" fill="#FFA227" fill-opacity="0.6"/>
<path d="M116.722 102.715C113.865 99.8565 109.231 99.8565 106.373 102.715C103.515 105.572 103.515 110.206 106.373 113.064L127.072 133.763C128.501 135.192 130.374 135.906 132.247 135.906C134.119 135.906 135.993 135.192 137.421 133.763C140.279 130.905 140.279 126.271 137.421 123.414L116.722 102.715Z" fill="#FFA227" fill-opacity="0.46"/>
</svg>
