<svg width="390" height="115" viewBox="0 0 390 115" fill="none" xmlns="http://www.w3.org/2000/svg">
<path d="M158.266 58.6425H165.954V43.6211H180.744V37.2824H165.954V28.6176H182.342V22.2788H158.266V58.6425ZM196.192 59.1751C204.466 59.1751 209.615 53.5111 209.615 45.1126C209.615 36.6609 204.466 31.0146 196.192 31.0146C187.918 31.0146 182.769 36.6609 182.769 45.1126C182.769 53.5111 187.918 59.1751 196.192 59.1751ZM196.228 53.3158C192.41 53.3158 190.457 49.8179 190.457 45.0594C190.457 40.3008 192.41 36.7852 196.228 36.7852C199.974 36.7852 201.927 40.3008 201.927 45.0594C201.927 49.8179 199.974 53.3158 196.228 53.3158ZM225.356 59.1751C233.63 59.1751 238.78 53.5111 238.78 45.1126C238.78 36.6609 233.63 31.0146 225.356 31.0146C217.082 31.0146 211.933 36.6609 211.933 45.1126C211.933 53.5111 217.082 59.1751 225.356 59.1751ZM225.392 53.3158C221.574 53.3158 219.621 49.8179 219.621 45.0594C219.621 40.3008 221.574 36.7852 225.392 36.7852C229.138 36.7852 231.091 40.3008 231.091 45.0594C231.091 49.8179 229.138 53.3158 225.392 53.3158ZM252.248 59.0863C256.651 59.0863 258.941 56.5473 259.989 54.2746H260.309V58.6425H267.766V22.2788H260.22V35.9507H259.989C258.977 33.7312 256.793 31.0146 252.23 31.0146C246.246 31.0146 241.186 35.6666 241.186 45.0416C241.186 54.168 246.033 59.0863 252.248 59.0863ZM254.645 53.0672C250.934 53.0672 248.909 49.7646 248.909 45.0061C248.909 40.2831 250.898 37.0338 254.645 37.0338C258.32 37.0338 260.38 40.141 260.38 45.0061C260.38 49.8711 258.284 53.0672 254.645 53.0672ZM165.954 66.2788H158.266V102.642H165.954V66.2788ZM178.201 86.8754C178.219 83.3598 180.314 81.3001 183.368 81.3001C186.404 81.3001 188.233 83.2888 188.215 86.6268V102.642H195.779V85.2774C195.779 78.9209 192.051 75.0146 186.369 75.0146C182.321 75.0146 179.391 77.0032 178.166 80.1815H177.846V75.3697H170.637V102.642H178.201V86.8754ZM222.933 83.1467C222.258 78.1219 218.21 75.0146 211.32 75.0146C204.342 75.0146 199.744 78.2461 199.761 83.5018C199.744 87.5856 202.318 90.2312 207.645 91.2966L212.368 92.2376C214.747 92.717 215.83 93.5871 215.866 94.9542C215.83 96.57 214.072 97.7241 211.427 97.7241C208.728 97.7241 206.935 96.57 206.473 94.3506L199.033 94.7412C199.744 99.9613 204.183 103.175 211.409 103.175C218.476 103.175 223.536 99.5707 223.554 94.1908C223.536 90.249 220.962 87.8875 215.671 86.8044L210.734 85.8101C208.195 85.2596 207.254 84.3896 207.272 83.0757C207.254 81.4422 209.101 80.3768 211.445 80.3768C214.072 80.3768 215.635 81.815 216.008 83.5729L222.933 83.1467ZM226.817 112.87H234.381V98.2746H234.612C235.659 100.547 237.95 103.086 242.353 103.086C248.568 103.086 253.415 98.168 253.415 89.0416C253.415 79.6666 248.355 75.0146 242.371 75.0146C237.808 75.0146 235.624 77.7312 234.612 79.9507H234.274V75.3697H226.817V112.87ZM234.221 89.0061C234.221 84.141 236.281 81.0338 239.956 81.0338C243.703 81.0338 245.691 84.2831 245.691 89.0061C245.691 93.7646 243.667 97.0672 239.956 97.0672C236.316 97.0672 234.221 93.8711 234.221 89.0061ZM269.387 103.175C276.134 103.175 280.679 99.8903 281.745 94.83L274.749 94.3683C273.985 96.4457 272.032 97.5288 269.511 97.5288C265.729 97.5288 263.332 95.0253 263.332 90.9592V90.9415H281.904V88.864C281.904 79.5956 276.294 75.0146 269.085 75.0146C261.059 75.0146 255.857 80.7142 255.857 89.1304C255.857 97.7774 260.988 103.175 269.387 103.175ZM263.332 86.254C263.492 83.1467 265.853 80.6609 269.209 80.6609C272.494 80.6609 274.767 83.0047 274.784 86.254H263.332ZM297.663 103.175C304.925 103.175 309.488 98.9138 309.843 92.646H302.705C302.262 95.5579 300.344 97.1915 297.752 97.1915C294.218 97.1915 291.928 94.2263 291.928 89.0061C291.928 83.8569 294.236 80.9095 297.752 80.9095C300.522 80.9095 302.297 82.7383 302.705 85.455H309.843C309.524 79.1517 304.747 75.0146 297.627 75.0146C289.353 75.0146 284.24 80.7497 284.24 89.1126C284.24 97.4045 289.264 103.175 297.663 103.175ZM327.693 75.3697H322.561V68.8356H314.997V75.3697H311.269V81.0515H314.997V95.2561C314.962 100.601 318.602 103.246 324.088 103.015C326.041 102.944 327.426 102.554 328.19 102.305L327 96.6765C326.627 96.7476 325.828 96.9251 325.118 96.9251C323.609 96.9251 322.561 96.3569 322.561 94.2618V81.0515H327.693V75.3697ZM343.149 103.175C351.423 103.175 356.572 97.5111 356.572 89.1126C356.572 80.6609 351.423 75.0146 343.149 75.0146C334.875 75.0146 329.726 80.6609 329.726 89.1126C329.726 97.5111 334.875 103.175 343.149 103.175ZM343.185 97.3158C339.367 97.3158 337.414 93.8179 337.414 89.0594C337.414 84.3008 339.367 80.7852 343.185 80.7852C346.931 80.7852 348.884 84.3008 348.884 89.0594C348.884 93.8179 346.931 97.3158 343.185 97.3158ZM359.991 102.642H367.555V87.2128C367.555 83.8569 370.005 81.5487 373.343 81.5487C374.391 81.5487 375.829 81.7263 376.539 81.9571V75.2454C375.864 75.0856 374.923 74.9791 374.16 74.9791C371.106 74.9791 368.602 76.7547 367.608 80.1283H367.324V75.3697H359.991V102.642Z" fill="black"/>
<g clip-path="url(#clip0)">
<path d="M0.317139 65.9497L7.15143 53.748L127.326 53.5317L134.152 64.0322L117.918 79.734L32.5703 86.8013L0.317139 65.9497Z" fill="#E0BD9D"/>
<path d="M10.0154 73.1528C10.2696 72.5481 16.2422 64.0321 16.2422 64.0321L26.6933 70.1655C26.6933 70.1655 29.4484 79.6823 29.1102 79.734C28.7739 79.7857 10.0154 73.1528 10.0154 73.1528Z" fill="#C4A58C"/>
<path d="M47.5095 92.3184L27.1862 78.4174L10.0154 60.9435L19.5838 49.4728L57.0778 80.8478L47.5095 92.3184Z" fill="#4B64A3"/>
<path d="M22.0505 62.2945C22.7975 62.7978 23.5064 63.3624 24.1369 64.0054C25.4074 65.301 26.3532 66.9161 26.8614 68.6614C27.5397 68.7973 28.2371 68.847 28.9287 68.8049C28.3039 69.7886 27.5894 70.7148 26.7965 71.5683C26.5194 70.9387 26.3016 70.2842 26.1488 69.6144C25.1132 69.9034 23.9898 69.7273 23.002 69.3063C22.0142 68.8834 21.1429 68.2308 20.3195 67.54C19.3202 66.7037 18.363 65.7928 17.6828 64.6828C17.1555 63.8217 15.9862 61.2535 17.4669 60.7961C18.9094 60.3502 20.9175 61.531 22.0505 62.2945Z" fill="#7294C4"/>
<path d="M33.5982 69.6642C34.0835 70.1024 34.5344 70.5808 34.9223 71.1071C35.7037 72.1692 36.2177 73.4265 36.403 74.7316C36.8768 74.9 37.3736 75.0053 37.8742 75.0474C37.3239 75.6904 36.7164 76.2817 36.0591 76.8137C35.9234 76.3334 35.8356 75.8397 35.7935 75.3421C35.0197 75.4435 34.2306 75.2024 33.5638 74.7967C32.897 74.3929 32.3372 73.8322 31.8156 73.2523C31.1832 72.55 30.5871 71.796 30.2126 70.9272C29.9222 70.2536 29.3452 68.2882 30.4553 68.1122C31.5386 67.9438 32.8626 68.9982 33.5982 69.6642Z" fill="#7294C4"/>
<path d="M40.4918 78.6834C41.1146 78.8843 41.7222 79.135 42.2916 79.4546C43.4379 80.1014 44.4219 81.0372 45.1269 82.151C45.6275 82.1089 46.1243 82.0017 46.5981 81.8333C46.3593 82.6447 46.0478 83.4351 45.6676 84.191C45.3486 83.8083 45.0639 83.3949 44.8231 82.9586C44.1602 83.3681 43.3405 83.4734 42.5667 83.3777C41.7929 83.282 41.0535 83.0026 40.3408 82.6887C39.4772 82.3079 38.6251 81.8659 37.9277 81.2286C37.387 80.7349 36.0553 79.179 36.9953 78.5628C37.9086 77.9619 39.5479 78.381 40.4918 78.6834Z" fill="#7294C4"/>
<path opacity="0.42" d="M56.2428 81.8439L47.5335 74.5551L38.7288 85.1098L47.4381 92.3985L56.2428 81.8439Z" fill="#47332F"/>
<path d="M12.3407 58.1763C12.3407 58.1763 10.73 57.3821 9.44419 58.7466C8.15834 60.111 9.21109 65.8731 25.8832 79.8259C42.5572 93.7786 47.884 93.5777 48.8775 92.3855C50.1098 90.9081 49.5386 89.7981 49.5386 89.7981C49.5386 89.7981 48.1381 93.2906 28.4759 76.8367C8.37806 60.0192 12.3407 58.1763 12.3407 58.1763Z" fill="#DDC55F"/>
<path d="M21.5346 47.718C21.5346 47.718 19.6679 45.8234 18.1987 47.5897C16.9988 49.0288 18.854 54.546 35.528 68.4987C54.4947 84.369 57.9568 83.1327 58.9503 81.9424C60.1368 80.5206 58.4841 79.1944 58.4841 79.1944C58.4841 79.1944 56.9136 83.3165 37.6717 66.3822C18.5063 49.5149 21.5346 47.718 21.5346 47.718Z" fill="#DDC55F"/>
<path d="M20.1073 47.0233C17.5127 49.0671 27.127 58.3064 38.1474 67.5285C49.8633 77.3323 58.3178 82.6907 59.0611 80.1761C60.0871 76.7066 22.2663 45.322 20.1073 47.0233Z" fill="#C9AE5A"/>
<path d="M21.9473 48.5657C20.1723 49.7216 29.1064 57.9447 39.1562 66.3554C49.8404 75.2962 57.309 80.4708 57.5459 78.7044C57.8746 76.2664 23.4242 47.6031 21.9473 48.5657Z" fill="#998347"/>
<path d="M38.7474 62.3098C37.2953 59.9617 34.8707 58.3619 32.5646 56.806C30.8431 55.6444 29.1369 54.4579 27.448 53.2447C27.0792 52.9786 25.759 51.8611 25.3023 52.1443C24.7349 52.4983 25.631 53.4016 25.9061 53.6599C27.3085 54.9727 28.8045 56.1803 30.3082 57.3744C31.6036 58.404 32.9047 59.424 34.2116 60.4382C35.4802 61.4199 36.7661 62.4036 38.1952 63.1097C38.3824 63.2016 38.606 63.2915 38.7779 63.2016C39.0626 63.0523 38.9289 62.6045 38.7474 62.3098ZM36.7852 61.2554C36.7393 61.2745 36.682 61.2611 36.6323 61.2477C35.7171 60.9798 33.1875 58.9876 32.7767 58.5322C32.6811 58.4269 32.5933 58.3064 32.5742 58.1705C32.555 58.0346 32.6257 57.8873 32.7576 57.8643C32.8264 57.8528 32.899 57.8739 32.9677 57.8968C34.0969 58.2643 34.9605 58.9953 35.8738 59.7397C36.3037 60.0899 36.768 60.4956 36.8597 61.0219C36.875 61.1099 36.8673 61.2209 36.7852 61.2554Z" fill="#C9AE5A"/>
<path opacity="0.48" d="M10.5581 60.1684C10.3422 60.5148 10.4836 61.0372 10.6918 61.4965C11.5707 63.4389 12.8852 65.2263 14.3048 66.9716C16.9644 70.244 19.7749 73.0533 22.9045 75.5889C23.1797 75.8109 23.5006 76.0406 23.8083 76.0387C24.2439 76.0387 24.3585 75.4722 23.3287 74.567C21.9435 73.3499 17.1746 68.9025 15.1207 66.2004C11.7771 61.8027 11.416 58.7886 10.5581 60.1684Z" fill="white"/>
<path opacity="0.48" d="M18.5024 49.2891C18.4642 49.5761 18.6419 49.9015 18.8177 50.1981C22.5969 56.5611 28.5064 61.9214 34.6319 66.5774C34.9032 66.7841 35.2605 67.0041 35.4936 66.8797C35.8432 66.6922 35.4382 66.0894 35.0618 65.7449C31.6609 62.6409 28.9497 60.3866 25.715 57.1256C24.4196 55.8205 22.5205 53.5662 21.3798 52.1462C20.7933 51.4171 20.2545 50.665 19.7673 49.8881C19.5323 49.513 18.6419 48.2748 18.5024 49.2891Z" fill="white"/>
<path opacity="0.2" d="M17.6408 54.6072C17.0294 55.6751 16.3072 56.6778 15.4894 57.5983C15.1283 58.0059 14.7443 58.4021 14.494 58.8862C14.2437 59.3704 14.1463 59.9675 14.3832 60.4574C14.6201 60.9473 15.2621 61.2477 15.7416 60.9913C15.9365 60.886 16.0817 60.71 16.2212 60.5377C17.2434 59.2804 18.2636 58.0251 19.2858 56.7678C19.8724 56.0463 20.4093 54.7833 19.7119 53.9298C18.9706 53.015 18.0649 53.8685 17.6408 54.6072Z" fill="white"/>
<path d="M18.1932 8.94844C15.7025 11.7876 10.6799 28.3522 27.4195 52.9655C44.7691 78.4773 63.1434 95.3917 70.8478 99.6095C78.3868 103.738 95.9752 97.4766 89.611 77.3826C85.4274 64.1726 71.1296 35.4013 53.1039 19.8334C34.6444 3.88943 23.9917 2.33676 18.1932 8.94844Z" fill="#FFA227"/>
<path d="M73.102 99.5048C67.1649 96.5057 63.1052 91.3859 58.2009 86.986C52.843 82.1785 48.489 76.6089 43.5668 71.5149C38.4181 66.1871 35.4376 59.5135 31.0574 53.6686C28.9201 50.8174 26.1939 48.5101 24.6093 45.1997C22.9427 41.7212 21.7035 38.1898 20.2203 34.6562C18.7198 31.0801 18.0971 28.1981 17.5161 24.6329C17.2411 22.9432 17.0307 21.3164 16.8484 19.5602C16.7191 18.3278 16.2131 17.4633 15.6974 16.5676C14.7869 24.1755 16.3775 36.8862 27.3933 53.0854C44.7429 78.5972 63.1172 95.5116 70.8209 99.7312C72.4122 100.602 74.45 101.011 76.6172 100.925C75.2384 100.34 73.7892 99.8515 73.102 99.5048Z" fill="#D88921"/>
<path opacity="0.6" d="M89.4055 77.4698C85.2219 64.2598 70.9242 35.4886 52.8984 19.9207C39.4394 8.29694 30.1321 4.32204 23.8298 5.58343C23.4205 6.30557 23.1392 7.26324 23.0141 8.55159C22.3051 15.8959 23.5097 25.7881 28.2613 30.9509C33.0633 36.1663 35.5102 40.1727 36.9101 47.3587C37.8125 51.9926 45.2671 55.4904 47.0321 59.874C49.7663 66.6673 54.7928 72.4527 61.4389 75.6934C66.8781 78.3452 69.7167 79.6915 72.9809 85.0653C75.2353 88.7775 77.1288 91.3188 79.5606 94.9901C80.7724 96.8209 82.1365 98.0697 83.6794 98.7331C89.0894 95.5149 92.9366 88.6233 89.4055 77.4698Z" fill="#F5892F"/>
<path d="M46.6629 24.8964C47.2433 35.0302 40.3456 47.7425 40.3456 47.7425C40.3456 47.7425 50.7279 41.2175 53.0529 33.692C54.2506 29.8174 54.6008 24.2027 54.704 21.1474C54.2473 20.7324 53.7877 20.3244 53.3268 19.9243C50.2452 17.2617 47.3816 15.0039 44.7218 13.1159C45.4792 16.101 46.4106 20.5061 46.6629 24.8964Z" fill="#E8B964"/>
<path d="M52.0667 33.0723C50.3985 38.4709 44.5846 43.3537 41.4321 45.6843C40.7472 47.146 40.2756 48.0143 40.2756 48.0143C40.2756 48.0143 50.6578 41.4893 52.9828 33.9638C54.1805 30.0892 54.5307 24.4745 54.6339 21.4191C54.3285 21.1414 54.021 20.8689 53.7144 20.599C53.6095 23.6681 53.2541 29.2266 52.0667 33.0723Z" fill="#C17829"/>
<path d="M59.2411 38.1542C58.0119 44.0872 49.0636 59.1564 49.0636 59.1564C49.0636 59.1564 59.7946 55.2157 62.9843 49.3315C64.8549 45.8809 66.4762 40.0317 67.4997 35.7813C64.9327 32.3103 62.2096 28.9767 59.3624 25.9148C59.8512 28.7896 60.2465 33.3074 59.2411 38.1542Z" fill="#E8B964"/>
<path d="M62.9785 49.3353C64.8491 45.8846 66.4704 40.0355 67.4939 35.785C67.2039 35.3932 66.9114 35.0024 66.6174 34.6151C65.5922 38.8356 64.0049 44.4829 62.1781 47.8503C59.8976 52.0583 53.7603 55.2725 50.4491 56.7617C49.6066 58.2374 49.0596 59.1609 49.0596 59.1609C49.0596 59.1609 59.7888 55.2195 62.9785 49.3353Z" fill="#C17829"/>
<path d="M70.0032 54.832C68.0404 63.662 61.3234 71.5673 61.3234 71.5673C61.3234 71.5673 71.563 68.1952 75.244 61.7424C76.7561 59.0896 77.8781 56.0168 78.6767 53.318C76.729 49.8217 74.5849 46.2501 72.2743 42.7282C71.6118 46.419 70.4526 52.8165 70.0032 54.832Z" fill="#E8B964"/>
<path d="M75.2646 61.7283C76.7767 59.0755 77.8986 56.0027 78.6973 53.3039C78.5158 52.9791 78.3326 52.6535 78.1476 52.3272C77.3683 54.8491 76.3113 57.623 74.9293 60.0483C72.3463 64.5767 66.5349 67.5865 63.2975 68.9802C62.1561 70.597 61.3439 71.5531 61.3439 71.5531C61.3439 71.5531 71.5835 68.1811 75.2646 61.7283Z" fill="#C17829"/>
<path d="M80.7872 71.5606C78.2679 76.4365 72.5099 81.393 72.5099 81.393C72.5099 81.393 81.0324 80.0144 83.9493 76.9741C85.1731 75.7002 86.4336 73.5601 87.4625 71.5688C86.3772 68.8122 85.0299 65.7152 83.4528 62.4163C82.9565 65.2148 82.0192 69.1754 80.7872 71.5606Z" fill="#E8B964"/>
<path d="M83.9441 76.9719C85.1679 75.698 86.4276 73.5597 87.4572 71.5666C87.3489 71.2896 87.236 71.0085 87.1204 70.7242C86.1295 72.6069 84.9495 74.5629 83.8013 75.7566C81.7399 77.905 76.8795 79.2232 74.205 79.8125C73.1948 80.7945 72.5029 81.3901 72.5029 81.3901C72.5029 81.3901 81.0271 80.0122 83.9441 76.9719Z" fill="#C17829"/>
<path opacity="0.5" d="M42.9652 22.9781C42.9997 21.2102 43.6376 19.7762 43.1471 18.1633C42.7772 16.9449 42.456 14.3349 41.6674 13.4415C39.422 10.3759 29.4468 5.08266 27.4635 9.91436C26.6864 11.8069 29.8395 17.0855 31.3881 18.4669C32.9032 19.8195 34.4297 20.9066 35.5139 22.5686C36.402 23.9307 38.3066 28.4154 40.1763 28.5067C41.9764 28.5954 42.9047 26.0308 42.9652 22.9781Z" fill="#F7BF31"/>
<path opacity="0.5" d="M57.0544 38.812C57.8376 36.637 57.5633 34.3507 57.6829 32.1052C57.7863 30.1462 59.2055 27.8968 58.202 26.0695L57.6346 25.5782C56.9431 25.1588 56.0189 24.2472 55.3166 25.2377C54.7588 26.0256 55.4078 27.4565 55.5996 28.2496C56.0897 30.2826 55.8375 32.4591 55.042 34.4291C54.3552 36.1292 52.869 38.0776 53.2183 40.0464C53.694 42.7472 56.5608 40.1805 57.0544 38.812Z" fill="#F7BF31"/>
<path opacity="0.5" d="M67.9674 54.4141C69.3044 52.4356 69.0837 48.9364 69.6342 46.625C69.9694 45.2139 72.2015 41.0269 70.1648 40.2405L69.9056 39.6205C69.1099 39.0507 68.5849 38.099 67.7254 38.9809C67.0247 39.6996 67.2525 40.9199 67.3257 41.7914C67.4977 43.8595 66.8827 45.7566 66.0901 47.6468C65.4237 49.2308 63.473 51.5969 63.8815 53.4267C64.3046 55.3147 66.8316 56.0957 67.9674 54.4141Z" fill="#F7BF31"/>
<path opacity="0.5" d="M79.5009 69.3736C80.2048 67.7015 80.4043 66.0143 81.0058 64.3194C81.662 62.4668 81.7078 60.5311 81.2158 58.9216L80.795 58.4907C79.813 56.1255 77.8649 56.5208 78.0629 59.147C78.2699 61.8935 77.6387 63.3802 76.1707 65.7294C75.2144 67.2628 73.8327 69.7215 75.6404 71.0844C77.661 72.6107 78.7275 71.2137 79.5009 69.3736Z" fill="#F7BF31"/>
<path opacity="0.5" d="M90.0208 86.5514C90.0309 83.1589 89.7172 79.639 88.4279 76.5375L88.4189 75.9346C88.1366 74.4228 87.0472 75.3275 86.6725 76.1829C86.2412 77.1661 86.1745 77.9614 85.3623 78.7907C84.5799 79.589 83.7685 79.8216 83.7557 81.0413C83.7458 81.8837 84.2231 82.9523 84.6218 83.7129C85.4384 85.2672 86.6408 86.7445 87.5766 88.1748C88.9974 90.3484 90.0135 88.5139 90.0208 86.5514Z" fill="#F7BF31"/>
<path d="M47.5952 17.6326C48.1261 18.3704 48.4743 19.201 48.8227 20.0358C49.0239 20.5189 49.774 20.206 49.5727 19.723C49.1971 18.8204 48.8084 17.9289 48.2345 17.1311C47.9297 16.7059 47.2903 17.2074 47.5952 17.6326Z" fill="#D3A55E"/>
<path d="M50.9983 21.4368C51.0336 22.0364 51.0021 22.7052 50.7847 23.2741C50.5968 23.764 51.3476 24.0734 51.5355 23.5835C51.8039 22.8803 51.848 22.0796 51.8039 21.3348C51.7722 20.8096 50.9661 20.9176 50.9983 21.4368Z" fill="#D3A55E"/>
<path d="M48.4107 21.6659C48.6136 22.1745 48.704 22.6935 48.7182 23.2404C48.7311 23.7659 49.5379 23.6561 49.5245 23.1366C49.5087 22.5205 49.3896 21.9226 49.1615 21.3512C48.9653 20.8662 48.2152 21.179 48.4107 21.6659Z" fill="#D3A55E"/>
<path d="M47.7192 25.9807C47.6077 26.7299 47.4787 27.4716 47.5203 28.2319C47.5495 28.7582 48.3556 28.6501 48.3267 28.1282C48.2887 27.4422 48.4223 26.7628 48.5253 26.087C48.601 25.568 47.7966 25.4625 47.7192 25.9807Z" fill="#D3A55E"/>
<path d="M50.6111 26.2266C50.6079 26.8826 50.4273 27.5212 50.3267 28.1668C50.2468 28.6861 51.0512 28.7916 51.1322 28.2749C51.2327 27.6292 51.4126 26.9924 51.4166 26.3347C51.4177 26.1126 51.3087 25.9101 51.067 25.8779C50.8703 25.8523 50.6115 26.0063 50.6111 26.2266Z" fill="#D3A55E"/>
<path d="M49.3433 29.8321C48.6998 30.4067 48.1416 31.1466 48.0537 32.0306C48.0014 32.5533 48.8068 32.6613 48.8592 32.1387C48.9266 31.4685 49.3553 30.9106 49.8427 30.4733C50.2318 30.1253 49.7357 29.4813 49.3433 29.8321Z" fill="#D3A55E"/>
<path d="M50.9514 32.5411C50.3877 32.7773 49.8435 33.026 49.4224 33.4831C49.0672 33.8685 49.7175 34.3555 50.0712 33.9737C50.3838 33.6347 50.848 33.4663 51.263 33.2916C51.7475 33.0903 51.4341 32.339 50.9514 32.5411Z" fill="#D3A55E"/>
<path d="M46.2968 35.6775C46.1935 36.3782 46.1156 37.073 46.1584 37.7818C46.1902 38.307 46.9962 38.199 46.9648 37.6781C46.9271 37.0401 47.0091 36.4136 47.103 35.7837C47.1787 35.2648 46.3725 35.1585 46.2968 35.6775Z" fill="#D3A55E"/>
<path d="M47.2621 37.9066C47.0688 38.1363 46.9053 38.3932 46.712 38.6229C46.5689 38.7928 46.6213 39.0648 46.7909 39.1932C46.9748 39.3318 47.2159 39.2827 47.3607 39.1134C47.5558 38.8845 47.7175 38.6268 47.9126 38.3979C48.0556 38.228 48.0032 37.956 47.8336 37.8276C47.6462 37.6875 47.4044 37.7384 47.2621 37.9066Z" fill="#D3A55E"/>
<path d="M44.7647 40.6493C44.5507 40.9617 44.2778 41.1928 43.978 41.4187C43.5595 41.7334 44.0589 42.3746 44.4782 42.0582C44.8303 41.7922 45.1631 41.5033 45.4124 41.1374C45.7093 40.7085 45.0614 40.2161 44.7647 40.6493Z" fill="#D3A55E"/>
<path d="M60.5984 29.6778C60.8302 30.255 60.9426 30.8395 60.992 31.4596C61.0348 31.9833 61.8401 31.877 61.7983 31.3559C61.743 30.6667 61.6072 30.0056 61.3492 29.3632C61.1519 28.8757 60.4029 29.191 60.5984 29.6778Z" fill="#D3A55E"/>
<path d="M63.3599 32.5265C63.5901 33.078 63.8327 33.6348 63.9606 34.2218C64.0701 34.7302 64.8767 34.6307 64.7669 34.1181C64.6251 33.4565 64.3691 32.8337 64.1107 32.2119C63.9094 31.7289 63.1593 32.0417 63.3599 32.5265Z" fill="#D3A55E"/>
<path d="M61.3448 34.2391C61.2553 34.8541 61.1667 35.4716 61.0173 36.0757C60.8915 36.5858 61.6999 36.6868 61.8228 36.1837C61.9721 35.5797 62.0599 34.9639 62.1503 34.3472C62.226 33.8282 61.4198 33.7219 61.3448 34.2391Z" fill="#D3A55E"/>
<path d="M63.941 36.3497C63.4086 36.6928 62.9538 37.1169 62.5026 37.557C62.1323 37.9193 62.6277 38.5651 63.0027 38.1965C63.4522 37.7556 63.9087 37.3323 64.4411 36.9891C64.8813 36.7065 64.3794 36.0663 63.941 36.3497Z" fill="#D3A55E"/>
<path d="M59.9495 40.923C59.7591 41.5845 59.5697 42.2485 59.312 42.8875C59.1153 43.3737 59.8662 43.6831 60.0629 43.1969C60.3205 42.5579 60.5099 41.8939 60.7003 41.2324C60.8448 40.7323 60.0955 40.4194 59.9495 40.923Z" fill="#D3A55E"/>
<path d="M61.8501 45.071C61.8489 45.0934 61.8452 45.1168 61.8404 45.1376C61.8223 45.2485 61.8662 45.0675 61.826 45.1814C61.7982 45.2611 61.761 45.3388 61.7244 45.4148C61.6544 45.5597 61.5774 45.7016 61.5136 45.8513C61.4266 46.0555 61.5312 46.2976 61.734 46.382C61.9405 46.4678 62.1774 46.3649 62.2644 46.1607C62.4009 45.8402 62.6162 45.5347 62.653 45.1801C62.6765 44.9592 62.5296 44.7531 62.3035 44.7233C62.0937 44.6943 61.8728 44.8519 61.8501 45.071Z" fill="#D3A55E"/>
<path d="M59.0414 48.4716C58.5631 48.8045 58.1821 49.2309 57.8826 49.7294C57.6148 50.1728 58.2605 50.6704 58.5313 50.22C58.7991 49.7766 59.1152 49.4099 59.5425 49.1135C59.9721 48.8119 59.4712 48.1742 59.0414 48.4716Z" fill="#D3A55E"/>
<path d="M56.9966 48.104C56.6816 48.6874 56.4211 49.2941 56.1687 49.9063C55.9684 50.3909 56.721 50.7011 56.9195 50.2157C57.1719 49.6035 57.4306 48.9961 57.7456 48.4127C57.9978 47.9522 57.243 47.6473 56.9966 48.104Z" fill="#D3A55E"/>
<path d="M72.6092 46.2614C72.7291 46.8574 72.8516 47.4525 72.9875 48.045C73.1038 48.5521 73.9129 48.4516 73.7939 47.9412C73.6562 47.348 73.5355 46.7537 73.4156 46.1576C73.3136 45.6462 72.507 45.7457 72.6092 46.2614Z" fill="#D3A55E"/>
<path d="M76.1735 52.6761C76.1698 52.7286 76.1634 52.7779 76.1544 52.8282C76.1492 52.8551 76.1268 52.937 76.1589 52.8176C76.1535 52.8402 76.1452 52.8596 76.1362 52.8807C76.129 52.9026 76.119 52.9212 76.11 52.9423C76.0742 53.0165 76.1623 52.8585 76.117 52.9308C76.0849 52.9816 76.0474 53.0259 76.009 53.072C75.866 53.242 75.9184 53.5139 76.088 53.6423C76.2719 53.781 76.513 53.7318 76.6578 53.5626C76.8481 53.34 76.9556 53.0779 76.9782 52.7859C76.9957 52.5645 76.8583 52.3604 76.6304 52.3299C76.4213 52.2991 76.191 52.4547 76.1735 52.6761Z" fill="#D3A55E"/>
<path d="M74.5911 51.1159C74.2488 51.5151 73.9152 51.918 73.7057 52.4049C73.4959 52.8876 74.2492 53.196 74.4565 52.7143C74.6375 52.2943 74.9446 51.9487 75.2399 51.6065C75.5815 51.2091 74.932 50.7203 74.5911 51.1159Z" fill="#D3A55E"/>
<path d="M72.0156 52.594C71.9385 52.9896 71.8606 53.387 71.7834 53.7827C71.6819 54.2989 72.4888 54.4035 72.5889 53.8907C72.666 53.4951 72.7439 53.0977 72.821 52.702C72.9226 52.1857 72.1156 52.0812 72.0156 52.594Z" fill="#D3A55E"/>
<path d="M70.6043 58.7302C70.1266 59.3983 69.8463 60.1733 69.6822 60.9729C69.5772 61.4877 70.3824 61.5914 70.4877 61.0809C70.6241 60.4193 70.8582 59.7723 71.253 59.2208C71.5577 58.7931 70.9115 58.3015 70.6043 58.7302Z" fill="#D3A55E"/>
<path d="M73.7547 56.0243C73.5787 56.4715 73.5343 56.956 73.3584 57.4031C73.167 57.8915 73.9178 58.2009 74.1092 57.7125C74.2851 57.2654 74.3295 56.7809 74.5055 56.3338C74.6986 55.8461 73.9461 55.5359 73.7547 56.0243Z" fill="#D3A55E"/>
<path d="M70.2379 62.8424C69.7801 63.2881 69.3003 63.7077 68.8425 64.1534C68.4705 64.5149 68.9666 65.1589 69.3427 64.7928C69.8004 64.3472 70.2803 63.9275 70.738 63.4819C71.1111 63.1228 70.6157 62.4771 70.2379 62.8424Z" fill="#D3A55E"/>
<path d="M67.5949 64.0692C67.2237 64.3458 66.855 64.6214 66.4839 64.8981C66.0635 65.212 66.5637 65.8515 66.984 65.5375C67.3552 65.2609 67.7239 64.9853 68.0951 64.7087C68.5164 64.3972 68.017 63.756 67.5949 64.0692Z" fill="#D3A55E"/>
<path d="M83.5406 66.6908C83.5457 67.342 83.5004 67.9945 83.5064 68.6482C83.5116 69.1725 84.3167 69.0619 84.3128 68.5444C84.3077 67.8933 84.3531 67.2407 84.3488 66.5878C84.3419 66.0628 83.536 66.1751 83.5406 66.6908Z" fill="#D3A55E"/>
<path d="M85.3404 70.5297C84.8912 71.1454 84.4784 71.7829 84.1094 72.4494C83.8554 72.9091 84.6092 73.2115 84.8602 72.7589C85.1962 72.1552 85.581 71.5786 85.9884 71.022C86.2983 70.5966 85.6503 70.1043 85.3404 70.5297Z" fill="#D3A55E"/>
<path d="M82.2926 71.8732C82.0744 72.3855 81.7529 72.8477 81.3581 73.2432C81.2023 73.3994 81.1396 73.6244 81.2873 73.8142C81.4107 73.9728 81.7017 74.0406 81.8583 73.8826C82.3548 73.3849 82.765 72.8315 83.0417 72.1819C83.2497 71.6984 82.4981 71.3908 82.2926 71.8732Z" fill="#D3A55E"/>
<path d="M79.6113 76.0374C79.3194 76.2791 78.9585 76.4145 78.6119 76.5602C78.1292 76.7622 78.4408 77.5128 78.9236 77.3107C79.3353 77.1387 79.7642 76.9657 80.1115 76.6768C80.5152 76.3433 80.0166 75.7003 79.6113 76.0374Z" fill="#D3A55E"/>
<path d="M82.6575 74.6245C82.0215 74.8986 81.461 75.2735 80.9368 75.7241C80.5404 76.0649 81.039 76.7079 81.437 76.3636C81.9083 75.9591 82.3991 75.6211 82.9699 75.3733C83.4516 75.1687 83.1399 74.4182 82.6575 74.6245Z" fill="#D3A55E"/>
<path d="M50.5782 18.9906C50.3191 19.6478 50.2198 20.3294 50.2237 21.032C50.2243 21.2548 50.4785 21.4089 50.6783 21.3837C50.9179 21.3526 51.0315 21.1493 51.0301 20.9283C51.0272 20.3696 51.1256 19.8166 51.3298 19.2983C51.5222 18.8124 50.7714 18.503 50.5782 18.9906Z" fill="#FFC871"/>
<path d="M46.576 19.8838C46.6911 20.1596 46.8062 20.4354 46.9196 20.7104C47.1209 21.1934 47.871 20.8806 47.6697 20.3975C47.5545 20.1218 47.4394 19.846 47.326 19.571C47.1255 19.0862 46.3747 19.4008 46.576 19.8838Z" fill="#FFC871"/>
<path d="M47.2555 23.8467C47.3134 23.9837 47.3706 24.1225 47.4278 24.2612C47.5129 24.466 47.7552 24.565 47.9599 24.4795C48.1645 24.3941 48.2637 24.1514 48.1786 23.9466C48.1206 23.8096 48.0634 23.6708 48.0063 23.5321C47.9211 23.3273 47.6788 23.2283 47.4742 23.3137C47.2705 23.4017 47.1696 23.6437 47.2555 23.8467Z" fill="#FFC871"/>
<path d="M49.5186 24.896C49.4217 25.1479 49.3921 25.4515 49.4846 25.7072C49.5597 25.916 49.8178 26.0073 50.0167 25.9256C50.2288 25.8371 50.3105 25.6014 50.2354 25.3926C50.2167 25.3389 50.2554 25.5114 50.2437 25.4024C50.2419 25.3871 50.2409 25.37 50.2408 25.3554C50.2453 25.4717 50.2416 25.3828 50.2426 25.3562C50.2455 25.32 50.2503 25.2846 50.2575 25.2481C50.2607 25.2308 50.2639 25.2134 50.2689 25.1968C50.2438 25.3047 50.2615 25.229 50.272 25.2044C50.3519 24.9971 50.2597 24.7602 50.0515 24.6737C49.8479 24.5911 49.5986 24.6887 49.5186 24.896Z" fill="#FFC871"/>
<path d="M51.8939 24.356C51.811 24.7846 51.7367 25.2126 51.7048 25.6483C51.6652 26.1702 52.4699 26.28 52.5102 25.7563C52.5421 25.3206 52.6165 24.8926 52.6993 24.464C52.8009 23.9477 51.9939 23.8432 51.8939 24.356Z" fill="#FFC871"/>
<path d="M51.8733 28.6363C51.5087 28.8097 51.3164 29.1978 51.2816 29.5866C51.2624 29.8072 51.4033 30.0128 51.6294 30.0426C51.8418 30.0706 52.0678 29.9152 52.0871 29.6946C52.0902 29.6481 52.0977 29.6014 52.1069 29.5554C52.1179 29.5101 52.1186 29.5084 52.1084 29.5518C52.1191 29.5169 52.1326 29.4852 52.1469 29.4518C52.1684 29.411 52.1674 29.4085 52.1441 29.4485C52.1566 29.4289 52.1684 29.411 52.1827 29.3921C52.2122 29.3569 52.2097 29.3579 52.1744 29.3969C52.2473 29.3281 52.0949 29.4275 52.1849 29.3868C52.3848 29.2931 52.4918 29.0662 52.4036 28.8539C52.3208 28.6584 52.0731 28.5425 51.8733 28.6363Z" fill="#FFC871"/>
<path d="M49.0972 28.835C48.9937 29.078 48.8092 29.3114 48.6412 29.5643C48.517 29.7486 48.5362 29.9959 48.7202 30.1346C48.8897 30.263 49.1657 30.2391 49.2899 30.0549C49.4887 29.7589 49.7088 29.4762 49.8498 29.1452C50.0543 28.6602 49.3027 28.3526 49.0972 28.835Z" fill="#FFC871"/>
<path d="M47.0457 29.9019C46.9515 30.4108 46.947 30.9331 47.1333 31.4222C47.3205 31.9139 48.0696 31.5985 47.8833 31.1094C47.748 30.7543 47.7825 30.3759 47.8512 30.0099C47.9467 29.4931 47.1415 29.3894 47.0457 29.9019Z" fill="#FFC871"/>
<path d="M60.4853 32.0301C60.6145 32.341 60.7445 32.6501 60.872 32.9603C61.0733 33.4433 61.8233 33.1304 61.622 32.6474C61.4928 32.3365 61.3628 32.0274 61.2353 31.7172C61.0348 31.2324 60.2847 31.5453 60.4853 32.0301Z" fill="#FFC871"/>
<path d="M62.3774 32.3514C62.3463 32.9705 62.467 33.5648 62.6978 34.1394C62.8933 34.6262 63.6416 34.3126 63.4478 33.8266C63.2735 33.3924 63.1601 32.9323 63.1821 32.4612C63.2079 31.9376 62.4032 31.8278 62.3774 32.3514Z" fill="#FFC871"/>
<path d="M62.2733 35.3065C62.2494 35.5771 62.1422 35.8289 62.1183 36.0995C62.099 36.3202 62.2399 36.5258 62.4661 36.5555C62.6784 36.5836 62.9027 36.4274 62.9219 36.2068C62.9458 35.9362 63.0531 35.6844 63.077 35.4138C63.0962 35.1932 62.9553 34.9876 62.7274 34.957C62.5186 34.9305 62.2943 35.0866 62.2733 35.3065Z" fill="#FFC871"/>
<path d="M64.0631 38.4422C64.0316 38.8428 63.9641 39.2841 63.746 39.6301C63.6272 39.8166 63.6383 40.0585 63.825 40.2004C63.9919 40.3256 64.2751 40.3089 64.3948 40.1207C64.6926 39.6506 64.8255 39.0998 64.8703 38.551C64.9098 38.0291 64.1051 37.9193 64.0631 38.4422Z" fill="#FFC871"/>
<path d="M62.7266 39.2687C62.3871 39.4174 62.2235 39.7138 62.1955 40.0721C62.178 40.2935 62.3153 40.4976 62.545 40.5288C62.7548 40.5579 62.986 40.4005 63.0016 40.1784C63.0051 40.1362 63.0093 40.0922 63.017 40.0497C63.0205 40.0221 63.0457 39.9434 63.01 40.0613C63.0165 40.0412 63.0247 40.0218 63.033 40.0024C63.063 39.932 62.9782 40.0872 63.0215 40.0246C63.0413 39.9976 63.0919 39.9568 63.0019 40.0412C63.0165 40.0266 63.0355 40.016 63.0528 40.0046C62.9483 40.0745 63.0099 40.0321 63.0415 40.0165C63.2434 39.9277 63.3464 39.6908 63.2602 39.4835C63.1738 39.2866 62.9285 39.18 62.7266 39.2687Z" fill="#FFC871"/>
<path d="M60.3476 38.3988C60.5489 38.8819 61.299 38.569 61.0977 38.086C60.8954 37.6004 60.1446 37.9151 60.3476 38.3988Z" fill="#FFC871"/>
<path d="M60.3181 38.2927C60.3381 38.5966 60.3078 38.8873 60.2488 39.1867C60.1507 39.7045 60.9559 39.8082 61.0542 39.2947C61.1236 38.927 61.1496 38.5637 61.1244 38.1889C61.1085 37.9679 60.8807 37.8105 60.6699 37.8372C60.4413 37.8668 60.3039 38.0724 60.3181 38.2927Z" fill="#FFC871"/>
<path d="M61.6585 42.5225C61.3063 42.7885 60.9735 43.0773 60.7242 43.4433C60.4283 43.8747 61.0745 44.3663 61.3729 43.9339C61.587 43.6215 61.8599 43.3904 62.1596 43.1645C62.5789 42.848 62.0795 42.2068 61.6585 42.5225Z" fill="#FFC871"/>
<path d="M58.1759 44.0239C57.9163 44.4188 57.7523 44.8232 57.7787 45.3025C57.7904 45.5237 58.0242 45.6816 58.2332 45.6541C58.4643 45.6236 58.5985 45.4208 58.5851 45.1987C58.5806 45.1116 58.599 44.9758 58.6312 44.8856C58.6807 44.7402 58.747 44.6333 58.8253 44.5127C58.9477 44.3277 58.9313 44.0836 58.7464 43.9424C58.5778 43.8165 58.2973 43.8364 58.1759 44.0239Z" fill="#FFC871"/>
<path d="M60.116 45.8217C59.7193 45.9877 59.358 46.1874 59.1049 46.5476C58.8027 46.9742 59.449 47.4658 59.7537 47.0382C59.9264 46.7935 60.1614 46.6856 60.4294 46.573C60.9129 46.3692 60.6013 45.6187 60.116 45.8217Z" fill="#FFC871"/>
<path d="M71.9993 48.5809C72.0959 49.0755 72.1582 49.5388 72.0426 50.0345C71.9219 50.5469 72.7304 50.6479 72.848 50.1426C72.9778 49.5843 72.9154 49.0335 72.8056 48.4771C72.7044 47.9639 71.8971 48.0651 71.9993 48.5809Z" fill="#FFC871"/>
<path d="M74.4378 48.6481C74.559 48.939 74.6839 49.2356 74.634 49.5575C74.5515 50.0778 75.3567 50.1815 75.4394 49.6655C75.5132 49.1998 75.3649 48.7581 75.1878 48.3353C74.9855 47.8497 74.2365 48.1651 74.4378 48.6481Z" fill="#FFC871"/>
<path d="M73.3506 49.9719C73.2679 50.361 73.0552 50.7093 72.971 51.1019C72.9242 51.3191 73.1125 51.5303 73.3206 51.5586C73.552 51.5907 73.7304 51.4254 73.7765 51.2099C73.8609 50.8216 74.0719 50.4725 74.1561 50.0799C74.2029 49.8627 74.0146 49.6515 73.8083 49.6239C73.5751 49.5911 73.3967 49.7564 73.3506 49.9719Z" fill="#FFC871"/>
<path d="M76.0458 51.1136C75.7574 51.5566 75.5716 52.0515 75.529 52.5804C75.4852 53.1026 76.2906 53.2106 76.3345 52.6885C76.3674 52.299 76.4823 51.9319 76.6945 51.6042C76.9781 51.1675 76.3327 50.6742 76.0458 51.1136Z" fill="#FFC871"/>
<path d="M74.239 53.7075C74.5015 54.3393 74.756 54.9656 74.8223 55.6533C74.8736 56.1764 75.679 56.0702 75.6287 55.5496C75.5557 54.7946 75.2792 54.0882 74.9898 53.3929C74.7867 52.9091 74.0384 53.2227 74.239 53.7075Z" fill="#FFC871"/>
<path d="M74.3402 57.7214C74.2067 58.0348 74.0112 58.3135 73.8237 58.5976C73.7013 58.7826 73.717 59.0285 73.9026 59.1679C74.0705 59.2955 74.3482 59.2724 74.4724 59.0882C74.6977 58.7494 74.9305 58.4076 75.0927 58.0316C75.299 57.5474 74.5474 57.2398 74.3402 57.7214Z" fill="#FFC871"/>
<path d="M72.7401 54.7497C72.6283 55.012 72.4666 55.2552 72.2546 55.4457C72.0897 55.5938 72.0417 55.8334 72.1838 56.0166C72.3128 56.1818 72.5892 56.2351 72.7548 56.0851C73.0723 55.7981 73.3219 55.451 73.4916 55.0573C73.6989 54.5757 72.9473 54.268 72.7401 54.7497Z" fill="#FFC871"/>
<path d="M70.837 55.4242C70.6758 55.8028 70.4746 56.1435 70.3887 56.55C70.3419 56.7671 70.5302 56.9784 70.7365 57.0059C70.9679 57.038 71.148 56.8734 71.1941 56.658C71.2633 56.3297 71.4598 56.039 71.5886 55.7319C71.7941 55.2495 71.0425 54.9418 70.837 55.4242Z" fill="#FFC871"/>
<path d="M71.55 57.885C71.5325 58.1355 71.5159 58.3842 71.4985 58.6348C71.4835 58.8551 71.6159 59.0613 71.848 59.0915C72.0561 59.1198 72.289 58.9632 72.3039 58.7428C72.3213 58.4923 72.338 58.2435 72.3554 57.993C72.3704 57.7726 72.238 57.5665 72.0058 57.5363C71.7995 57.5087 71.5649 57.6646 71.55 57.885Z" fill="#FFC871"/>
<path d="M71.8445 60.4649C71.7408 60.7182 71.6556 60.9523 71.4921 61.1509C71.3508 61.3217 71.3997 61.5921 71.571 61.7212C71.7532 61.8591 71.9995 61.8122 72.1408 61.6415C72.3499 61.3895 72.4739 61.0741 72.5971 60.7751C72.6823 60.5701 72.5813 60.3294 72.3766 60.2443C72.1702 60.1585 71.928 60.2592 71.8445 60.4649Z" fill="#FFC871"/>
<path d="M69.4075 58.6926C69.3165 58.9305 69.3021 59.1885 69.2865 59.4398C69.2715 59.6602 69.4056 59.867 69.6361 59.8965C69.8441 59.9249 70.077 59.7682 70.0919 59.5478C70.0995 59.4325 70.1081 59.3197 70.121 59.2066C70.1257 59.1566 70.1346 59.1063 70.1436 59.0561C70.1553 59.009 70.1528 59.0101 70.1403 59.0588C70.1461 59.0405 70.1526 59.0204 70.1601 59.0027C70.2383 58.7948 70.1478 58.5586 69.9396 58.472C69.7385 58.3884 69.4857 58.4846 69.4075 58.6926Z" fill="#FFC871"/>
<path d="M83.343 64.4683C83.357 64.7281 83.2568 64.9537 83.1553 65.2017C82.9568 65.6871 83.7076 65.9965 83.9061 65.5111C84.0591 65.1374 84.1706 64.773 84.1486 64.3664C84.137 64.1451 83.9031 63.9872 83.6941 64.0147C83.462 64.0427 83.3314 64.2471 83.343 64.4683Z" fill="#FFC871"/>
<path d="M82.6279 68.1804C82.6002 68.6304 82.613 69.083 82.5854 69.5331C82.5526 70.0537 83.3573 70.1635 83.3908 69.6411C83.4184 69.1911 83.4057 68.7384 83.4333 68.2884C83.4661 67.7678 82.6614 67.658 82.6279 68.1804Z" fill="#FFC871"/>
<path d="M84.3054 70.4341C84.5838 70.2241 84.8462 70.003 85.1994 69.9392C85.7144 69.8466 85.6142 69.0385 85.0967 69.1321C84.5902 69.2242 84.209 69.4903 83.8034 69.7939C83.3856 70.1069 83.885 70.7481 84.3054 70.4341Z" fill="#FFC871"/>
<path d="M100.99 30.1024C99.3695 24.0073 96.6698 24.3766 93.4618 21.3071C90.2558 18.2375 89.4552 2.07062 89.4552 2.07062L80.0034 3.1021L79.9996 3.07148L70.4006 4.08765C70.4006 4.08765 73.043 20.0574 70.5592 23.7374C68.0754 27.4175 65.3585 27.6337 65.0662 33.9336C64.7738 40.2335 67.9455 82.4074 70.6223 86.5984C73.299 90.7894 104.992 87.4156 106.72 82.75C108.445 78.0844 102.61 36.1975 100.99 30.1024Z" fill="#88B4D3"/>
<path d="M97.6307 31.2659C96.2092 25.5746 93.6375 26.2119 90.9111 23.3222C88.1827 20.4325 87.3115 5.08661 87.3115 5.08661L79.7149 5.91907L79.711 5.89036L73.1461 6.58503C73.1461 6.58503 75.521 21.4812 73.4671 24.8857C71.4132 28.2901 67.6283 28.6231 67.4429 34.4867C67.2576 40.3502 70.3299 79.6575 72.6226 83.5863C74.9135 87.5151 101.548 84.6771 102.956 80.3502C104.364 76.0234 99.0522 36.9572 97.6307 31.2659Z" fill="#9ED2F2"/>
<path d="M92.5581 9.5436L68.6982 12.0678L67.9397 4.86844C67.7888 3.42935 68.8301 2.14143 70.2649 1.98834L88.9241 0.013405C90.3609 -0.137777 91.6467 0.905186 91.7995 2.34237L92.5581 9.5436Z" fill="#E5181F"/>
<path d="M88.9241 0.0153112L84.0291 0.532008C85.4658 0.380826 86.7517 1.42187 86.9045 2.86097L87.6631 10.0603L92.5581 9.54167L91.7976 2.34236C91.6467 0.905178 90.3608 -0.137784 88.9241 0.0153112Z" fill="#AA131F"/>
<path d="M92.6896 10.7657L68.8299 13.2913L69.11 15.9462L92.9697 13.4206L92.6896 10.7657Z" fill="#E5181F"/>
<path opacity="0.27" d="M71.8278 2.69641C71.1534 2.79784 70.3987 3.00069 70.0777 3.6035C69.944 3.85228 69.9058 4.14125 69.8905 4.42448C69.8465 5.29138 70.0223 6.16976 70.393 6.95438C70.6069 7.40601 71.0082 7.88635 71.4992 7.7964C71.9444 7.71603 72.1737 7.2089 72.2252 6.75727C72.2787 6.30755 72.2386 5.82339 72.4602 5.42916C72.6876 5.02538 73.1404 4.80913 73.5741 4.64838C74.5982 4.27138 75.6892 4.07044 76.7802 4.05896C77.2215 4.05513 77.6801 4.0781 78.087 3.90778C78.494 3.73746 78.8341 3.30305 78.7252 2.87439C78.6468 2.56819 78.3641 2.35195 78.0603 2.26392C77.7584 2.17589 77.4374 2.19694 77.1241 2.21799C75.372 2.33472 73.5684 2.43424 71.8278 2.69641Z" fill="white"/>
<path d="M92.6928 10.7659L87.8646 11.277L88.1447 13.9319L92.9729 13.4209L92.6928 10.7659Z" fill="#AA131F"/>
<path d="M67.101 37.9198C68.4212 54.9689 70.9184 79.933 72.5997 83.3739C74.9937 88.271 101.626 85.4292 102.933 80.1321C103.85 76.4138 101.028 51.5166 98.7217 34.5728L67.101 37.9198Z" fill="#EAC113"/>
<path d="M98.7753 34.5689L91.9486 35.2923C93.9892 51.3118 95.9781 70.2574 95.1871 73.4628C94.2509 77.2596 80.2995 79.7952 71.5928 79.1235C71.9673 81.2114 72.3265 82.7002 72.6551 83.37C75.0491 88.2672 101.681 85.4253 102.988 80.1282C103.901 76.408 101.079 51.5109 98.7753 34.5689Z" fill="#E8AC15"/>
<path d="M67.0799 37.7208C67.1124 40.5894 75.4981 39.0642 83.1636 38.36C90.8271 37.6576 99.0236 36.4501 98.7007 34.3737C98.3779 32.2974 90.4984 33.5738 82.6936 34.1824C74.8887 34.7928 67.057 35.8148 67.0799 37.7208Z" fill="#FFD217"/>
<path opacity="0.46" d="M70.4541 34.1154C70.3318 35.7535 70.3872 37.405 70.6222 39.0298C70.7407 39.8488 70.9222 40.6966 71.4495 41.3338C71.9768 41.9692 72.9513 42.306 73.6544 41.8735C74.2428 41.5118 74.4568 40.7636 74.5275 40.0765C74.7109 38.2796 74.239 36.4348 74.6479 34.6761C75.1141 32.6686 79.4206 26.8989 74.7797 27.8232C71.8641 28.3992 70.6604 31.352 70.4541 34.1154Z" fill="white"/>
<path d="M84.4589 77.4414L90.0112 91.243L112.012 25.1479L105.309 14.8063L84.4589 77.4414Z" fill="#70BBF2"/>
<path d="M139.298 32.9308L112.012 25.1479L90.0112 91.243L117.618 98.0615L139.298 32.9308Z" fill="#5D98A8"/>
<path d="M105.31 14.8063L112.012 25.1479L113.611 14.037L105.31 14.8063Z" fill="#5D98A8"/>
<path d="M138.285 13.8073L115.992 6.8855L113.611 14.037L136.162 21.5673L138.285 13.8073Z" fill="#5D98A8"/>
<path d="M114.996 39.8221C115.35 39.2767 115.671 39.1484 116.282 39.3494L116.829 39.5274C117.492 39.7436 117.696 40.2852 117.494 40.9071L116.076 45.2608C115.887 45.8406 115.449 46.0148 114.93 45.8444C114.41 45.6741 114.158 45.2761 114.347 44.6962L115.304 41.7549L115.287 41.7491L113.349 44.7345C113.107 45.1115 112.872 45.1727 112.411 45.0235C111.949 44.8723 111.798 44.6828 111.823 44.2369L112.014 40.6832L111.997 40.6775L111.039 43.6188C110.85 44.1987 110.413 44.3728 109.893 44.2025C109.373 44.0322 109.121 43.6341 109.31 43.0543L110.728 38.7006C110.931 38.0787 111.414 37.7629 112.077 37.9792L112.623 38.1572C113.237 38.3562 113.42 38.649 113.384 39.2977L113.204 42.5586L113.221 42.5644L114.996 39.8221Z" fill="white"/>
<path d="M118.741 41.3051C118.951 40.6583 119.45 40.3827 120.046 40.5779C120.642 40.7731 120.883 41.2879 120.673 41.9348L119.311 46.12C119.1 46.7668 118.602 47.0424 118.006 46.8472C117.41 46.652 117.169 46.1372 117.379 45.4904L118.741 41.3051Z" fill="white"/>
<path d="M124.821 47.2223C125.316 47.383 125.558 47.7792 125.398 48.2748C125.237 48.7704 124.807 48.9465 124.313 48.7858L121.46 47.8538C120.713 47.6107 120.472 47.1495 120.736 46.3439L122.027 42.3768C122.238 41.73 122.736 41.4544 123.332 41.6496C123.929 41.8448 124.169 42.3596 123.959 43.0064L122.801 46.562L124.821 47.2223Z" fill="white"/>
<path d="M131.227 44.8608C131.739 44.5718 131.976 44.4723 132.293 44.5776C132.813 44.7479 133.002 45.3105 132.884 45.6722C132.794 45.9497 132.624 46.0703 132.287 46.2501L131.055 46.9544L131.777 49.7292C131.829 49.9417 131.852 50.1541 131.785 50.3646C131.621 50.8679 131.017 51.0994 130.513 50.9349C130.211 50.8354 129.96 50.6612 129.855 50.2459L129.202 47.7734L128.462 48.1925L128.191 49.025C127.981 49.6718 127.482 49.9474 126.886 49.7522C126.29 49.557 126.049 49.0422 126.259 48.3954L127.622 44.2101C127.832 43.5633 128.331 43.2877 128.927 43.4829C129.523 43.6781 129.764 44.1929 129.553 44.8398L129.166 46.0339L131.227 44.8608Z" fill="white"/>
<path d="M136.386 20.7023L113.611 14.037L112.012 25.1479L139.298 32.9308L136.386 20.7023Z" fill="#70BBF2"/>
<path d="M130.104 55.2694C129.939 55.809 129.368 56.1133 128.829 55.9468L108.191 49.6163C107.652 49.4517 107.348 48.8795 107.514 48.3399C107.679 47.8002 108.25 47.4959 108.789 47.6624L129.427 53.9929C129.966 54.1575 130.27 54.7278 130.104 55.2694Z" fill="white"/>
<path d="M121.112 36.1478C120.31 37.1333 117.318 39.2633 120.342 39.9962C122.427 40.5014 121.657 37.2615 121.143 36.3621L121.112 36.1478Z" fill="white"/>
<path d="M120.982 78.3274L120.973 78.3542C120.629 77.893 120.979 76.1152 119.916 76.4099C119.8 76.2186 119.681 76.0501 119.649 75.9985C119.414 75.6253 119.148 75.2808 118.877 74.9345C118.672 74.6723 118.512 74.3546 118.319 74.079C118.334 73.9068 118.336 73.7633 118.321 73.6561C118.094 72.1673 116.603 71.5281 115.27 71.2257C114.011 70.9406 110.117 69.6278 110.222 69.3006C110.382 68.7934 110.514 68.2078 110.575 67.6184C110.961 67.5342 111.343 67.362 111.72 67.0558C112.388 66.5142 113.263 65.1421 112.694 64.3096C112.222 65.1459 111.37 65.5172 110.419 65.5478C110.189 64.8684 109.482 64.323 108.705 64.1431C108.019 63.9843 107.31 63.7987 106.716 64.0666C105.898 63.4198 105.642 62.861 105.648 61.9194C104.759 62.7328 104.364 64.7842 105.329 65.4961C104.503 67.4538 103.407 69.4173 104.836 70.2765C105.864 70.8966 106.446 70.9903 106.446 70.9903C106.393 71.618 104.859 77.0051 104.924 77.5486C104.985 78.0595 106.433 78.5609 107.081 78.381C107.627 78.2298 108.118 74.8579 108.537 75.0742C109.689 75.6731 114.077 76.8022 114.664 77.3725C114.842 77.5467 113.858 80.1225 113.858 80.5186C114.337 80.8669 115.549 81.2803 116.154 81.2343C116.527 80.2603 117.683 77.0682 118.143 75.0799C118.52 75.6751 119.064 76.2913 119.479 76.6951C119.322 76.9266 119.341 77.2443 119.53 77.4797C119.817 77.8337 120.291 77.9083 120.644 78.1265C120.774 78.2069 120.9 78.3179 121.017 78.4155C121.011 78.381 120.994 78.3581 120.982 78.3274Z" fill="white"/>
<path d="M89.8928 63.0026C91.7556 64.4455 91.6811 65.942 93.8649 67.9744C94.1229 68.2136 93.3663 68.5676 93.2287 68.893C93.0338 69.3522 92.0193 68.6461 91.5206 68.6537C91.0219 68.6614 90.5424 68.4739 90.0838 68.2787C87.5752 67.2032 83.8781 65.4885 82.5388 62.9548C82.2044 62.3213 79.776 58.4538 80.697 58.4365C83.3202 58.3925 85.0207 61.1081 85.7792 61.4583C87.4281 62.2256 87.9745 61.5195 89.8928 63.0026Z" fill="#AD3E3B"/>
<path d="M85.634 64.6943C82.8235 62.8648 82.0306 56.1324 75.9815 57.3878C69.9325 58.6432 63.5472 68.204 63.1594 74.0121C62.7715 79.8201 68.3677 85.1842 72.4794 88.0031C77.2808 91.2927 86.0008 93.8016 92.1034 86.4377C97.4416 79.9962 99.8509 72.6916 94.1229 68.1753C90.6322 65.4253 90.2367 67.6911 85.634 64.6943Z" fill="#D34D46"/>
<path d="M96.7882 71.5492C96.2838 74.8024 94.3216 78.3179 91.5951 81.6075C85.4926 88.9714 76.7725 86.4626 71.9712 83.1729C68.8167 81.0105 64.7872 77.3477 63.2587 73.1375C63.211 73.438 63.1785 73.7308 63.1594 74.014C62.7715 79.8221 68.3677 85.1861 72.4794 88.005C77.2808 91.2946 86.0008 93.8035 92.1034 86.4396C96.259 81.4219 98.6396 75.8856 96.7882 71.5492Z" fill="#AD3E3B"/>
<path opacity="0.27" d="M75.6281 61.4601C74.1378 61.8505 72.8175 62.7844 71.8317 63.9709C71.2585 64.6637 70.777 65.477 70.6948 66.3726C70.6127 67.2682 71.0082 68.2499 71.8126 68.6537C72.0189 68.7571 72.2501 68.8202 72.4794 68.7972C72.8023 68.7628 73.0793 68.5619 73.3391 68.3686C74.5619 67.4596 75.8554 66.5257 77.3629 66.3056C78.0832 66.2004 78.8207 66.2654 79.5372 66.1353C80.2537 66.0052 80.9893 65.6167 81.2396 64.9335C81.6255 63.8771 80.6931 62.4897 79.8448 61.9309C78.6717 61.1597 76.9368 61.1176 75.6281 61.4601Z" fill="white"/>
<path opacity="0.27" d="M70.3566 69.6106C69.8197 69.224 68.9924 69.4326 68.6065 69.9703C68.2205 70.5081 68.2435 71.2717 68.5587 71.8553C68.725 72.1634 68.9982 72.4486 69.3459 72.4849C69.5981 72.5117 69.8446 72.4007 70.0567 72.261C70.4483 72.0027 70.7693 71.62 70.8935 71.1683C71.0196 70.7167 70.9279 70.1943 70.6088 69.8517L70.3566 69.6106Z" fill="white"/>
<path d="M84.9271 64.0991C84.9271 64.0991 87.7471 60.9798 89.5393 59.7531C91.3334 58.5265 95.0419 57.296 95.0419 57.296L95.7851 58.8461C95.7851 58.8461 92.9211 59.1178 90.5653 60.6181C88.9184 61.6649 85.6321 64.6943 85.6321 64.6943L84.9271 64.0991Z" fill="#60443E"/>
<path d="M90.5672 60.6181C90.5672 60.6181 95.6743 59.9215 98.6262 62.0495C102.579 64.8971 104.809 68.3188 104.809 68.3188C104.809 68.3188 99.5128 70.154 96.0087 68.2939C92.5046 66.4338 89.4304 61.4391 89.4304 61.4391L90.5672 60.6181Z" fill="#436B49"/>
<path opacity="0.27" d="M96.2589 62.8418C96.1844 62.8591 96.108 62.882 96.0602 62.9394C95.9972 63.016 95.9953 63.1346 96.0163 63.2437C96.0851 63.6092 96.3468 63.9384 96.6487 64.1719C96.9506 64.4053 97.2926 64.5642 97.6231 64.7402C98.395 65.1517 99.1249 65.676 99.7783 66.2903C100.009 66.5066 100.239 66.7419 100.518 66.8702C101.385 67.274 101.534 66.298 101.368 65.632C101.213 65.012 100.799 64.7211 100.294 64.3785C99.1058 63.5748 97.625 62.528 96.2589 62.8418Z" fill="white"/>
<path d="M53.8164 65.4789C56.0442 64.7115 57.2498 65.5957 60.1463 64.8838C60.4883 64.7996 60.3679 65.6263 60.5628 65.921C60.8379 66.3363 59.6935 66.7994 59.426 67.2204C59.1585 67.6414 58.7401 67.9399 58.3236 68.2155C56.048 69.7254 52.586 71.8783 49.7392 71.6085C49.0284 71.5415 44.4658 71.4496 44.9588 70.6708C46.3612 68.4509 49.5615 68.5179 50.2722 68.0758C51.8141 67.1151 51.5256 66.2693 53.8164 65.4789Z" fill="#AD3E3B"/>
<path d="M52.8897 69.9723C49.8194 71.3195 43.7665 68.2863 41.4929 74.0408C39.2192 79.7933 43.6882 90.3894 48.3214 93.903C52.9547 97.4165 60.5035 95.6789 65.112 93.7843C70.4942 91.5721 77.3743 85.6511 74.5829 76.4979C72.1392 68.4911 67.3684 62.4629 60.4539 64.7785C56.2448 66.1889 57.9185 67.7658 52.8897 69.9723Z" fill="#D34D46"/>
<path d="M64.7337 64.3996C67.1716 66.608 69.0268 70.1809 70.2745 74.2704C73.0678 83.4217 66.1857 89.3446 60.8035 91.5568C57.267 93.0093 51.9975 94.3718 47.6451 93.3385C47.8705 93.5432 48.096 93.7308 48.3214 93.903C52.9547 97.4165 60.5036 95.6789 65.112 93.7843C70.4942 91.5721 77.3743 85.6512 74.5829 76.498C72.6818 70.2651 69.3688 65.2321 64.7337 64.3996Z" fill="#AD3E3B"/>
<path opacity="0.27" d="M44.697 76.5726C44.204 78.0347 44.2575 79.6517 44.7065 81.1291C44.9683 81.9903 45.3848 82.838 46.086 83.4007C46.7891 83.9614 47.8247 84.168 48.6023 83.7183C48.801 83.6035 48.9825 83.4447 49.0876 83.2399C49.2366 82.9509 49.2213 82.6103 49.2022 82.285C49.1143 80.7617 49.0475 79.1656 49.6913 77.784C49.999 77.1237 50.4575 76.542 50.7422 75.8703C51.0269 75.2005 51.1071 74.3699 50.6734 73.7843C50.0047 72.8811 48.3348 72.9002 47.4024 73.3021C46.1185 73.859 45.1307 75.2885 44.697 76.5726Z" fill="white"/>
<path opacity="0.27" d="M48.6042 85.4598C47.9871 85.6971 47.7062 86.5027 47.9431 87.1228C48.18 87.7409 48.8296 88.1408 49.4888 88.1983C49.8365 88.2289 50.2263 88.1562 50.446 87.8863C50.6065 87.6892 50.6505 87.4232 50.6505 87.1687C50.6505 86.6998 50.5072 86.2214 50.1976 85.8674C49.89 85.5134 49.4047 85.3048 48.9424 85.3813L48.6042 85.4598Z" fill="white"/>
<path d="M52.0052 70.2364C52.0052 70.2364 50.9505 66.164 50.9123 63.9882C50.8722 61.8123 51.8829 58.0327 51.8829 58.0327L53.5852 58.2605C53.5852 58.2605 52.2402 60.8076 52.1962 63.6016C52.1657 65.5555 52.8898 69.9704 52.8898 69.9704L52.0052 70.2364Z" fill="#60443E"/>
<path d="M52.1981 63.6054C52.1981 63.6054 54.4202 58.9475 57.8172 57.6443C62.3626 55.899 66.4418 55.9105 66.4418 55.9105C66.4418 55.9105 65.0642 61.3511 61.5869 63.2629C58.1096 65.1746 52.2554 65.0043 52.2554 65.0043L52.1981 63.6054Z" fill="#436B49"/>
<path opacity="0.27" d="M57.1791 60.0612C57.1524 60.132 57.1313 60.2086 57.1524 60.2813C57.181 60.377 57.2804 60.4421 57.3816 60.4861C57.7255 60.6296 58.144 60.5913 58.5051 60.4669C58.8662 60.3425 59.1853 60.1435 59.5139 59.9636C60.282 59.5426 61.1188 59.2211 61.9901 59.0106C62.2977 58.936 62.6187 58.8728 62.8804 58.7102C63.6943 58.205 62.9607 57.5447 62.3149 57.3189C61.713 57.1084 61.2411 57.294 60.6794 57.5294C59.3534 58.0806 57.6663 58.7446 57.1791 60.0612Z" fill="white"/>
<path d="M4.04095 85.5229L4.4651 97.9198L2.14752 104.285L4.91028 110.937L135.837 111.109L137.985 101.324L131.304 78.3313L4.04095 85.5229Z" fill="#E0BD9D"/>
<path d="M4.46511 97.9198C4.46511 97.9198 48.6463 105.192 69.7281 105.473C90.8098 105.754 124.981 103.228 124.981 103.228C124.981 103.228 119.519 111.13 120.081 111.109C120.64 111.09 135.837 111.109 135.837 111.109L137.987 101.322L133.766 86.7993L4.04095 84.7287L4.46511 97.9198Z" fill="#C4A58C"/>
<path d="M0.317166 65.9497C0.317166 65.9497 18.3057 79.1618 57.546 78.7044C96.7882 78.247 134.152 64.0321 134.152 64.0321L140.937 86.941C140.937 86.941 127.135 102.099 82.8846 101.665C38.6347 101.23 1.02983 94.0637 0.317166 92.6418C-0.395496 91.22 0.317166 65.9497 0.317166 65.9497Z" fill="#EBCFA8"/>
<path opacity="0.21" d="M6.63747 78.3753C7.19919 78.6968 7.78575 79.1542 7.84116 79.7991C7.93096 80.8114 6.75402 81.3836 6.07193 82.1357C4.72685 83.615 5.39939 86.1506 6.9298 87.4366C8.4602 88.7226 10.537 89.09 12.5088 89.4115C24.3336 91.3386 36.1604 93.2638 47.9852 95.1909C57.5555 96.7505 68.3581 98.0231 76.056 92.1194C76.4095 91.8477 76.7706 91.5357 76.8833 91.1052C77.1546 90.0622 75.8898 89.3273 74.8562 89.0231C60.6889 84.8646 45.4498 86.3669 31.0112 83.2782C29.9146 83.0428 28.7739 82.7576 27.9332 82.0151C27.4346 81.575 27.0735 81.0009 26.5843 80.5512C25.8258 79.8507 24.8208 79.4967 23.8445 79.1599C18.2636 77.2328 12.6712 74.8617 7.00813 73.2351C5.41658 72.7777 3.70658 71.8362 2.864 73.8647C1.79787 76.4233 5.19877 77.296 6.63747 78.3753Z" fill="white"/>
<path opacity="0.21" d="M94.9979 79.9215C93.6108 80.3617 91.8989 81.3893 92.3307 82.7806C95.7927 84.4378 99.8318 82.926 103.567 82.0515C112.774 79.8928 122.967 81.6994 131.376 77.3687C132.7 76.6855 134.135 75.409 133.696 73.9853C133.554 73.5279 133.231 73.1509 132.895 72.8103C128.6 68.4796 121.122 72.483 116.022 73.8226C108.963 75.6751 101.953 77.7093 94.9979 79.9215Z" fill="white"/>
<path d="M2.14752 104.285L35.6885 106.88L3.69512 108.011L2.14752 104.285Z" fill="#C4A58C"/>
</g>
<defs>
<clipPath id="clip0">
<rect width="140.937" height="111.109" fill="white"/>
</clipPath>
</defs>
</svg>
